<?xml version="1.0" encoding="UTF-8" standalone="no"?>
<svg
   xmlns:dc="http://purl.org/dc/elements/1.1/"
   xmlns:cc="http://creativecommons.org/ns#"
   xmlns:rdf="http://www.w3.org/1999/02/22-rdf-syntax-ns#"
   xmlns:svg="http://www.w3.org/2000/svg"
   xmlns="http://www.w3.org/2000/svg"
   xmlns:sodipodi="http://sodipodi.sourceforge.net/DTD/sodipodi-0.dtd"
   xmlns:inkscape="http://www.inkscape.org/namespaces/inkscape"
   width="100mm"
   height="100mm"
   viewBox="0 0 100 100"
   version="1.1"
   id="svg8"
   inkscape:version="1.0.2 (e86c870879, 2021-01-15, custom)"
   sodipodi:docname="Tentaklon.svg">
  <defs
     id="defs2" />
  <sodipodi:namedview
     id="base"
     pagecolor="#ffffff"
     bordercolor="#666666"
     borderopacity="1.0"
     inkscape:pageopacity="0.0"
     inkscape:pageshadow="2"
     inkscape:zoom="1.4142136"
     inkscape:cx="125.8516"
     inkscape:cy="103.90141"
     inkscape:document-units="mm"
     inkscape:current-layer="g22"
     inkscape:document-rotation="0"
     showgrid="false"
     inkscape:window-width="1920"
     inkscape:window-height="1001"
     inkscape:window-x="-9"
     inkscape:window-y="-9"
     inkscape:window-maximized="1" />
  <metadata
     id="metadata5">
    <rdf:RDF>
      <cc:Work
         rdf:about="">
        <dc:format>image/svg+xml</dc:format>
        <dc:type
           rdf:resource="http://purl.org/dc/dcmitype/StillImage" />
        <dc:title></dc:title>
      </cc:Work>
    </rdf:RDF>
  </metadata>
  <g
     inkscape:label="Ebene 1"
     inkscape:groupmode="layer"
     id="layer1">
    <g
       id="g78">
      <g
         id="g22"
         transform="matrix(3.5327121,0,0,3.5327396,-79.061045,-358.83584)">
        <g
           id="g1124"
           transform="matrix(1.0218293,0,0,1.0218293,-0.82097638,-2.6911779)">
          <ellipse
             style="opacity:0.996;fill:#800000;fill-opacity:1;fill-rule:evenodd;stroke:#800000;stroke-width:0.0695753;stroke-opacity:0.996078"
             id="path965"
             cx="36.533134"
             cy="115.72771"
             rx="7.0419283"
             ry="7.041873" />
          <path
             style="fill:#800000;stroke:#800000;stroke-width:0.0748949px;stroke-linecap:butt;stroke-linejoin:miter;stroke-opacity:1"
             d="m 42.583534,117.43546 c 0.08826,0.10591 0.148122,0.24429 0.264795,0.31775 0.277647,0.17481 0.715583,0.14595 1.00622,0.29127 0.196996,0.0985 0.401883,0.17273 0.609028,0.26479 0.05875,0.0261 0.126686,0.0864 0.185356,0.10592 0.105918,0.0353 0.211836,0.0706 0.317753,0.10592 0.02512,0.008 0.05485,-0.01 0.07944,0 0.362211,0.14488 0.613699,0.24723 0.953261,0.37071 0.148902,0.0541 0.2189,0.19235 0.344233,0.23831 0.27259,0.1 0.539195,0.22086 0.820863,0.29127 0.174156,0.0435 0.390654,0.0497 0.556069,0.1324 0.0079,0.004 -0.0062,0.0202 0,0.0265 0.01248,0.0125 0.03827,-0.01 0.05296,0 0.03672,0.0245 0.07471,0.0482 0.105918,0.0794 0.0062,0.006 -0.0073,0.0216 0,0.0265 0.07561,0.0504 0.161648,0.0836 0.238315,0.1324 0.133384,0.0849 0.233807,0.21033 0.397192,0.26479 0.03637,0.0121 0.09525,-0.005 0.132397,0 0.05296,0.009 0.105918,0.0177 0.158877,0.0265 0.01765,0.009 0.03381,0.0217 0.05296,0.0265 0.137485,0.0344 0.364678,0 0.50311,0 0.05128,0 0.16696,0.0224 0.211835,0 0.03188,-0.0159 0.105185,-0.13239 0.07944,-0.13239 -0.02625,0 0.08463,0.14468 0.105918,0.15887 0.04187,0.0279 0.179155,0.30535 0.185356,0.31775 0.0551,0.1102 -0.0018,-0.0283 0.05296,0.0265 0.03182,0.0318 0.01765,0.0883 0.02648,0.1324 0.02203,0.11017 0.02061,0.51484 -0.02648,0.60902 -0.02376,0.0475 -0.0625,0.089 -0.105918,0.1324 -0.03659,0.0366 -0.345043,8.1e-4 -0.423671,0.0794 -0.0062,0.006 0,0.0176 0,0.0265 -0.01765,0.0177 -0.03219,0.0391 -0.05296,0.053 -0.0068,0.005 -0.740114,0.0268 -0.741425,0.0265 -0.246796,-0.0617 -0.494048,-0.20292 -0.741425,-0.29127 -0.05913,-0.0211 -0.733524,0.0516 -0.767905,0 -0.01469,-0.022 0.0064,-0.0538 0,-0.0794 -0.01726,-0.069 -0.08093,-0.11872 -0.105918,-0.18535 -0.02773,-0.074 -0.01511,-0.10462 -0.07944,-0.21184 -0.0042,-0.007 -0.154155,-0.051 -0.158877,-0.053 -0.230766,-0.094 -0.45207,-0.21248 -0.688466,-0.29128 -0.01675,-0.006 -0.03717,0.008 -0.05296,0 -0.212762,-0.10638 -0.526023,-0.28624 -0.688467,-0.37071 -0.04217,-0.0219 -0.09285,-0.0266 -0.132397,-0.053 -0.121988,-0.0813 -0.323376,-0.20425 -0.476631,-0.23831 -0.07802,-0.0173 -0.166826,0.009 -0.238315,-0.0265 -0.02233,-0.0112 -0.03219,-0.0391 -0.05296,-0.053 -0.08596,-0.0573 -0.192665,-0.0751 -0.291274,-0.10591 -0.07629,-0.0238 -0.162489,-10e-4 -0.238315,-0.0265 -0.0084,-0.003 0.0062,-0.0202 0,-0.0265 -0.01248,-0.0125 -0.03621,0.006 -0.05296,0 -0.07154,-0.0238 -0.141816,-0.0514 -0.211836,-0.0794 -0.01765,-0.009 -0.03531,-0.0177 -0.05296,-0.0265 0,-0.009 0.0072,-0.0213 0,-0.0265 -0.06013,-0.043 -0.526101,-0.29011 -0.609027,-0.31775 -0.09257,-0.0309 -0.499346,-0.0681 -0.55607,-0.10592 -0.02077,-0.0138 -0.03219,-0.0391 -0.05296,-0.053 -0.03026,-0.0202 -0.03254,0.0348 -0.05296,-0.0265 -0.02283,-0.0685 0.03137,-0.0676 0.05296,-0.1324 0.0062,-0.0187 -0.03329,0.0248 -0.05296,0.0265 -0.09716,0.008 -0.194183,0.0176 -0.291275,0.0265"
             id="path1039" />
          <g
             id="g1070"
             style="fill:#800000;stroke:#800000">
            <g
               id="g1019"
               style="fill:#800000;fill-opacity:0.996078;stroke:#800000;stroke-opacity:0.996078">
              <path
                 style="fill:#800000;fill-opacity:0.996078;stroke:#800000;stroke-width:0.0748949px;stroke-linecap:butt;stroke-linejoin:miter;stroke-opacity:0.996078"
                 d="m 33.164617,109.79407 -0.936191,0.7115"
                 id="path971" />
              <path
                 style="fill:#800000;fill-opacity:0.996078;stroke:#800000;stroke-width:0.0748949px;stroke-linecap:butt;stroke-linejoin:miter;stroke-opacity:0.996078"
                 d="m 31.488639,111.34523 -0.423672,0.71494"
                 id="path973" />
              <path
                 style="fill:#800000;fill-opacity:0.996078;stroke:#800000;stroke-width:0.0748949px;stroke-linecap:butt;stroke-linejoin:miter;stroke-opacity:0.996078"
                 d="m 30.40298,113.30469 v 1.19157"
                 id="path975" />
              <path
                 style="fill:#800000;fill-opacity:0.996078;stroke:#800000;stroke-width:0.0748949px;stroke-linecap:butt;stroke-linejoin:miter;stroke-opacity:0.996078"
                 d="m 30.297062,115.82022 0.105918,1.45636"
                 id="path977" />
              <path
                 style="fill:#800000;fill-opacity:0.996078;stroke:#800000;stroke-width:0.0748949px;stroke-linecap:butt;stroke-linejoin:miter;stroke-opacity:0.996078"
                 d="m 30.90609,118.67998 0.953261,1.21805"
                 id="path979" />
              <path
                 style="fill:#800000;fill-opacity:0.996078;stroke:#800000;stroke-width:0.0748949px;stroke-linecap:butt;stroke-linejoin:miter;stroke-opacity:0.996078"
                 d="m 32.786132,120.79832 1.323973,0.71494"
                 id="path981" />
              <path
                 style="fill:#800000;fill-opacity:0.996078;stroke:#800000;stroke-width:0.0748949px;stroke-linecap:butt;stroke-linejoin:miter;stroke-opacity:0.996078"
                 d="m 35.645915,122.01637 1.509329,-0.0265"
                 id="path983" />
              <path
                 style="fill:#800000;fill-opacity:0.996078;stroke:#800000;stroke-width:0.0748949px;stroke-linecap:butt;stroke-linejoin:miter;stroke-opacity:0.996078"
                 d="m 38.055546,121.85749 1.48285,-0.55606"
                 id="path985" />
              <path
                 style="fill:#800000;fill-opacity:0.996078;stroke:#800000;stroke-width:0.0748949px;stroke-linecap:butt;stroke-linejoin:miter;stroke-opacity:0.996078"
                 d="m 40.624054,120.74537 0.926782,-1.19157"
                 id="path987" />
              <path
                 style="fill:#800000;fill-opacity:0.996078;stroke:#800000;stroke-width:0.0748949px;stroke-linecap:butt;stroke-linejoin:miter;stroke-opacity:0.996078"
                 d="m 42.080425,118.83886 0.50311,-1.4034"
                 id="path989" />
              <path
                 style="fill:#800000;fill-opacity:0.996078;stroke:#800000;stroke-width:0.0748949px;stroke-linecap:butt;stroke-linejoin:miter;stroke-opacity:0.996078"
                 d="m 42.874809,115.23768 -0.132397,1.48284"
                 id="path991" />
              <path
                 style="fill:#800000;fill-opacity:0.996078;stroke:#800000;stroke-width:0.0748949px;stroke-linecap:butt;stroke-linejoin:miter;stroke-opacity:0.996078"
                 d="m 42.239301,113.59596 -0.47663,-1.16508"
                 id="path993" />
              <path
                 style="fill:#800000;fill-opacity:0.996078;stroke:#800000;stroke-width:0.0748949px;stroke-linecap:butt;stroke-linejoin:miter;stroke-opacity:0.996078"
                 d="m 40.253342,110.41845 0.97974,1.13861"
                 id="path995" />
              <path
                 style="fill:#800000;fill-opacity:0.996078;stroke:#800000;stroke-width:0.0748949px;stroke-linecap:butt;stroke-linejoin:miter;stroke-opacity:0.996078"
                 d="m 39.511916,110.1007 -1.032699,-0.45015"
                 id="path997" />
              <path
                 style="fill:#800000;fill-opacity:0.996078;stroke:#800000;stroke-width:0.0748949px;stroke-linecap:butt;stroke-linejoin:miter;stroke-opacity:0.996078"
                 d="m 37.870189,109.22689 -1.48285,-0.21184"
                 id="path999" />
              <path
                 style="fill:#800000;fill-opacity:0.996078;stroke:#800000;stroke-width:0.0748949px;stroke-linecap:butt;stroke-linejoin:miter;stroke-opacity:0.996078"
                 d="m 35.407599,109.12097 -1.297494,0.39719"
                 id="path1001" />
            </g>
            <g
               id="g1031"
               style="fill:#800000;stroke:#800000">
              <path
                 style="fill:#800000;fill-opacity:0.996078;stroke:#800000;stroke-width:0.0748949px;stroke-linecap:butt;stroke-linejoin:miter;stroke-opacity:0.996078"
                 d="m 36.387338,109.01505 c 0.02153,-0.18301 -0.0364,-0.35744 -0.07944,-0.52958 -0.02285,-0.0914 0.02284,-0.1999 0,-0.29127 -0.0034,-0.0137 -0.07288,-0.3112 -0.07944,-0.31776 -0.0062,-0.006 -0.01765,0 -0.02648,0 -0.05296,-0.0618 -0.115747,-0.11634 -0.158876,-0.18535 -0.0066,-0.0106 0.01922,-0.0163 0.02648,-0.0265 0.204038,-0.28565 0.143582,-0.13985 0.370712,-0.29127 0.09605,-0.064 0.04499,-0.41057 0.02648,-0.50311 -0.03517,-0.17584 -0.36186,-0.77679 -0.344233,-0.82085 0.04934,-0.12336 0.138065,-0.13996 0.211836,-0.23832 0.147397,-0.19653 0.231461,-0.34329 0.291273,-0.58254 0.01792,-0.0717 0.01896,-0.24192 0,-0.31775 -0.01198,-0.0479 -0.106325,-0.0668 -0.132396,-0.10592 -0.07344,-0.11016 0,-0.26479 0,-0.39719 0,-0.10261 -0.003,-0.10146 0.05296,-0.18535 0.01433,-0.0215 -0.01785,-0.0881 0,-0.10592 0.01248,-0.0125 0.03717,0.008 0.05296,0 0.01116,-0.006 0.01532,-0.0209 0.02648,-0.0265 0.04425,-0.0221 0.08822,-0.0353 0.132398,-0.0794 0.04996,-0.05 -0.02343,-0.58559 0.132398,-0.74142 0.04573,-0.0457 0.08653,-0.03 0.132397,-0.053 0.134582,-0.0673 0.06428,-0.0794 0.158877,-0.0794 0.05058,0 0.167541,-0.0222 0.211835,0 0.02233,0.0112 0.03063,0.0418 0.05296,0.0529 0.02368,0.0118 0.07944,-0.0265 0.07944,0 0,0.0125 -0.0209,0.0153 -0.02648,0.0265 -0.0238,0.0476 -0.04353,0.16468 -0.05296,0.21184 -0.03105,0.15525 0,0.33913 0,0.5031 0,0.0455 -0.01026,0.0999 -0.02648,0.1324 -0.0079,0.0158 -0.04048,-0.0125 -0.05296,0 -0.02825,0.0282 -0.06031,0.0868 -0.105918,0.1324 -0.0062,0.006 -0.02434,-0.009 -0.02648,0 -0.07236,0.28945 0.262173,0.29914 0.185357,0.52958 -0.03249,0.0975 -0.0478,0.10076 -0.105918,0.15888 -0.04535,0.0454 -0.07339,0.17325 -0.105918,0.23831 -0.0056,0.0112 -0.02493,0.0141 -0.02648,0.0265 -0.0077,0.0613 0,0.12357 0,0.18536 0,0.0177 -0.01248,0.0405 0,0.0529 0.06252,0.0625 -0.01393,-0.14769 0.05296,0.053 0.01963,0.0589 0.02786,0.1226 0.05296,0.18536 7.87e-4,0.002 0.03974,0.0596 0.02648,0.0794 -0.07454,0.11181 -0.04561,0.0721 -0.158877,0.18536 -0.01736,0.0174 -0.01321,0.0926 -0.02648,0.10592 -0.0062,0.006 -0.02369,-0.008 -0.02648,0 -0.05183,0.15547 0.105445,0.21159 0.211836,0.26479 0.0079,0.004 0.02118,-0.007 0.02648,0 0.106157,0.14154 0.0327,0.0576 0.05296,0.15887 0.0071,0.0357 0.04667,0.0756 0.02648,0.10592 -0.02605,0.0391 -0.08369,0.0837 -0.105918,0.10592 -0.08489,0.0849 -0.07061,0.22949 -0.105918,0.34423 -0.01462,0.0475 -0.0334,0.0574 -0.02648,0.10592 0.01345,0.0942 0.03703,0.20646 0.07944,0.29127 0.08772,0.17543 0.305426,0.25429 0.370712,0.45015 0.02027,0.0608 0.02227,0.26207 0,0.31775 -0.01182,0.0295 -0.03873,0.051 -0.05296,0.0794 -0.01028,0.0206 -0.01892,0.19292 0,0.21184 0.03687,0.0369 0.07944,0.0426 0.07944,0.10592 0,0.0794 -0.02424,0.21856 0,0.29127 0.02755,0.0827 0.01765,-0.009 0.05296,0.0265 0.02822,0.0282 -0.02846,0.36873 0,0.39719 0.103342,0.10334 0.01422,-0.006 0.07944,0.0265 0.06559,0.0328 0.02199,0.23427 0.07944,-0.053"
                 id="path1023" />
              <path
                 style="fill:#800000;stroke:#800000;stroke-width:0.0748949px;stroke-linecap:butt;stroke-linejoin:miter;stroke-opacity:1"
                 d="m 38.479216,109.65055 c 0.01261,-0.0791 0.03334,-0.0801 0.07786,-0.13734 0.03615,-0.0465 0.05199,-0.10815 0.09362,-0.14979 0.03116,-0.0312 0.110204,-0.0419 0.14979,-0.0749 0.02712,-0.0226 0.04733,-0.0528 0.0749,-0.0749 0.01722,-0.0138 0.02892,0.0239 0.03745,-0.0187 0.07797,-0.38982 0.01872,-0.7865 0.01872,-1.17959 0,-0.0733 -0.02948,-0.20835 -0.01872,-0.26213 0.01459,-0.073 0.113422,-0.2263 0.149791,-0.28086 0.0035,-0.005 0.01431,0.004 0.01872,0 0.01423,-0.0142 0.04049,-0.0779 0.05617,-0.0936 0.0044,-0.004 0.01675,0.006 0.01872,0 0.0218,-0.0654 -0.0011,-0.13993 0.01872,-0.20596 0.0051,-0.0169 0.02955,-0.0217 0.03745,-0.0374 0.0056,-0.0112 -0.0056,-0.0263 0,-0.0375 0.0028,-0.006 0.01641,0.006 0.01872,0 0.07557,-0.0274 0.0078,-0.076 0.01872,-0.11234 0.01701,-0.0567 0.03916,-0.1118 0.05617,-0.16851 0.0084,-0.028 0.0346,-0.14911 0.05617,-0.16852 0.147318,-0.13258 0.181009,-0.0687 0.280857,-0.16851 0.08738,-0.0936 0.174755,-0.18724 0.262133,-0.28085 0,-0.006 -0.0044,-0.0143 0,-0.0187 0.02256,-0.0226 0.115197,-0.046 0.131067,-0.0936 0.104358,-0.31307 0.271438,-0.60823 0.337028,-0.93618 0.02579,-0.12897 -0.0838,-0.56723 -0.05617,-0.61788 0.23301,-0.42718 -0.01128,0.09 0.112343,-0.28086 0.0182,-0.0546 0.08776,-0.0744 0.131067,-0.11234 0.01328,-0.0116 0.02766,-0.0228 0.03745,-0.0375 0.0035,-0.005 -0.0059,-0.0168 0,-0.0187 0.01776,-0.006 0.0387,0.007 0.05617,0 0.07161,-0.0275 0.163175,-0.10432 0.243409,-0.13106 0.02729,-0.009 0.110829,-0.008 0.131067,0 0.2629,0.0978 0.526381,0.19433 0.7864,0.29957 0.02048,0.008 -0.03257,0.22879 -0.03745,0.24341 -0.0068,0.0203 -0.04137,0.0226 -0.05617,0.0374 -0.04533,0.0453 -0.03798,0.0404 -0.131067,0.0936 -0.05912,0.0338 -0.39805,-0.0326 -0.430648,0 -0.05032,0.0503 -0.04126,0.13638 -0.05617,0.20596 -0.02117,0.0988 -0.01872,0.0646 -0.01872,0.13106 0,0.21234 0.188645,0.30005 0.355753,0.35575 0.02293,0.008 0.07197,0.0848 0.07489,0.0936 0.01928,0.0578 0.0026,0.40156 0,0.41192 -0.01637,0.0655 -0.06841,0.11726 -0.112343,0.16851 -0.01868,0.0218 -0.07897,0.0228 -0.09362,0.0374 -0.03363,0.0336 0.08079,0.0138 -0.03745,0.0375 -0.04221,0.008 -0.06023,-0.0147 -0.09362,0.0187 -0.0044,0.004 0.0052,0.0153 0,0.0187 -0.08206,0.0547 -0.194467,0.10659 -0.280857,0.14979 -0.01117,0.006 -0.02746,-0.007 -0.03745,0 -0.02118,0.0159 -0.03549,0.0396 -0.05617,0.0562 -0.0109,0.009 -0.02971,0.007 -0.03745,0.0187 -0.0069,0.0104 0.0039,0.0256 0,0.0374 -0.02573,0.0772 -0.09467,0.13317 -0.131066,0.20596 -0.02041,0.0408 -0.0076,0.10531 -0.01872,0.14979 -0.0158,0.0632 -0.04037,0.12402 -0.05617,0.18723 -0.004,0.0158 0.0082,0.0585 0,0.0749 -0.03845,0.0769 -0.08579,0.14504 -0.112343,0.22468 -0.0093,0.028 0.0037,0.0638 0,0.0936 -0.01248,0.0936 -0.02497,0.18724 -0.03745,0.28086 -0.0062,0.025 -0.01508,0.0494 -0.01872,0.0749 -0.0146,0.10219 0.0049,0.19349 -0.01872,0.29958 -0.0054,0.0244 -0.05095,0.0296 -0.05617,0.0375 -0.02322,0.0348 -0.0354,0.076 -0.05617,0.11234 -0.01656,0.029 -0.04955,0.0393 -0.0749,0.0562 -0.02938,0.0196 -0.05531,0.0455 -0.07489,0.0749 -0.0035,0.005 0.01872,0.006 0.01872,0 0,-0.005 -0.056,0.0372 -0.05617,0.0375 -0.01184,0.0158 -0.0078,0.0397 -0.01872,0.0562 -0.0035,0.005 -0.01248,0 -0.01872,0 -0.0062,0.006 -0.01478,0.0108 -0.01872,0.0187 -0.04509,0.0902 -0.07193,0.18848 -0.112343,0.28085 -0.009,0.0206 -0.03033,0.0348 -0.03745,0.0562 -0.0039,0.0118 0.0056,0.0263 0,0.0375 -0.0017,0.003 -0.03146,0.0195 -0.03745,0.0374 -0.0096,0.0287 0.0019,0.1387 0,0.14979 -0.0015,0.009 -0.01478,0.0108 -0.01872,0.0187 -0.01437,0.0287 0.0065,0.0798 0,0.11234 -0.03497,0.17486 -0.07741,0.34959 -0.112343,0.52426 -0.0024,0.0122 0.0056,0.0263 0,0.0375 -0.0028,0.006 -0.01431,-0.004 -0.01872,0 -0.0095,0.01 -0.03154,0.15081 -0.03745,0.16852 -0.01082,0.0324 -0.05505,0.0638 -0.07489,0.0936 -0.02057,0.0309 -0.05619,0.19869 -0.05624,0.23174"
                 id="path1027" />
            </g>
            <path
               style="fill:#800000;stroke:#800000;stroke-width:0.0748949px;stroke-linecap:butt;stroke-linejoin:miter;stroke-opacity:1"
               d="m 40.253341,110.41845 c 0.381167,0.0168 0.83476,-0.33859 1.0327,-0.6355 0.03696,-0.0554 -0.0091,-0.55352 0,-0.6355 9.73e-4,-0.009 0.02024,0.006 0.02648,0 0.03947,-0.0395 0.02199,-0.11243 0.05296,-0.15888 0.04616,-0.0692 0.474264,-0.325 0.50311,-0.34423 0.123033,-0.082 0.20467,-0.16219 0.344233,-0.23831 0.0245,-0.0134 0.05711,-0.01 0.07944,-0.0265 0.01579,-0.0118 0.01006,-0.042 0.02648,-0.053 0.01469,-0.01 0.0394,0.0113 0.05296,0 0.04342,-0.0362 0.0625,-0.0962 0.105917,-0.13239 0.01356,-0.0113 0.03827,0.01 0.05296,0 0.105401,-0.0703 0.325162,-0.31605 0.370712,-0.37071 0.07293,-0.0875 0.210392,-0.53922 0.238316,-0.60903 0.02942,-0.0735 0.110331,-0.19859 0.132397,-0.26479 0.0084,-0.0251 -0.0084,-0.0543 0,-0.0794 0.01006,-0.0302 0.04405,-0.0489 0.05296,-0.0794 0.06681,-0.22907 0.10278,-0.46407 0.158877,-0.68846 0.06371,-0.25485 -0.0204,0.0438 0.07944,-0.10591 0.0098,-0.0147 -0.0079,-0.0372 0,-0.053 0.01116,-0.0223 0.03932,-0.032 0.05296,-0.053 0.137415,-0.2107 0.320987,-0.61226 0.529589,-0.82086 0.01974,-0.0197 0.05764,-0.009 0.07944,-0.0265 0.585534,-0.46842 -0.05236,-3.9e-4 0.344232,-0.26479 0.134091,-0.0894 0.246557,-0.19195 0.370713,-0.29127 0.03134,-0.0251 0.145306,-0.0165 0.185356,-0.0265 0.19749,-0.0494 0.38548,-0.13609 0.582549,-0.18536 0.03431,-0.009 0.128913,-0.0115 0.158877,-0.0265 0.0079,-0.004 -0.0073,-0.0215 0,-0.0265 0.251913,-0.17374 0.508405,-0.34092 0.767904,-0.50311 0.06551,-0.0409 0.08486,-0.003 0.132397,-0.0265 0.04495,-0.0225 0.127803,-0.11397 0.185357,-0.0794 0.06472,0.0388 0.1224,0.0898 0.158877,0.1324 0.06917,0.0807 0.13668,0.16316 0.211835,0.23831 0.0062,0.006 0.02369,-0.008 0.02648,0 0.02391,0.0717 0.06493,0.32501 -0.02648,0.37071 -0.06998,0.035 -0.186322,-0.0127 -0.264795,0.0265 -0.09479,0.0474 -0.216399,0.0817 -0.317753,0.1324 -0.02233,0.0112 -0.02874,0.0469 -0.05296,0.053 -0.06055,0.0151 -0.124807,0.0113 -0.185356,0.0265 -0.02422,0.006 -0.03063,0.0418 -0.05296,0.053 -0.0079,0.004 -0.01765,0 -0.02648,0 -0.02648,0.009 -0.0555,0.0121 -0.07944,0.0265 -0.07398,0.0444 -0.162818,0.12169 -0.185356,0.21184 -0.0077,0.0309 -0.02316,0.17761 -0.02648,0.18535 -0.02803,0.0654 -0.08341,0.11785 -0.105918,0.18536 -0.0028,0.008 0,0.0177 0,0.0265 -0.03531,0.0794 -0.07621,0.15661 -0.105917,0.23831 -0.006,0.0166 0.0098,0.0383 0,0.053 -0.01095,0.0164 -0.039,0.0125 -0.05296,0.0265 -0.02939,0.0294 -0.05004,0.15596 -0.07944,0.18535 -0.01248,0.0125 -0.03717,-0.008 -0.05296,0 -0.0948,0.0474 -0.21073,0.10481 -0.291274,0.18536 -0.01248,0.0125 0.0079,0.0372 0,0.053 -0.0079,0.0158 -0.03621,-0.006 -0.05296,0 -0.114828,0.0383 -0.216274,0.0368 -0.344233,0.0794 -0.0084,0.003 0.0062,0.0202 0,0.0265 -0.01713,0.0171 -0.116201,0.0422 -0.132397,0.053 -0.0073,0.005 0,0.0177 0,0.0265 -0.0088,0.009 -0.01532,0.0209 -0.02648,0.0265 -0.0079,0.004 -0.023,-0.008 -0.02648,0 -0.02531,0.0591 -0.02824,0.12604 -0.05296,0.18535 -0.0198,0.0475 -0.05642,0.0864 -0.07944,0.1324 -0.09383,0.18765 -0.148501,0.39294 -0.238315,0.58254 -0.0018,0.004 -0.07298,0.0216 -0.07944,0.0265 -0.328067,0.24605 0.06099,-0.0345 -0.105918,0.1324 -0.03538,0.0354 -0.131681,0.0522 -0.158877,0.0794 -0.01396,0.0139 -0.01252,0.039 -0.02648,0.053 -0.0706,0.0706 -0.223238,0.12234 -0.317753,0.18535 -0.01039,0.007 -0.01765,0.0177 -0.02648,0.0265 -0.0088,0.0176 -0.01006,0.042 -0.02648,0.053 -0.01469,0.01 -0.03827,-0.01 -0.05296,0 -0.02648,0.0177 -0.03659,0.0521 -0.05296,0.0794 -0.0336,0.056 -0.196531,0.34302 -0.211835,0.45014 -0.01723,0.12063 0.02003,0.25055 0,0.37071 -0.02593,0.1556 -0.112454,0.33736 -0.158877,0.47663 -0.0056,0.0168 0.01248,0.0405 0,0.053 -0.0062,0.006 -0.02253,-0.008 -0.02648,0 -0.05158,0.10316 -0.01289,0.0902 -0.02648,0.18535 -0.0088,0.0353 -0.01765,0.0706 -0.02648,0.10592 -0.0088,0.009 -0.02305,0.0145 -0.02648,0.0265 -0.159398,0.55789 0.03693,-0.0787 -0.02648,0.23831 -0.01599,0.0799 -0.09883,0.1447 -0.132398,0.21184 -0.03261,0.0652 0.07686,-0.0239 -0.02648,0.0794 -0.0062,0.006 -0.02253,-0.008 -0.02648,0 -0.0079,0.0158 0.0056,0.0362 0,0.0529 -0.01384,0.0415 -0.440351,0.54071 -0.503111,0.58255 -0.01705,0.0114 -0.05967,-0.007 -0.07944,0 -0.149376,0.0498 -0.480983,0.11027 -0.582548,0.21183 -0.0062,0.006 0,0.0177 0,0.0265 -0.08827,0.053 -0.177954,0.10361 -0.264795,0.15888 -0.151527,0.0964 0.05753,-0.0311 -0.02648,0.053 -0.01396,0.0139 -0.03654,0.0155 -0.05296,0.0265 -0.05246,-0.003 -0.01252,0.039 -0.02648,0.053 -0.0062,0.006 -0.02369,-0.008 -0.02648,0 -0.01427,0.0428 0.0331,0.2317 0,0.2648 -0.0062,0.006 -0.01765,0 -0.02648,0 -0.04413,0.0529 -0.08826,0.10591 -0.132398,0.15887"
               id="path1033" />
            <path
               style="fill:#800000;stroke:#800000;stroke-width:0.0748949px;stroke-linecap:butt;stroke-linejoin:miter;stroke-opacity:1"
               d="m 41.76267,112.43088 c 0.132398,0.009 0.264705,0.0338 0.397193,0.0265 0.03178,-0.002 0.04989,-0.0411 0.07944,-0.053 0.01639,-0.007 0.04388,0.0151 0.05296,0 0.02316,-0.0386 0.0098,-0.0906 0.02648,-0.1324 0.0033,-0.008 0.01913,0.005 0.02648,0 0.368847,-0.29507 -0.05639,0.015 0.238315,-0.1324 0.05965,-0.0298 0.06094,-0.1024 0.105917,-0.13239 0.07447,-0.0496 0.166155,-0.0434 0.238316,-0.0794 0.187155,-0.0936 0.374823,-0.18671 0.556068,-0.29127 0.09204,-0.0531 0.17012,-0.13802 0.264795,-0.18536 0.01579,-0.008 0.03531,0 0.05296,0 0.167704,0 0.335407,0 0.50311,0 0.239921,0 0.520729,-0.0485 0.741425,-0.15887 0.02233,-0.0112 0.03481,-0.0358 0.05296,-0.053 0.140735,-0.13292 0.290999,-0.25622 0.423671,-0.39719 0.03085,-0.0328 0.0098,-0.0906 0.02648,-0.13239 0.0073,-0.0183 0.01765,-0.0353 0.02648,-0.053 0.01765,-0.0177 0.04313,-0.03 0.05296,-0.053 0.05169,-0.12061 0.100573,-0.24342 0.132397,-0.37071 0.05002,-0.20009 -0.04838,-0.0621 0.105919,-0.37071 0.0088,-0.0177 0.0088,-0.0441 0.02648,-0.053 0.01579,-0.008 0.03677,0.007 0.05296,0 0.188273,-0.0819 0.369666,-0.17876 0.556069,-0.26479 0.06847,-0.0316 0.155781,-0.029 0.211836,-0.0794 0.06974,-0.0628 0.141202,-0.12905 0.185356,-0.21183 0.122083,-0.22891 0.180428,-0.49325 0.291274,-0.71494 0.01552,-0.0311 -0.01572,-0.0314 -0.02648,-0.053 -0.169792,-0.33959 -0.02729,-0.18455 0.02648,-0.23832 0.0062,-0.006 0,-0.0177 0,-0.0265 0.04413,-0.0177 0.08731,-0.0379 0.132397,-0.0529 0.07193,-0.024 0.180452,-0.002 0.238316,0.0265 0.130958,0.0655 0.352056,-0.0716 0.47663,0.053 0.101817,0.10182 0.482668,0.6801 0.529589,0.82086 0.01675,0.0502 0.01967,0.10971 0,0.15888 -0.01376,0.0344 -0.13042,0.0569 -0.07944,0.15887 0.04058,0.0811 0.236924,0.11846 0.264795,0.1324 0.0042,0.002 0,0.21391 0,0.26479 0,0.0472 0.02031,0.218 0,0.23831 -0.100029,0.10003 -0.670446,0.053 -0.847343,0.053 -0.05187,0 -0.105917,0.018 -0.105917,0.0794 0,0.1041 -0.133726,0.17636 -0.185357,0.23831 -0.0182,0.0218 -0.238315,0.40972 -0.238315,0.23832 0,-0.0629 0,0.0843 0,0.10591 0,0.0109 -0.02896,0.23584 0.02648,0.29128 0.0062,0.006 0.01879,-0.004 0.02648,0 0.134572,0.0757 0.26262,0.16261 0.397192,0.23831 0.07667,0.0431 0.260376,-0.0243 0.317754,-0.053 0.19847,-0.0992 0.361827,0.23291 0.423671,0.34423 0.01178,0.0212 0.01483,0.19701 0,0.21184 -0.03304,0.033 -0.256109,0 -0.291274,0 -0.02404,0 -0.334407,-0.0209 -0.344233,-0.0265 -0.06593,-0.0377 -0.110902,-0.11751 -0.185356,-0.1324 -0.122038,-0.0244 -0.198568,-0.0582 -0.317754,-0.10592 -0.06491,-0.026 -0.213897,-0.002 -0.264795,-0.053 -0.03466,-0.0347 0.03859,-0.16246 -0.05296,-0.18535 -0.06607,-0.0165 -0.582843,-0.0262 -0.609028,0 -0.08981,0.0898 -0.189598,0.28527 -0.317754,0.37071 -0.04413,0.0265 -0.08826,0.053 -0.132397,0.0794 -0.01765,0 -0.03717,-0.008 -0.05296,0 -0.0079,0.004 0.0062,0.0202 0,0.0265 -0.01371,0.0137 -0.09221,0.0128 -0.105918,0.0265 -0.0332,0.0332 -0.0069,0.0553 -0.07944,0.0794 -0.06098,0.0203 -0.198134,0 -0.264794,0 -0.135182,0 -0.253323,0.006 -0.397192,0.0265 -0.07626,0.0109 -0.139125,0.0768 -0.211836,0.10592 -0.110857,0.0443 -0.237744,0.0527 -0.344233,0.10592 -0.02233,0.0112 -0.02978,0.0437 -0.05296,0.0529 -0.02459,0.01 -0.05375,-0.006 -0.07944,0 -0.03087,0.008 -0.04925,0.0429 -0.07944,0.053 -0.164093,0.0547 0.167109,-0.13651 -0.317753,0.10592 -0.0079,0.004 0.0062,0.0202 0,0.0265 -0.02153,0.0215 -0.131115,-0.009 -0.158877,0 -0.16544,0.0551 -0.304462,0.0963 -0.47663,0.15888 -0.03451,0.0125 -0.164934,0.11708 -0.185357,0.13239 -0.0071,0.005 -0.02369,-0.008 -0.02648,0 -0.0084,0.0251 0.0084,0.0543 0,0.0794 -0.0028,0.008 -0.02024,-0.006 -0.02648,0 -0.01396,0.014 -0.01553,0.0365 -0.02648,0.053 -0.05679,0.0852 -0.115096,0.17723 -0.158877,0.26479 -0.01773,0.0355 -0.06317,0.0367 -0.07944,0.053 -0.03361,0.0336 -0.02444,0.0944 -0.05296,0.1324 -0.01521,0.0203 -0.08712,0.008 -0.105918,0.0265 -0.195198,0.2928 0.05693,-0.0569 -0.105918,0.10592 -0.0062,0.006 0.0079,0.0225 0,0.0265 -0.01579,0.008 -0.03621,-0.006 -0.05296,0 -0.139363,0.0465 -0.245603,0.16132 -0.370714,0.23831"
               id="path1035" />
            <path
               style="fill:#800000;stroke:#800000;stroke-width:0.0748949px;stroke-linecap:butt;stroke-linejoin:miter;stroke-opacity:1"
               d="m 42.874808,115.23768 c 0.04413,0.0441 0.07657,0.10448 0.132398,0.1324 0.05888,0.0294 0.582155,0.0177 0.688466,0 0.13281,-0.0221 0.260131,-0.053 0.397192,-0.053 0.179683,0 0.34792,0.10539 0.52959,0.0794 0.06966,-0.01 0.252538,-0.0312 0.317753,-0.053 0.03019,-0.0101 0.05054,-0.0396 0.07944,-0.053 0.09755,-0.045 0.284217,-0.12122 0.397191,-0.15888 0.0772,-0.0257 0.180774,0.005 0.238316,-0.053 0.08096,-0.081 0.15672,-0.23615 0.264795,-0.34423 0.0062,-0.006 0.02024,0.006 0.02648,0 0.03195,-0.0319 0.06314,-0.14258 0.105918,-0.18535 0.0092,-0.009 0.101355,-0.0438 0.105918,-0.053 0.02648,-0.053 -0.01324,-0.0397 0,-0.0794 -0.09992,-0.12906 0.06071,-0.1027 0.07944,-0.15887 0.032,-0.096 0.03088,-0.18203 0.07944,-0.29128 0.0063,-0.0141 0.10376,-0.20913 0.105917,-0.21183 0.01233,-0.0154 0.03654,-0.0155 0.05296,-0.0265 0.06569,-0.0438 0.0782,-0.13791 0.105918,-0.21183 0.07944,-0.21184 -0.03972,0.0397 0,-0.0794 0.04016,-0.12048 0.08559,-0.20382 0.132398,-0.34423 0.0056,-0.0168 0,-0.0353 0,-0.053 0.01765,-0.053 0.02799,-0.10895 0.05296,-0.15888 0.0039,-0.008 0.02158,0.007 0.02648,0 0.01548,-0.0232 0.011,-0.0562 0.02648,-0.0794 0.003,-0.005 0.118312,-0.0459 0.132398,-0.053 0.04214,-0.0211 0.06754,-0.0603 0.105917,-0.0794 0.04026,-0.0201 0.100573,0.005 0.132398,-0.0265 0.0062,-0.006 -0.0073,-0.0216 0,-0.0265 0.07986,-0.0532 0.345395,-0.0664 0.423671,-0.0794 6.74e-4,-7e-5 0.160799,-0.051 0.185357,-0.0265 0.159536,0.15954 0.08191,0.65705 0,0.82086 -0.02419,0.0484 -0.0023,0.13699 -0.02648,0.18536 -0.01965,0.0393 -0.03885,0.0565 -0.05296,0.10591 -0.01475,0.0516 -0.0025,0.11086 -0.02648,0.15888 -0.02723,0.0545 -0.05932,0.0985 -0.07944,0.15887 -0.05884,0.17651 0.0085,0.35475 -0.02648,0.52959 -0.002,0.01 -0.03296,0.13887 -0.05296,0.15888 -0.0062,0.006 -0.02434,-0.009 -0.02648,0 -0.0074,0.0297 -0.03112,0.18071 -0.02648,0.18535 0.02775,0.0277 0.175437,-0.0121 0.211835,0 0.06042,0.0201 0.07743,0.051 0.105919,0.0794 0.02553,0.0255 0.122728,0.0168 0.158877,0.053 0.0062,0.006 -0.0039,0.0186 0,0.0265 0.04275,0.0855 0.158193,0.13137 0.211835,0.21183 0.03284,0.0493 0.03757,0.11701 0.07944,0.15888 0.05754,0.0575 0.120256,0.11005 0.185357,0.15887 0.01568,0.0118 0.06071,-0.007 0.07944,0 0.06294,0.0236 0.122416,0.0558 0.185356,0.0794 0.04064,0.0152 0.128833,-0.004 0.158877,0.0265 0.02349,0.0235 0.03082,0.0992 0.05296,0.13239 0.04734,0.071 0.133176,0.13474 0.158877,0.21184 0.0077,0.023 0.04102,0.16745 0.05296,0.18535 0.03135,0.047 0.06595,0.0924 0.105918,0.1324 0.03613,0.0361 0.105917,-0.0592 0.105917,0.053 0,0.0438 -0.0691,0.0196 -0.07944,0.0265 -0.07456,0.002 -0.0067,0.0597 -0.02648,0.0794 -0.01324,0.0132 -0.0662,-0.0132 -0.07944,0 -0.04029,0.0403 0.06817,0.0947 0.07944,0.10591 0.0023,0.002 0.01005,0.14883 0,0.15888 -0.05453,0.0545 -0.310046,0.11787 -0.397192,0.13239 -0.05795,0.01 -0.313169,0.008 -0.317754,0 -0.09764,-0.17086 -0.332725,-0.8813 -0.47663,-0.95325 -0.01733,-0.009 -0.41262,-0.0181 -0.50311,0 -0.02648,0.009 -0.05296,0.0176 -0.07944,0.0265 -0.0088,0.009 -0.01464,0.0225 -0.02648,0.0265 -0.03877,0.0129 -0.352907,0.0443 -0.370713,0.0265 -0.0062,-0.006 0,-0.0176 0,-0.0265 -0.04413,-0.0353 -0.08333,-0.0779 -0.132397,-0.10592 -0.01533,-0.009 -0.03717,0.008 -0.05296,0 -0.0079,-0.004 0.0039,-0.0186 0,-0.0265 -0.03997,-0.0799 -0.159973,-0.11672 -0.238315,-0.13239 -0.204516,-0.0409 -1.287343,-0.0101 -1.429891,0.13239 -0.03392,0.0339 -0.210997,0.26228 -0.238316,0.34423 -0.0084,0.0251 0.01872,0.0607 0,0.0794 -0.0062,0.006 -0.02024,-0.006 -0.02648,0 -0.0062,0.006 0.0049,0.0191 0,0.0265 -0.05975,0.0896 -0.178235,0.16855 -0.264794,0.21184 -0.03932,0.0197 -0.155355,-0.03 -0.185357,0 -0.0062,0.006 0.0079,0.0225 0,0.0265 -0.01579,0.008 -0.03583,-0.004 -0.05296,0 -0.05186,0.013 -0.08889,0.0577 -0.132398,0.0794 -0.01579,0.008 -0.04048,-0.0125 -0.05296,0 -0.0062,0.006 0.0062,0.0202 0,0.0265 -0.03183,0.0318 -0.09061,0.01 -0.132398,0.0265 -0.03458,0.0138 -0.03797,0.0645 -0.05296,0.0794 -0.0053,0.005 -0.07107,0.002 -0.07944,0 -0.09414,-0.0188 -0.504217,-0.10537 -0.609028,-0.053 -0.01116,0.006 -0.01532,0.0209 -0.02648,0.0265 -0.01579,0.008 -0.04048,-0.0125 -0.05296,0 -0.0062,0.006 0.0062,0.0202 0,0.0265 -0.02496,0.025 -0.07061,0 -0.105917,0 -0.152998,0 -0.301317,0.0265 -0.450152,0.0265"
               id="path1037" />
            <path
               style="fill:#800000;stroke:#800000;stroke-width:0.0748949px;stroke-linecap:butt;stroke-linejoin:miter;stroke-opacity:1"
               d="m 41.550835,119.5538 c 0.287781,0.2356 0.575562,0.4712 0.863344,0.7068 0.01248,0 0.03187,-0.0112 0.03745,0 0.01117,0.0223 -0.01116,0.0526 0,0.0749 0.06036,0.12073 0.311854,0.38675 0.374477,0.44937 0.0088,0.009 0.02706,-0.007 0.03745,0 0.02938,0.0196 0.04993,0.0499 0.0749,0.0749 0.137308,0.0749 0.27203,0.15474 0.411924,0.22469 0.07551,0.0378 0.227498,-0.044 0.299581,0 0.215669,0.1318 0.416573,0.28755 0.63661,0.41192 0.127193,0.0719 0.271441,0.10965 0.411924,0.14979 0.08608,0.0246 0.146516,-0.002 0.224685,0.0374 0.08738,0.0499 0.174756,0.0999 0.262134,0.14979 0.02496,0.025 0.04462,0.0567 0.0749,0.0749 0.03385,0.0203 0.0795,0.0155 0.112343,0.0374 0.01039,0.007 -0.0088,0.0286 0,0.0374 0.07401,0.074 0.211469,0.091 0.299581,0.14979 0.0704,0.0469 0.111823,0.15175 0.187238,0.18724 0.197248,0.0928 0.395987,0.18312 0.599162,0.26213 0.205094,0.0798 0.492714,-0.0605 0.674057,-0.11234 0.08402,-0.024 0.174755,0 0.262133,0 0.07768,0 0.223792,-0.0253 0.299581,0 0.138469,0.0462 0.575729,0.34543 0.748953,0.44937 0.02141,0.0128 0.05257,-0.0112 0.07489,0 0.105328,0.0527 0.187864,0.15 0.299581,0.18723 0.03553,0.0119 0.08586,-0.0265 0.112343,0 0.01535,0.0154 0.156565,0.6145 0.112342,0.63661 -0.06741,0.0337 -0.302983,0.098 -0.374476,0.11234 -0.09868,0.0197 -0.202815,-0.01 -0.299581,-0.0375 -0.012,-0.003 0.01039,-0.0305 0,-0.0374 -0.172036,-0.11469 -0.268537,-0.11235 -0.486819,-0.11235 -0.02497,0 -0.05724,-0.0177 -0.0749,0 -0.01504,0.0151 0.0071,0.0912 0,0.11235 -0.0088,0.0265 -0.03068,0.0478 -0.03745,0.0749 -0.08031,0.32124 0.113714,1.64631 -0.07489,1.83492 -0.0088,0.009 -0.02965,-0.01 -0.03745,0 -0.04547,0.0568 -0.07979,0.12214 -0.112343,0.18724 -0.01559,0.0312 0.02375,0.12603 0,0.14979 -0.08979,0.0898 -0.281842,-0.0355 -0.337029,0.0749 -0.08023,0.16045 0.0034,0.37447 -0.224686,0.37447 -0.03745,0 -0.07885,0.0168 -0.112343,0 -0.222564,-0.11128 -0.45421,-0.27451 -0.674057,-0.41192 -0.18005,-0.11253 -0.06223,-0.0369 -0.112343,-0.18723 -0.0016,-0.005 -0.07555,-0.16819 -0.03745,-0.18724 0.02233,-0.0112 0.05257,0.0112 0.07489,0 0.02233,-0.0112 -0.01765,-0.0572 0,-0.0749 0.07541,-0.0754 0.20419,-0.0647 0.299581,-0.11235 0.04675,-0.0234 0.09943,-0.14333 0.112343,-0.14979 0.212203,0 0.01248,0.025 0.07489,-0.0374 0.02305,-0.0231 0.174356,-0.0534 0.187238,-0.0749 0.132536,-0.22089 0.06335,-0.33998 0,-0.56171 -0.0069,-0.024 0.01116,-0.0526 0,-0.0749 -0.0056,-0.0112 -0.03186,0.0112 -0.03745,0 -0.02443,-0.0489 0,-0.1655 0,-0.22469 0,-0.12231 0.125031,-0.40346 0,-0.48681 -0.528531,-0.35235 -1.306958,0.0393 -1.834934,-0.22469 -0.02184,-0.0109 -0.498836,-0.43595 -0.561714,-0.56171 -0.08605,-0.17209 0.09022,-0.23574 -0.112343,-0.33702 -0.510403,-0.2552 -0.369084,-0.12839 -0.898743,-0.18724 -0.01241,-0.001 0.0088,-0.0286 0,-0.0374 -0.06252,-0.0625 -0.138993,-0.10154 -0.187238,-0.14978 -0.01974,-0.0197 -0.01422,-0.0594 -0.03745,-0.0749 -0.02077,-0.0139 -0.05121,0.008 -0.0749,0 -0.08765,-0.0292 -0.319662,-0.28221 -0.337028,-0.29958 -0.01622,-0.0162 -0.125622,-0.0588 -0.149791,-0.0749 -0.239985,-0.15999 -0.516442,-0.26649 -0.7864,-0.37448 -0.04179,-0.0167 -0.0702,-0.0591 -0.112343,-0.0749 -0.08738,-0.025 -0.174755,-0.0499 -0.262133,-0.0749 -0.01248,-0.0125 -0.02166,-0.0296 -0.03745,-0.0374 -0.02233,-0.0112 -0.05724,0.0176 -0.07489,0 -0.01974,-0.0197 -0.01659,-0.0564 -0.03745,-0.0749 -0.113881,-0.10122 -0.266734,-0.15439 -0.374476,-0.26213 -0.03938,-0.0394 -0.02525,-0.067 -0.07489,-0.14979 -0.04508,-0.0751 -0.122007,-0.0859 -0.179878,-0.15183"
               id="path1041" />
            <path
               style="fill:#800000;stroke:#800000;stroke-width:0.0748949px;stroke-linecap:butt;stroke-linejoin:miter;stroke-opacity:1"
               d="m 39.538395,121.30143 c 0.288651,0.55867 0.327425,0.61628 0.816165,1.01877 0.110837,0.0913 0.240414,0.11427 0.337028,0.22468 0.386099,0.44126 0.367752,0.55835 0.823848,0.7864 0.07224,0.0361 0.01297,0.0634 0.03745,0.11234 0.06316,0.12631 0.182076,0.22124 0.299581,0.29958 0.0306,0.0204 0.442863,0.10583 0.449372,0.11234 0.09163,0.0916 -0.112783,0.24231 -0.0749,0.33703 0.03569,0.0892 0.139731,0.26576 0.187238,0.33702 0.126688,0.19003 0.624428,0.30003 0.674057,0.37448 0.05771,0.0866 0.01718,0.13811 0.07489,0.22468 0.0069,0.0104 0.02996,-0.01 0.03745,0 0.368858,0.49181 0.385799,0.61194 0.561714,1.19832 0.01015,0.0338 0.0452,0.0558 0.07489,0.0749 0.160277,0.10303 0.321386,0.20505 0.486819,0.29958 0.02168,0.0124 0.05724,-0.0176 0.0749,0 0.07582,0.0758 0.160994,0.1946 0.187238,0.29958 0.03952,0.15809 0.01138,0.90204 -0.03745,1.04852 -0.05301,0.15902 -0.171207,0.20866 -0.262133,0.29958 -0.06375,0.0637 -0.06426,0.13022 -0.149791,0.18724 -0.08962,0.0598 -0.140753,-0.13774 -0.14979,-0.14979 -0.06784,-0.0905 -0.313659,0.0234 -0.374476,-0.0375 -0.03196,-0.032 0.0276,-0.15043 0,-0.18724 -0.03178,-0.0424 -0.08057,-0.07 -0.112343,-0.11234 -0.01759,-0.0234 0.0058,-0.51847 -0.03745,-0.56171 -0.113197,-0.11319 -0.300286,-0.15842 -0.449371,-0.22468 -0.127883,-0.0568 -0.692336,-0.46497 -0.711505,-0.59916 -0.02716,-0.19009 0,-0.40739 0,-0.59916 0,-0.37646 0.02087,-0.13854 -0.112343,-0.44936 -0.03477,-0.0811 -0.0047,-0.18018 -0.03745,-0.26214 -0.0046,-0.0116 -0.0277,0.008 -0.03745,0 -0.05514,-0.0441 -0.108748,-0.0923 -0.149791,-0.14978 -0.05368,-0.0751 -0.191562,-0.37393 -0.262133,-0.41193 -0.875928,-0.47165 -0.780435,-0.36 -1.497905,-0.59915 -0.09324,-0.0311 -0.205511,-0.0935 -0.299581,-0.11234 -0.03672,-0.007 -0.0749,0 -0.112343,0 -0.162273,-0.0624 -0.321879,-0.13226 -0.486819,-0.18724 -0.07979,-0.0266 -0.114337,0.0354 -0.187238,-0.0374 -0.06193,-0.0619 -0.235476,-0.27864 -0.262133,-0.41192 -0.01104,-0.0552 0.01907,-0.16748 0,-0.22468 -0.02908,-0.0872 -0.14072,-0.14072 -0.187238,-0.18724 -0.03221,-0.0322 0.01525,-0.17894 0,-0.22468 -0.04993,-0.14979 -0.03593,0.008 -0.0749,-0.18724 -0.01623,-0.0812 0.05308,-0.28395 0,-0.33703 -0.04413,-0.0441 -0.09397,-0.0844 -0.14979,-0.11234 -0.04275,-0.0214 -0.06429,0.0427 -0.112343,0 -0.104052,-0.0926 -0.184562,-0.20861 -0.276843,-0.31292"
               id="path1043" />
          </g>
          <path
             style="fill:#800000;stroke:#800000;stroke-width:0.0748949px;stroke-linecap:butt;stroke-linejoin:miter;stroke-opacity:1"
             d="m 37.155243,121.98987 c -0.03415,0.21215 -0.09143,0.41944 -0.133522,0.62991 -0.01999,0.1 0.05595,0.20486 0.0749,0.29958 0.04978,0.24888 -0.02801,0.53434 0,0.78639 0.0145,0.13048 0.229648,0.12408 0.14979,0.33703 -0.04719,0.12585 -0.184874,0.37684 -0.112343,0.44937 0.01974,0.0197 0.05516,0.0177 0.0749,0.0374 0.131186,0.13119 0.01497,0.14229 0.0749,0.26213 -0.05373,0.19019 0.138277,0.1138 0.187238,0.18724 0.0062,0.009 0.02312,0.53307 0.07489,0.63661 0.02601,0.052 0.186327,0.10869 0.187238,0.11234 0.02195,0.0878 -0.03673,0.25133 0,0.33702 0.02867,0.0669 0.07979,0.12214 0.112343,0.18724 0.08057,0.16115 -0.03668,0.41577 0,0.59916 0.01449,0.0724 0.126321,0.20346 0.149791,0.26213 0.01723,0.0431 -0.01056,0.10402 0,0.14979 0.248739,1.07786 -0.02607,0.20431 0.187238,0.52426 0.02355,0.0353 -0.05223,0.0907 -0.03745,0.14979 0.02417,0.0967 0.03894,0.0764 0.07489,0.11234 0.04182,0.0418 0.02227,0.17914 0.03745,0.22469 0.01423,0.0427 0.05257,0.0733 0.0749,0.11234 0.109982,0.19247 0.149791,0.27527 0.149791,0.48681 0,0.0375 0.01675,0.0788 0,0.11235 -0.03077,0.0615 -0.09804,0.0404 -0.149791,0.0749 -0.01039,0.007 0.0088,0.0286 0,0.0375 -0.04381,0.0438 -0.265728,0.0674 -0.299581,0.0749 -0.227912,0.0507 -0.193486,0.0265 -0.337028,-0.22468 -0.01825,-0.0319 0.02555,-0.12708 0,-0.14979 -0.106374,-0.0945 -0.214094,-0.19042 -0.337029,-0.26213 -0.03412,-0.067 -0.105131,0.0223 -0.14979,0 -0.229999,-0.115 -0.448,-0.31917 -0.63661,-0.48682 -0.0197,-0.0175 0.01516,-0.37359 0,-0.44937 -0.02301,-0.11507 -0.112299,-0.22455 -0.14979,-0.33702 -0.03758,-0.11275 -0.03746,-0.26217 -0.0749,-0.37447 -0.0633,-0.18989 -0.607838,-0.61926 -0.599162,-0.63661 0.04802,-0.096 0.176554,-0.15529 0.187238,-0.26213 0.0062,-0.0621 -0.110801,-0.0636 -0.14979,-0.11234 -0.01559,-0.0195 0.0079,-0.0512 0,-0.0749 -0.0056,-0.0167 -0.02955,-0.0217 -0.03745,-0.0374 -0.02104,-0.0421 0.102842,-0.066 0.0749,-0.14979 -0.08304,-0.24913 -0.235644,-0.4932 -0.299581,-0.74895 -0.05407,-0.21627 0,-0.96747 0,-1.23576 0,-0.19228 -0.04977,-1.08647 0,-1.23576 0.13473,-0.40419 0.09727,0.29924 0.122097,-0.37873"
             id="path1072" />
          <path
             style="fill:#800000;stroke:#800000;stroke-width:0.0748949px;stroke-linecap:butt;stroke-linejoin:miter;stroke-opacity:1"
             d="m 34.110104,121.51326 c -0.0081,0.1713 -0.267305,0.12051 -0.308878,0.24523 -0.01675,0.0502 0.103636,0.0601 0.112343,0.11234 0.0074,0.0444 -0.05662,0.0712 -0.0749,0.11234 -0.03206,0.0721 -0.05575,0.1481 -0.0749,0.22469 -0.02286,0.0914 0.03475,0.21271 0,0.29958 -0.01037,0.0259 -0.04993,0.025 -0.0749,0.0374 -0.01248,0.025 -0.02862,0.0484 -0.03745,0.0749 -0.02621,0.0786 0.02017,0.18147 0,0.26213 -0.01811,0.0724 -0.121122,0.10765 -0.112343,0.14979 0.07154,0.34339 0.118083,0.69127 0.224685,1.01108 0.05766,0.17297 0,0.62894 0,0.82384 0,0.0624 -0.0077,0.12531 0,0.18724 0.01453,0.11623 0.106053,0.17495 0.0749,0.29957 -0.0043,0.0171 -0.03317,0.0203 -0.03745,0.0374 -0.115786,0.46314 0.07489,0.96291 0.07489,1.423 0,0.0834 -0.231,-0.0126 -0.187238,0.0749 0.06534,0.13066 0.179589,0.15207 0.262134,0.26213 0.09765,0.1302 0.14705,0.29683 0.262133,0.41192 0.0088,0.009 0.02862,-0.009 0.03745,0 0.03722,0.0372 0,0.27424 0,0.33702 0,0.23756 0.03745,0.47536 0.03745,0.7115 0,0.0375 -0.0831,-0.0234 -0.112343,0 -0.04874,0.039 -0.08246,0.095 -0.112343,0.14979 -0.05107,0.0936 -0.03693,0.22417 -0.112342,0.29958 -0.01869,0.0187 -0.472905,0.046 -0.524267,0.0375 -0.01741,-0.003 -0.01983,-0.0363 -0.03745,-0.0375 -0.199331,-0.0125 -0.432984,0.11078 -0.599162,0 -0.415751,-0.27717 -0.639477,-0.15839 -0.823847,-0.7115 -0.05157,-0.15471 0.02742,-0.46853 -0.112343,-0.56171 -0.180235,-0.12015 0.156992,-0.80044 0.187238,-0.89873 0.01457,-0.0474 0,-0.13514 0,-0.18724 0,-0.20327 0.104751,-0.69303 0.03745,-0.86129 -0.0871,-0.21775 -0.189849,-0.42934 -0.299581,-0.6366 -0.0083,-0.0156 -0.04993,-0.025 -0.03745,-0.0374 0.01974,-0.0197 0.06105,-0.0132 0.0749,-0.0375 0.24769,-0.43345 0.262134,-0.56772 0.262134,-1.01108 0,-0.43345 -0.0474,-0.88642 0.03745,-1.31065 0.0067,-0.0335 -0.01195,-0.0805 0,-0.11235 0.01808,-0.0482 0.283583,-0.60724 0.337029,-0.67405 0.0078,-0.01 0.02862,0.009 0.03745,0 0.05086,-0.0509 0.103286,-0.38777 0.112343,-0.41192 0.01304,-0.0348 0.07166,-0.0684 0.0749,-0.0749 0.01116,-0.0223 -0.01117,-0.0526 0,-0.0749 0.0056,-0.0112 0.03186,0.0112 0.03745,0 0.01116,-0.0223 -0.0079,-0.0512 0,-0.0749 0.07101,-0.21303 0.07778,-0.3514 0.07089,-0.5857"
             id="path1074" />
          <path
             style="fill:#800000;stroke:#800000;stroke-width:0.0748949px;stroke-linecap:butt;stroke-linejoin:miter;stroke-opacity:1"
             d="m 31.859351,119.89803 c -0.181693,0.0331 -0.07028,0.24021 -0.155192,0.32512 -0.08337,0.0834 -1.101077,-0.0224 -1.235771,0.11234 -0.09492,0.0949 0.177687,1.17042 0.112343,1.23576 -0.112697,0.1127 -0.263807,0.19561 -0.299581,0.37448 -0.02832,0.14159 0.08712,0.3653 0.112343,0.44937 0.0524,0.17466 -0.04226,0.36106 -0.0749,0.52426 -0.0098,0.049 0.0098,0.10083 0,0.14979 -0.03266,0.1633 -0.07745,0.32397 -0.112342,0.48681 -0.0042,0.0194 0.01316,0.0992 0,0.11234 -0.0088,0.009 -0.02674,-0.006 -0.03745,0 -0.260242,0.15615 -0.683124,0.35634 -0.599162,0.52427 0.112376,0.22475 0.409368,0.44425 0.524267,0.67405 0.04805,0.0961 -0.05697,0.24738 -0.0749,0.33703 -0.04493,0.22465 0,0.47814 0,0.71149 0,0.41193 0,0.82385 0,1.23577 0,0.0126 -0.04184,0.48242 0.03745,0.56171 0.01974,0.0197 0.05516,0.0177 0.0749,0.0374 0.03233,0.0323 -0.01928,0.067 0.03745,0.11235 0.08611,0.0689 0.181331,0.10643 0.224686,0.14978 0.003,0.003 0.0749,0.33369 0.0749,0.22469 0,-0.0125 -0.02497,0 -0.03745,0 -0.09986,0 -0.200491,-0.0124 -0.299581,0 -0.01239,0.002 0.0088,0.0286 0,0.0374 -0.0088,0.009 -0.02862,-0.009 -0.03745,0 -0.163838,0.16383 -0.179457,0.22468 -0.486819,0.22468 -0.01248,0 0.0088,-0.0286 0,-0.0375 -0.178736,-0.17873 -0.121433,-0.09 -0.337029,-0.44937 -0.02077,-0.0346 0.02836,-0.12142 0,-0.14978 -0.01765,-0.0177 -0.05121,0.008 -0.0749,0 -0.08762,-0.0292 -0.262602,-0.15026 -0.337029,-0.22469 -0.01765,-0.0177 0.01765,-0.0572 0,-0.0749 -0.0074,-0.007 -0.142354,-0.11049 -0.14979,-0.11234 -0.06055,-0.0151 -0.143106,0.0441 -0.187238,0 -0.0088,-0.009 0,-0.025 0,-0.0375 -0.01248,-0.0125 -0.02333,-0.0269 -0.03745,-0.0374 -0.036,-0.027 -0.0749,-0.0499 -0.112343,-0.0749 -0.212203,-0.16228 -0.430397,-0.317 -0.636609,-0.48682 -0.01927,-0.0159 0.01765,-0.0572 0,-0.0749 -0.07775,-0.0778 -0.0749,-0.011 -0.0749,-0.11235 0,-0.0841 -0.0061,-0.13768 0.03745,-0.22468 0.01116,-0.0223 0.04993,0 0.07489,0 0.138929,0 0.626232,-0.0438 0.674057,-0.18724 0.03605,-0.10814 0.05087,-0.99318 0.03745,-1.01107 -0.04237,-0.0565 -0.08663,-0.11822 -0.14979,-0.14979 -0.02233,-0.0112 -0.05068,0.006 -0.0749,0 -0.03829,-0.01 -0.07489,-0.025 -0.112343,-0.0375 -0.187238,-0.0374 -0.375315,-0.0709 -0.561714,-0.11234 -0.06213,-0.0138 -0.130309,-0.009 -0.187238,-0.0375 -0.01117,-0.006 0.0088,-0.0286 0,-0.0374 -0.05296,-0.053 -0.150248,0.008 -0.224686,0 -0.217643,-0.0242 -0.427958,-0.10806 -0.636609,-0.14979 -0.07445,-0.0149 -0.170996,-0.0911 -0.224686,-0.0374 -0.01974,0.0197 -0.01771,0.0551 -0.03745,0.0749 -0.0088,0.009 -0.02496,0 -0.03745,0 -0.02496,0.025 -0.05531,0.0455 -0.07489,0.0749 -0.0069,0.0104 0.01116,0.0319 0,0.0375 -0.06296,0.0315 -0.146698,0.0211 -0.187238,0.11234 -0.063,0.14175 -0.146758,0.40045 -0.224686,0.37448 -0.03349,-0.0112 -0.05284,-0.0473 -0.07489,-0.0749 -0.54161,-0.677 -0.05808,-0.0107 -0.262134,-0.48681 -0.03552,-0.0829 -0.149387,-0.0761 -0.112343,-0.18724 0.0035,-0.0105 0.291409,-0.20948 0.337029,-0.22468 0.02368,-0.008 0.05217,0.0103 0.0749,0 0.116997,-0.0532 0.218904,-0.13662 0.337029,-0.18724 0.119606,-0.0513 0.425498,-0.0647 0.561714,-0.0374 0.239441,0.0479 0.215479,0.10921 0.524267,0.0749 0.08766,-0.01 0.0082,-0.0456 0.03745,-0.0749 0.0088,-0.009 0.02497,0 0.03745,0 0.03745,-0.0499 0.07772,-0.0979 0.112343,-0.14979 0.01611,-0.0242 0.05868,-0.13357 0.0749,-0.14979 0.03182,-0.0318 0.08052,-0.0431 0.112343,-0.0749 0.01765,-0.0177 -0.02077,-0.0611 0,-0.0749 0.108263,-0.0722 0.252088,-0.10899 0.374476,-0.14978 0.220466,-0.0735 0.427001,-0.32589 0.561714,-0.44937 0.06126,-0.0562 0.07965,-0.0143 0.112343,-0.11234 0.09232,-0.27697 0.156999,-0.3915 0.262134,-0.74895 0.02113,-0.0718 -0.01816,-0.15203 0,-0.22469 0.003,-0.0121 0.03125,0.0108 0.03745,0 0.04716,-0.0825 0.08503,-0.17107 0.112343,-0.26213 0.07879,-0.26263 -0.0949,0.04 0.03745,-0.22468 0.0079,-0.0158 0.02497,-0.025 0.03745,-0.0374 0.06241,-0.1373 0.133095,-0.27115 0.187238,-0.41192 0.009,-0.0233 -0.01116,-0.0526 0,-0.0749 0.0855,-0.171 0.270487,-0.33083 0.374477,-0.48682 0.04552,-0.0683 0.0327,-0.11691 0.0749,-0.18723 0.01726,-0.0288 0.100114,-0.13833 0.112343,-0.18724 0.0061,-0.0242 -0.0079,-0.0512 0,-0.0749 0.01116,-0.0335 0.05594,-0.0451 0.0749,-0.0749 0.07815,-0.12281 0.155671,-0.2463 0.224686,-0.37447 0.02973,-0.0552 0.17485,-0.43698 0.187238,-0.44937 0.03232,-0.0323 0.109199,-0.0957 0.14979,-0.14979 0.01675,-0.0223 0.01422,-0.0594 0.03745,-0.0749 0.02077,-0.0138 0.05257,0.0112 0.07489,0 0.12184,-0.0609 0.0823,-0.086 0.149791,-0.18723 0.0059,-0.009 0.157459,-0.005 0.213015,-0.0453"
             id="path1076" />
          <path
             style="fill:#800000;stroke:#800000;stroke-width:0.0748949px;stroke-linecap:butt;stroke-linejoin:miter;stroke-opacity:1"
             d="m 30.40298,117.27658 c 0.08682,0.36397 -0.206557,-0.11428 -0.271621,-0.0492 -0.09986,0.11235 -0.199721,0.22469 -0.299581,0.33703 -0.01248,0.0499 -0.0066,0.10862 -0.03745,0.14979 -0.01498,0.02 -0.05257,-0.0112 -0.07489,0 -0.01117,0.006 0.0088,0.0286 0,0.0375 -0.07358,0.0736 -0.227947,-0.0988 -0.299581,-0.0749 -0.132398,0.0441 -0.246946,0.13056 -0.374477,0.18724 -0.114863,0.0511 -0.32267,-0.0238 -0.449371,0 -0.139885,0.0262 -0.27817,0.0637 -0.411924,0.11234 -0.01173,0.004 0.01116,0.0319 0,0.0375 -0.123318,0.0617 -0.274734,-0.0237 -0.411924,-0.0375 -0.244487,-0.0245 -0.56143,0.003 -0.7864,0.0375 -0.111186,0.0171 -0.07991,0.11736 -0.14979,0.18723 -0.08388,0.0839 -0.384947,0.39844 -0.561715,0.48682 -0.04885,0.0244 -0.17272,0 -0.224685,0 -0.287099,0 -0.574197,0 -0.861296,0 -0.0077,0 -0.243623,0.0185 -0.262133,0 -0.09578,-0.0958 -0.28864,-0.39004 -0.374476,-0.56171 -0.02413,-0.0482 0.01468,-0.15249 -0.03745,-0.18724 -0.255708,-0.0852 -0.01204,0.0254 -0.14979,-0.11234 -0.02648,-0.0265 -0.07792,0.0147 -0.112343,0 -0.0669,-0.0287 -0.130402,-0.0669 -0.187238,-0.11234 -0.01949,-0.0156 0.0093,-0.0517 0,-0.0749 -0.02073,-0.0518 -0.04617,-0.10192 -0.07489,-0.14978 -0.0542,-0.0903 -0.166246,-0.16625 -0.224686,-0.22469 -0.02956,-0.0296 0.160307,-0.58428 0.187238,-0.67405 0.02958,-0.0986 0.05471,-0.19865 0.0749,-0.29958 6.67e-4,-0.003 -0.01056,-0.13923 0,-0.14979 0.05709,-0.0571 0.41646,0.0374 0.561715,0.0374 0.190932,0 0.36659,0.0749 0.561714,0.0749 0.112343,0 0.224686,0 0.337028,0 0.01248,0 -0.03186,-0.0112 -0.03745,0 -0.04369,0.0874 0.04681,0.0749 -0.03745,0.0749 -0.214083,0 -0.145398,0.10356 -0.187238,0.18723 -0.0056,0.0112 -0.02862,-0.009 -0.03745,0 -0.0099,0.01 0,0.0969 0,0.11235 0,0.29157 0.104078,0.38541 0.374477,0.48681 0.04978,0.0187 0.216634,0 0.262133,0 0.112343,0 0.25759,0.0794 0.337029,0 0.06038,-0.0604 0.08863,-0.14251 0.187238,-0.22468 0.105314,-0.0878 0.218167,-0.11592 0.337028,-0.18724 0.0107,-0.006 -0.0088,-0.0286 0,-0.0375 0.06638,-0.0664 0.271953,-0.11034 0.374477,-0.18723 0.135922,-0.10194 0.1951,-0.14781 0.374476,-0.22469 0.0807,-0.0346 -0.008,0.0829 0.112343,-0.0374 0.0088,-0.009 -0.0088,-0.0286 0,-0.0375 0.03639,-0.0364 0.103757,0.0144 0.14979,0.0375 0.293215,0.1466 0.598985,0.37438 0.898743,0.52426 0.107307,0.0537 0.30573,0.0354 0.411924,0 0.01184,-0.004 0,-0.025 0,-0.0374 0.06241,-0.025 0.123467,-0.0536 0.187238,-0.0749 0.16386,-0.0546 0.153558,0.0356 0.374476,-0.0749 0.01116,-0.006 -0.01211,-0.0344 0,-0.0374 0.04844,-0.0121 0.101351,0.0121 0.149791,0 0.01211,-0.003 -0.0069,-0.0271 0,-0.0374 0.01958,-0.0294 0.04552,-0.0553 0.07489,-0.0749 0.07182,-0.0479 0.138352,-0.0202 0.224685,-0.0374 0.06744,-0.0135 0.258853,-0.0857 0.262134,-0.11235 0.01767,-0.14352 0.01061,-0.28901 0.01591,-0.43351"
             id="path1078" />
          <path
             style="fill:#800000;stroke:#800000;stroke-width:0.0748949px;stroke-linecap:butt;stroke-linejoin:miter;stroke-opacity:1"
             d="m 30.40298,114.49626 c -0.07674,0.474 -0.430452,0.19995 -0.75844,0.25958 -0.294494,0.0535 -0.225222,0.0751 -0.486819,0.18724 -0.169973,0.0728 -0.385933,-0.11464 -0.561714,-0.14979 -0.05372,-0.0108 -0.135012,0.019 -0.187238,0 -0.525033,-0.19092 -1.044262,-0.38553 -1.5728,-0.56171 -0.102169,-0.0341 -1.297481,-0.0296 -1.460457,0 -0.351525,0.0639 -0.550513,0.21078 -0.861296,0.29958 -0.03601,0.0103 -0.07601,-0.009 -0.112343,0 -0.01713,0.004 -0.01979,0.0374 -0.03745,0.0374 -0.01248,0 0,-0.025 0,-0.0374 0,-0.18479 0.02827,-0.71609 -0.03745,-0.74895 -0.121284,-0.0606 -0.356327,0.0261 -0.486819,0 -0.03871,-0.008 -0.0749,-0.025 -0.112343,-0.0375 -0.06241,-0.0125 -0.124455,-0.027 -0.187238,-0.0374 -0.02463,-0.004 -0.05724,0.0177 -0.0749,0 -0.03051,-0.0305 0.0055,-0.30946 0,-0.33702 -0.03824,-0.1912 -0.257486,-0.29338 -0.374476,-0.44937 -0.02996,-0.0399 0,-0.0999 0,-0.14979 0,-0.12603 -0.03849,-1.0839 0,-1.16087 0.0056,-0.0112 0.02706,0.007 0.03745,0 0.341954,-0.22796 -0.215583,0.0594 0.187238,-0.0749 0.105918,-0.0353 0.193664,-0.11448 0.299581,-0.14979 0.02862,-0.01 0.08196,0 0.112343,0 0.06241,0 0.131415,-0.0279 0.187238,0 0.101062,0.0505 -0.0013,0.0168 0.03745,0.0749 0.180353,0.27052 0.105708,0.37211 0.149791,0.6366 0.0096,0.0577 0.130836,0.0929 0.14979,0.14979 0.02812,0.0844 0.05564,0.1933 0.14979,0.22468 0.102439,0.0342 0.142071,0.12115 0.224686,0.18724 0.02191,0.0175 0.279004,0.0786 0.299581,0.0375 0.02302,-0.046 0.01443,-0.10376 0.03745,-0.14979 0.09094,-0.18189 0.152914,-0.0219 0.187238,-0.26213 0.03988,-0.27918 -0.356339,-1.32485 0.299581,-1.16087 0.08814,0.022 0.0886,0.0904 0.112343,0.14979 0.01512,0.0378 0.101438,0.13271 0.112343,0.18724 0.03589,0.17945 -0.01212,0.68725 0.03745,0.78639 0.04272,0.0854 0.160365,0.2727 0.224686,0.33703 0.118946,0.11894 0.749946,-0.0182 0.861295,0.0374 0.03158,0.0158 0.0414,0.0637 0.07489,0.0749 0.252746,0.0842 0.477795,0.25611 0.711505,0.41192 0.02077,0.0139 0.05121,-0.008 0.07489,0 0.172963,0.0576 0.294624,0.0982 0.449372,0.14979 0.08622,0.0287 0.208004,-0.0102 0.299581,0 0.665713,0.074 1.323984,-0.0215 1.994211,0.0467"
             id="path1080" />
          <path
             style="fill:#800000;stroke:#800000;stroke-width:0.0748949px;stroke-linecap:butt;stroke-linejoin:miter;stroke-opacity:1"
             d="m 31.064966,112.06017 c 8.61e-4,-0.13749 0.02734,-0.27722 0.0026,-0.41246 -0.04017,-0.21948 -0.581193,-0.4946 -0.748953,-0.56171 -0.241627,-0.0966 -0.149852,0.0214 -0.449371,-0.14979 -0.01084,-0.006 0.0088,-0.0286 0,-0.0374 -0.120053,-0.12006 -0.272834,-0.20222 -0.411924,-0.29958 -0.214768,-0.15034 -0.482139,-0.22235 -0.711505,-0.33703 -0.01116,-0.006 0.0075,-0.0275 0,-0.0374 -0.1141,-0.15213 -0.215395,-0.14746 -0.374476,-0.18723 -0.137653,-0.0344 -0.210128,-0.21013 -0.299581,-0.29958 -0.387279,-0.38728 -0.875395,-0.82797 -1.348114,-1.12342 -0.04364,-0.0273 -0.103757,-0.0144 -0.149791,-0.0375 -0.01116,-0.006 0.0088,-0.0286 0,-0.0374 -0.07226,-0.0723 -1.380711,-0.55994 -1.385562,-0.56171 -0.135943,-0.0494 -0.01743,-0.0865 -0.112342,-0.14979 -0.195138,-0.13009 -0.421748,-0.20557 -0.63661,-0.29957 -0.08512,-0.0373 -0.210786,-0.0453 -0.299581,-0.0749 -0.158111,-0.0527 -0.278013,-0.13583 -0.449371,-0.18724 -0.05531,-0.0166 -0.222532,0.0396 -0.262134,0 -0.138679,-0.13867 -0.214577,-0.34575 -0.14979,-0.56171 0.01485,-0.0495 0.09493,-0.36866 0.224686,-0.41192 0.02368,-0.008 0.05322,0.0124 0.0749,0 0.0694,-0.0396 0.130721,-0.0933 0.187238,-0.14979 0.0088,-0.009 -0.01248,-0.0374 0,-0.0374 0.376865,0 0.690208,0.30233 0.93619,0.48681 0.04768,0.0358 0.267363,0.14456 0.337029,0.0749 0.314768,-0.31477 0.224686,-0.36643 0.224686,-0.7864 0,-0.0498 -0.01212,-0.15086 0,-0.18723 0.0039,-0.0118 0.02496,0 0.03745,0 0.04993,0 0.09986,0 0.149791,0 0.219067,0 0.346041,0.0696 0.561714,0.18723 0.09214,0.0503 0.180841,0.16146 0.262133,0.22469 0.183279,0.14255 0.372024,0.27802 0.561715,0.41192 0.0228,0.0161 0.05516,0.0177 0.0749,0.0374 0.0051,0.005 -0.04806,0 -0.14979,0 -0.156615,0 -0.231862,0.16687 -0.374477,0.18724 -0.06178,0.009 -0.125452,-0.009 -0.187238,0 -0.115517,0.0165 -0.178754,0.22117 -0.14979,0.33703 0.03049,0.12195 0.232854,0.18996 0.337028,0.22468 0.120253,0.0401 0.844524,-0.004 0.861296,-0.0375 0.04855,-0.0971 0.176493,-0.25627 0.187238,-0.37447 0.04799,-0.52791 -0.132588,-0.94597 -0.337029,-1.423 -0.03299,-0.077 -0.05313,-0.16547 -0.112343,-0.22468 -0.0088,-0.009 -0.03253,0.0115 -0.03745,0 -0.02228,-0.052 -0.139562,-0.72173 -0.0749,-0.7864 0.07528,-0.0753 0.112343,0.34781 0.112343,-0.14978 0,-0.011 -0.30355,-0.22072 -0.187238,-0.33703 0.01974,-0.0197 0.05941,-0.0142 0.07489,-0.0375 0.02077,-0.0312 -0.02437,-0.0839 0,-0.11234 0.177996,-0.20766 0.46134,-0.53623 0.63661,-0.7115 0.08327,-0.0833 0.205373,-0.11658 0.299581,-0.18724 0.141928,-0.10644 0.268446,-0.23268 0.411924,-0.33702 0.02257,-0.0164 0.02197,0.0517 0.03745,0.0749 0.185039,0.27756 0.254233,0.60122 0.187238,0.93619 -0.02375,0.11874 -0.119206,0.13293 -0.14979,0.22468 -0.07813,0.23439 -0.262157,0.74911 -0.299581,1.01108 -0.02404,0.16828 0.117301,0.5942 0.112343,0.59915 -0.01554,0.0156 -0.374476,0.0552 -0.374476,0.22469 0,0.15817 0.0049,-0.16946 -0.112343,0.29958 -0.0043,0.0171 0.02955,0.0217 0.03745,0.0374 0.0056,0.0112 0,0.025 0,0.0374 0.224686,0.11234 0.454464,0.21503 0.674058,0.33703 0.04842,0.0269 0.026,0.36924 0.03745,0.44937 0.09157,0.64096 0.0622,-0.13967 0.112343,0.41192 0.02631,0.28943 -0.01583,0.51421 0.07489,0.78639 0.0165,0.0495 0.08848,0.10206 0.112343,0.14979 0.195104,0.3902 0.602343,0.68998 0.898743,1.01108 0.03053,0.0331 0.04993,0.0749 0.07489,0.11234 0.06241,0.0749 0.118301,0.15575 0.187238,0.22468 0.01974,0.0197 0.04993,0.025 0.0749,0.0374 0.09986,0.11234 0.205683,0.21966 0.299581,0.33703 0.0078,0.01 -0.0088,0.0286 0,0.0374 0.08327,0.0833 0.205373,0.11659 0.299581,0.18724 0.130901,0.0982 0.03297,0.0689 0.14979,0.22469 0.0075,0.01 0.02862,-0.009 0.03745,0 0.06243,0.0624 0.191276,0.51563 0.224685,0.59915 0.01311,0.0328 0.04993,0.0499 0.0749,0.0749 0.05311,0.0531 0.13265,0.16423 0.224685,0.18723 0.0073,0.002 0.136727,-0.0121 0.149791,0 0.04667,0.0431 0.08101,0.0979 0.121508,0.14689"
             id="path1082" />
          <path
             style="fill:#800000;stroke:#800000;stroke-width:0.0748949px;stroke-linecap:butt;stroke-linejoin:miter;stroke-opacity:1"
             d="m 32.228425,110.50557 c -0.243435,-0.30321 -0.146661,-0.69494 -0.262132,-1.0298 -0.09986,-0.2122 -0.199721,-0.42441 -0.299581,-0.63661 0,-0.0125 0.0039,-0.0256 0,-0.0375 -0.09202,-0.27604 -0.173602,-0.30344 -0.374476,-0.56171 -0.03444,-0.0443 -0.03496,-0.16478 -0.0749,-0.22468 -0.122892,-0.18434 -0.299205,-0.2992 -0.449371,-0.44937 -0.02648,-0.0265 0.01184,-0.0768 0,-0.11234 -0.04322,-0.12967 -0.234669,-0.27211 -0.299581,-0.33703 -0.04012,-0.0401 0.02003,-0.20204 0,-0.26213 -0.03783,-0.11347 -0.260706,-0.2607 -0.337029,-0.33702 -0.01158,-0.0116 0,-0.53647 0,-0.59916 0,-0.0857 0.02203,-0.4053 -0.03745,-0.52426 -0.103118,-0.20624 -0.03936,0.0355 -0.112343,-0.0374 -0.01893,-0.0189 0.06329,-0.25053 -0.03745,-0.14979 -0.01248,0.0125 0.02837,0.0526 0.03745,0.0374 0.07746,-0.1291 0.07489,-0.1768 0.07489,-0.29958 0,-0.0737 0.02261,-0.0452 0.03745,-0.0749 0.01675,-0.0335 -0.02077,-0.0812 0,-0.11235 0.04161,-0.0624 0.156031,-0.12482 0.187238,-0.18723 0.04026,-0.0805 0,-0.3204 0,-0.41192 0,-0.24142 0.03565,-0.52966 -0.03745,-0.74895 -0.02495,-0.0748 -0.149455,-0.0945 -0.112343,-0.18724 0.06699,-0.16746 0.05364,-0.22772 0.112343,-0.37447 0.0093,-0.0232 0.05121,0.008 0.0749,0 0.02648,-0.009 0.04704,-0.0357 0.0749,-0.0374 0.174415,-0.0109 0.349511,0 0.524266,0 0.01248,0 0.02996,-0.01 0.03745,0 0.343831,0.45844 0.0931,0.16695 0.187238,0.44937 0.03172,0.0951 0.169835,0.16191 0.149791,0.26213 -0.07005,0.35023 -0.0035,-0.0234 -0.0749,0.26213 -0.01664,0.0665 -0.04496,0.5392 0,0.63661 0.159092,0.34469 0.419972,0.64604 0.524267,1.01107 0.01029,0.036 -0.0073,0.0756 0,0.11235 0.05772,0.28861 0.139222,0.61064 0.187238,0.89873 0.0082,0.0493 -0.01854,0.10343 0,0.14979 0.01037,0.0259 0.05815,0.0151 0.0749,0.0374 0.169206,0.22561 0.213858,0.37944 0.299581,0.6366 0.03426,0.10277 0.125563,0.16522 0.149791,0.26214 0.05287,0.21148 0.107037,0.42284 0.14979,0.6366 0.03989,0.19943 -0.02132,0.6101 0.03745,0.78639 0.02639,0.0792 0.07726,0.19197 0.112343,0.26214 0.01248,0.025 0.06607,0.011 0.07489,0.0374 0.01184,0.0355 0,0.0749 0,0.11234 0.112343,0.14355 0.224686,0.2871 0.337029,0.43065"
             id="path1084" />
          <path
             style="fill:#800000;stroke:#800000;stroke-width:0.0748949px;stroke-linecap:butt;stroke-linejoin:miter;stroke-opacity:1"
             d="m 34.110104,109.51816 c 0.528006,-0.003 -0.08419,-0.27391 -0.08419,-0.56666 0,-0.39784 -0.03745,-0.76122 -0.03745,-1.16086 0,-0.0874 0,-0.17476 0,-0.26213 0,-0.025 0.01385,-0.0541 0,-0.0749 -0.03042,-0.0456 -0.390511,-0.61519 -0.486819,-0.7115 -0.01974,-0.0197 -0.05941,-0.0142 -0.0749,-0.0374 -0.01385,-0.0208 0.0082,-0.0513 0,-0.0749 -0.07964,-0.22754 -0.18105,-0.44702 -0.262133,-0.67405 -0.06518,-0.18249 -0.06858,-0.38577 -0.149791,-0.56171 -0.04935,-0.10692 -0.124436,-0.19997 -0.187238,-0.29958 -0.299193,-0.47458 -0.604713,-0.94521 -0.898743,-1.423 -0.07569,-0.123 0,-0.35948 0,-0.52426 0,-0.0779 -0.08001,-0.36936 -0.07489,-0.37448 0.05091,-0.0509 0.386288,0.0372 0.486819,0.0749 0.04959,0.0186 0.06828,0.083 0.112343,0.11234 0.06258,0.0417 0.190057,0.0583 0.262133,0.11234 0.345663,0.25925 0.694157,0.59597 0.973638,0.89874 0.0456,0.0494 0.03761,0.13131 0.0749,0.18724 0.09154,0.1373 0.07073,-0.0749 0.112343,0.11234 0.09627,0.4332 -0.01174,0.87992 0.149791,1.31065 0.0158,0.0421 0.05477,0.0721 0.0749,0.11235 0.10969,0.21937 0.137989,0.6012 0.224686,0.86128 0.122571,0.36771 0.293033,0.71445 0.411924,1.08598 0.01522,0.0476 -0.0098,0.10083 0,0.14979 0.03305,0.16527 0.278631,0.42396 0.337028,0.59915 0.01498,0.0449 -0.01498,0.10486 0,0.14979 0.02645,0.0793 0.110444,0.22279 0.149791,0.26213 0.0088,0.009 0.03123,-0.0108 0.03745,0 0.05828,0.10147 0.09728,0.21284 0.145915,0.31926"
             id="path1086" />
        </g>
      </g>
    </g>
  </g>
</svg>
