<?xml version="1.0" encoding="UTF-8" standalone="no"?>
<svg
   xmlns:dc="http://purl.org/dc/elements/1.1/"
   xmlns:cc="http://creativecommons.org/ns#"
   xmlns:rdf="http://www.w3.org/1999/02/22-rdf-syntax-ns#"
   xmlns:svg="http://www.w3.org/2000/svg"
   xmlns="http://www.w3.org/2000/svg"
   xmlns:sodipodi="http://sodipodi.sourceforge.net/DTD/sodipodi-0.dtd"
   xmlns:inkscape="http://www.inkscape.org/namespaces/inkscape"
   width="100mm"
   height="100mm"
   viewBox="0 0 100 100"
   version="1.1"
   id="svg8"
   inkscape:version="1.0.2 (e86c870879, 2021-01-15, custom)"
   sodipodi:docname="Fire.svg">
  <defs
     id="defs2" />
  <sodipodi:namedview
     id="base"
     pagecolor="#ffffff"
     bordercolor="#666666"
     borderopacity="1.0"
     inkscape:pageopacity="0.0"
     inkscape:pageshadow="2"
     inkscape:zoom="1"
     inkscape:cx="175.65796"
     inkscape:cy="3.9036707"
     inkscape:document-units="mm"
     inkscape:current-layer="g421"
     inkscape:document-rotation="0"
     showgrid="false"
     inkscape:window-width="1920"
     inkscape:window-height="1001"
     inkscape:window-x="-9"
     inkscape:window-y="-9"
     inkscape:window-maximized="1" />
  <metadata
     id="metadata5">
    <rdf:RDF>
      <cc:Work
         rdf:about="">
        <dc:format>image/svg+xml</dc:format>
        <dc:type
           rdf:resource="http://purl.org/dc/dcmitype/StillImage" />
        <dc:title></dc:title>
      </cc:Work>
    </rdf:RDF>
  </metadata>
  <g
     inkscape:label="main"
     inkscape:groupmode="layer"
     id="layer1"
     style="display:inline"
     sodipodi:insensitive="true">
    <g
       id="g75">
      <path
         style="fill:#ff0000;fill-rule:evenodd;stroke:#ff0000;stroke-width:0.564465"
         d="m 16.228644,98.527765 3.782143,-21.223484 4.098293,10.359492 9.142345,-35.879223 1.576266,14.907551 12.294876,-52.808147 2.206771,20.213674 5.044053,-32.8472293 0.945761,48.7654663 7.250823,-17.68699 5.989815,37.142598 5.365303,-9.815992 9.824229,38.872284 z"
         id="path24"
         sodipodi:nodetypes="cccccccccccccc" />
      <path
         style="fill:#ff6600;fill-rule:evenodd;stroke:#ff6600;stroke-width:0.381497;stroke-opacity:1"
         d="m 24.937891,98.609678 2.55618,-14.34401 2.76986,7.001466 6.178919,-24.249203 1.065329,10.07536 8.309569,-35.690701 1.491458,13.661515 3.40906,-22.199962 0.639218,32.958425 4.900517,-11.953825 4.048253,25.103013 3.626174,-6.634207 6.639774,26.272129 z"
         id="path26"
         sodipodi:nodetypes="cccccccccccccc" />
      <path
         style="fill:#ffcc00;fill-rule:evenodd;stroke:#ffcc00;stroke-width:0.25212;stroke-opacity:1"
         d="m 31.159627,98.667571 1.689301,-9.479502 1.830513,4.62707 4.08345,-16.02552 0.70404,6.658497 5.491531,-23.586882 0.985657,9.028441 2.252945,-14.671258 0.422441,21.781221 3.238594,-7.899944 2.67537,16.589802 2.396422,-4.384367 4.388016,17.362442 z"
         id="path28"
         sodipodi:nodetypes="cccccccccccccc" />
    </g>
  </g>
  <g
     inkscape:groupmode="layer"
     id="layer4"
     inkscape:label="Sparks 1"
     style="display:inline"
     sodipodi:insensitive="true">
    <g
       id="g80"
       style="display:inline"
       transform="rotate(90,26.301433,33.06642)">
      <path
         style="fill:#ff0000;stroke:#ff0000;stroke-width:0.191103px;stroke-linecap:butt;stroke-linejoin:miter;stroke-opacity:1"
         d="m 23.986652,32.507423 c 0.561739,-0.468122 0.124901,-0.03572 0.66886,-1.051066 0.09806,-0.182951 0.238091,-0.341586 0.334432,-0.525532 0.07958,-0.151822 0.114388,-0.324337 0.191115,-0.477767 0.06718,-0.13447 0.171697,-0.247762 0.238881,-0.382208 0.210456,-0.42089 0.07532,-0.449647 0.238881,0.09543 0.01454,0.04823 0.03557,0.09441 0.04777,0.143402 0.0038,0.01531 -0.01505,0.04287 0,0.04772 0.172718,0.05767 0.350417,-0.05231 0.477758,-0.143401 0.06479,-0.04618 0.134801,-0.08701 0.191115,-0.143402 0.01123,-0.01021 -0.01123,-0.05894 0,-0.04772 0.100712,0.100789 0.10732,0.267002 0.191115,0.382208 0.06624,0.09109 0.167564,0.151822 0.238881,0.238832 0.153581,0.187799 0.293343,0.504992 0.525534,0.621091 0.02848,0.01531 0.06706,-0.01531 0.09556,0 0.01429,0.0077 0,0.03189 0,0.04772 0,0.192393 0.08002,0.379835 0.04777,0.573299 -0.0125,0.07502 -0.167181,0.114823 -0.143324,0.143402 0.460424,0.552503 1.25428,1.033561 1.528825,1.719922 0.02957,0.074 -0.02797,0.164325 0,0.238832 0.03261,0.08701 0.108826,0.152588 0.143323,0.238833 0.01786,0.0444 -0.09941,-0.01786 -0.143323,0 -0.08535,0.03649 -0.173229,0.07757 -0.238881,0.143401 -0.164349,0.164324 -0.09556,0.565389 -0.09556,0.764416 0,0.05869 0.01225,1.086481 0,1.098857 -0.04152,0.04159 -0.618091,0.04925 -0.716636,0 -0.01684,-0.0077 -0.334431,-0.86148 -0.334431,-0.859974 0,0.885949 0.435556,0.903377 0.191089,0.04772 -0.07024,-0.245977 -0.468908,0.955507 -0.477757,0.955507 -0.03184,0 0.01633,-0.06813 0,-0.09569 -0.08193,-0.136512 -0.191115,-0.254907 -0.286655,-0.382208 -0.191881,-0.255851 -0.408009,-0.390705 -0.66886,-0.573299 -0.06524,-0.04567 -0.119874,-0.107678 -0.191115,-0.143401 -0.09548,-0.04772 -0.156567,0.07502 -0.238881,0.09543 -0.148274,0.037 -0.523204,-0.05537 -0.57331,-0.04772 -0.07869,0.01276 -0.143324,0.07961 -0.191116,0.143402 -0.0901,0.120181 -0.128856,0.799653 -0.191089,0.716649 -0.267717,-0.356972 -0.501978,-0.738007 -0.764413,-1.098857 -0.114924,-0.157946 -0.192416,-0.262103 -0.143323,-0.28665 0.04141,-0.02041 0.404694,-0.02552 0.429981,0 0.171315,0.171214 0.143094,0.28665 0.382207,0.28665 0.01582,0 0.04065,0.01531 0.04777,0 0.08895,-0.177849 -0.09101,-0.181931 -0.143323,-0.28665 -0.04902,-0.09798 0.06022,-0.291906 0,-0.382208 -0.01123,-0.01786 -0.195019,-0.0051 -0.238882,-0.04771 -0.103416,-0.103341 -0.123523,-0.241129 -0.238881,-0.382208 -0.174147,-0.212806 -0.419948,-0.391062 -0.573307,-0.621091 -0.04021,-0.06022 0.1162,-0.04134 0.143324,-0.09569 0.04116,-0.08216 0.08688,-0.277974 0.143323,-0.334416 0.05338,-0.05333 0.22301,0.04823 0.191115,-0.143401 -0.01174,-0.07017 -0.06371,-0.127326 -0.09556,-0.191117 z"
         id="path35" />
      <path
         style="fill:#ff6600;stroke:#ff6600;stroke-width:0.119336px;stroke-linecap:butt;stroke-linejoin:miter;stroke-opacity:1"
         d="m 25.047099,32.945409 c 0.350785,-0.292314 0.078,-0.02296 0.417678,-0.656355 0.06124,-0.114312 0.148682,-0.213315 0.208849,-0.328164 0.04971,-0.09492 0.07145,-0.202599 0.119338,-0.298361 0.04195,-0.08395 0.107219,-0.154629 0.149167,-0.238577 0.131408,-0.262843 0.04703,-0.280781 0.149167,0.05971 0.0092,0.03011 0.0222,0.05894 0.02983,0.08956 0.0024,0.01021 -0.0094,0.02679 0,0.02985 0.107856,0.03598 0.218826,-0.03266 0.298339,-0.08956 0.04047,-0.02883 0.08418,-0.05435 0.119338,-0.08956 0.0069,-0.0051 -0.0069,-0.03674 0,-0.02985 0.0629,0.06302 0.06701,0.166621 0.119339,0.238577 0.04136,0.0569 0.104641,0.09492 0.149167,0.149014 0.09592,0.117375 0.18318,0.315356 0.328172,0.387847 0.01786,0.01021 0.04187,-0.01021 0.05968,0 0.0089,0.0051 0,0.02041 0,0.02985 0,0.120182 0.04996,0.237301 0.02983,0.357993 -0.0079,0.04695 -0.104386,0.0717 -0.08951,0.08956 0.287517,0.345006 0.783246,0.645408 0.954688,1.074005 0.01837,0.04618 -0.01735,0.102575 0,0.149015 0.02041,0.05435 0.06795,0.09543 0.08951,0.14927 0.01123,0.02781 -0.06208,-0.01021 -0.08951,0 -0.0533,0.02296 -0.108162,0.04848 -0.149167,0.08956 -0.102625,0.102575 -0.05968,0.353068 -0.05968,0.477332 0,0.03674 0.0077,0.678477 0,0.686209 -0.02592,0.02603 -0.385971,0.03062 -0.447508,0 -0.01046,-0.0051 -0.208849,-0.537959 -0.208849,-0.537041 0,0.553243 0.271986,0.564139 0.119339,0.02985 -0.04386,-0.153608 -0.292815,0.596672 -0.298342,0.596672 -0.0199,0 0.01021,-0.04261 0,-0.05971 -0.05116,-0.08522 -0.119338,-0.159221 -0.178995,-0.238577 -0.119823,-0.159732 -0.254777,-0.243935 -0.417674,-0.357993 -0.04075,-0.02858 -0.07486,-0.06736 -0.119339,-0.08956 -0.05963,-0.02985 -0.09778,0.04695 -0.149167,0.05971 -0.0926,0.02296 -0.32672,-0.0347 -0.358008,-0.02985 -0.04914,0.0077 -0.08951,0.04976 -0.119338,0.08956 -0.05626,0.07502 -0.08048,0.499353 -0.119339,0.44753 -0.167181,-0.223012 -0.313462,-0.460849 -0.477341,-0.686209 -0.07178,-0.09849 -0.120156,-0.163559 -0.08951,-0.178869 0.02587,-0.01276 0.252711,-0.01531 0.268506,0 0.106988,0.106913 0.08936,0.178869 0.238677,0.178869 0.01,0 0.02526,0.01021 0.02983,0 0.05555,-0.110995 -0.05682,-0.113547 -0.08951,-0.178869 -0.03062,-0.06124 0.03761,-0.182186 0,-0.238577 -0.0069,-0.01021 -0.121788,-0.0026 -0.149167,-0.02985 -0.06458,-0.06456 -0.07713,-0.150545 -0.149167,-0.238576 -0.108749,-0.13294 -0.262239,-0.244191 -0.358005,-0.387847 -0.02501,-0.03751 0.07257,-0.02577 0.08951,-0.05971 0.0257,-0.05129 0.05425,-0.173511 0.08951,-0.208723 0.03332,-0.03343 0.139267,0.03011 0.119339,-0.08956 -0.0074,-0.04389 -0.03978,-0.07961 -0.05968,-0.119416 z"
         id="path37" />
      <path
         style="fill:#ffff00;stroke:#ffff00;stroke-width:0.0335558px;stroke-linecap:butt;stroke-linejoin:miter;stroke-opacity:1"
         d="m 26.167642,33.483062 c 0.09864,-0.08216 0.02194,-0.0077 0.11745,-0.184483 0.0171,-0.03215 0.0418,-0.05996 0.05874,-0.09237 0.01403,-0.02679 0.02016,-0.0569 0.03355,-0.08395 0.01174,-0.02296 0.03016,-0.04338 0.04195,-0.06711 0.03695,-0.074 0.01327,-0.0791 0.04195,0.01786 0.0026,0.0077 0.0061,0.01531 0.0084,0.02552 6.71e-4,0.0026 -0.0026,0.0077 0,0.0077 0.03034,0.01021 0.06154,-0.01021 0.0839,-0.02552 0.01148,-0.0077 0.02373,-0.01531 0.03355,-0.02552 0.0019,-0.0015 -0.0019,-0.01021 0,-0.0077 0.01761,0.01786 0.01888,0.04695 0.03355,0.06711 0.01174,0.01531 0.02942,0.02679 0.04195,0.04185 0.02697,0.03292 0.05152,0.0888 0.09227,0.108954 0.0051,0.0026 0.01174,-0.0026 0.01684,0 0.0025,0.0014 0,0.0051 0,0.0077 0,0.03368 0.01403,0.06685 0.0084,0.100789 -0.0022,0.01276 -0.02934,0.02041 -0.02526,0.02552 0.08084,0.09696 0.220229,0.181421 0.268447,0.302011 0.0051,0.01276 -0.0048,0.02883 0,0.04185 0.0056,0.01531 0.01914,0.02679 0.02526,0.0421 0.0031,0.0077 -0.01735,-0.0026 -0.02526,0 -0.01505,0.0077 -0.03041,0.01276 -0.04195,0.02552 -0.02886,0.02883 -0.01684,0.09926 -0.01684,0.134215 0,0.01021 0.0022,0.190862 0,0.192903 -0.0074,0.0077 -0.108545,0.0077 -0.125845,0 -0.0031,-0.0014 -0.05874,-0.151312 -0.05874,-0.151056 0,0.155649 0.07647,0.158711 0.03355,0.0077 -0.01225,-0.04312 -0.08234,0.167642 -0.0839,0.167642 -0.0056,0 0.0028,-0.01276 0,-0.01786 -0.01429,-0.02296 -0.03355,-0.04465 -0.05034,-0.06711 -0.03368,-0.04491 -0.07165,-0.06864 -0.117451,-0.100534 -0.01148,-0.0077 -0.02118,-0.01786 -0.03355,-0.02552 -0.01684,-0.0077 -0.02748,0.01276 -0.04195,0.01786 -0.02605,0.0077 -0.09186,-0.01021 -0.100661,-0.0077 -0.01378,0.0021 -0.02526,0.01276 -0.03355,0.02552 -0.01582,0.02041 -0.02271,0.140339 -0.03355,0.125795 -0.047,-0.06277 -0.08813,-0.129623 -0.134214,-0.192903 -0.02016,-0.02781 -0.03378,-0.04593 -0.02526,-0.05027 0.0074,-0.0026 0.07106,-0.0051 0.0755,0 0.03008,0.03011 0.02501,0.05027 0.06711,0.05027 0.0028,0 0.0071,0.0026 0.0084,0 0.01556,-0.03113 -0.01608,-0.03189 -0.02526,-0.05027 -0.0087,-0.01786 0.01046,-0.05129 0,-0.06711 -0.0019,-0.0026 -0.03424,-7.14e-4 -0.04195,-0.0077 -0.01812,-0.01786 -0.02169,-0.04236 -0.04195,-0.06711 -0.03057,-0.03751 -0.07374,-0.06864 -0.100661,-0.108955 -0.0071,-0.01021 0.02041,-0.0077 0.02526,-0.01786 0.0071,-0.01531 0.01531,-0.04874 0.02526,-0.05869 0.0094,-0.01021 0.03917,0.0077 0.03355,-0.02552 -0.0021,-0.01276 -0.01123,-0.02296 -0.01684,-0.03368 z"
         id="path39" />
    </g>
    <g
       id="g92"
       style="display:inline"
       transform="translate(47.988244,-5.7062044)">
      <path
         style="fill:#ff0000;stroke:#ff0000;stroke-width:0.191103px;stroke-linecap:butt;stroke-linejoin:miter;stroke-opacity:1"
         d="m 23.986652,32.507423 c 0.561739,-0.468122 0.124901,-0.03572 0.66886,-1.051066 0.09806,-0.182951 0.238091,-0.341586 0.334432,-0.525532 0.07958,-0.151822 0.114388,-0.324337 0.191115,-0.477767 0.06718,-0.13447 0.171697,-0.247762 0.238881,-0.382208 0.210456,-0.42089 0.07532,-0.449647 0.238881,0.09543 0.01454,0.04823 0.03557,0.09441 0.04777,0.143402 0.0038,0.01531 -0.01505,0.04287 0,0.04772 0.172718,0.05767 0.350417,-0.05231 0.477758,-0.143401 0.06479,-0.04618 0.134801,-0.08701 0.191115,-0.143402 0.01123,-0.01021 -0.01123,-0.05894 0,-0.04772 0.100712,0.100789 0.10732,0.267002 0.191115,0.382208 0.06624,0.09109 0.167564,0.151822 0.238881,0.238832 0.153581,0.187799 0.293343,0.504992 0.525534,0.621091 0.02848,0.01531 0.06706,-0.01531 0.09556,0 0.01429,0.0077 0,0.03189 0,0.04772 0,0.192393 0.08002,0.379835 0.04777,0.573299 -0.0125,0.07502 -0.167181,0.114823 -0.143324,0.143402 0.460424,0.552503 1.25428,1.033561 1.528825,1.719922 0.02957,0.074 -0.02797,0.164325 0,0.238832 0.03261,0.08701 0.108826,0.152588 0.143323,0.238833 0.01786,0.0444 -0.09941,-0.01786 -0.143323,0 -0.08535,0.03649 -0.173229,0.07757 -0.238881,0.143401 -0.164349,0.164324 -0.09556,0.565389 -0.09556,0.764416 0,0.05869 0.01225,1.086481 0,1.098857 -0.04152,0.04159 -0.618091,0.04925 -0.716636,0 -0.01684,-0.0077 -0.334431,-0.86148 -0.334431,-0.859974 0,0.885949 0.435556,0.903377 0.191089,0.04772 -0.07024,-0.245977 -0.468908,0.955507 -0.477757,0.955507 -0.03184,0 0.01633,-0.06813 0,-0.09569 -0.08193,-0.136512 -0.191115,-0.254907 -0.286655,-0.382208 -0.191881,-0.255851 -0.408009,-0.390705 -0.66886,-0.573299 -0.06524,-0.04567 -0.119874,-0.107678 -0.191115,-0.143401 -0.09548,-0.04772 -0.156567,0.07502 -0.238881,0.09543 -0.148274,0.037 -0.523204,-0.05537 -0.57331,-0.04772 -0.07869,0.01276 -0.143324,0.07961 -0.191116,0.143402 -0.0901,0.120181 -0.128856,0.799653 -0.191089,0.716649 -0.267717,-0.356972 -0.501978,-0.738007 -0.764413,-1.098857 -0.114924,-0.157946 -0.192416,-0.262103 -0.143323,-0.28665 0.04141,-0.02041 0.404694,-0.02552 0.429981,0 0.171315,0.171214 0.143094,0.28665 0.382207,0.28665 0.01582,0 0.04065,0.01531 0.04777,0 0.08895,-0.177849 -0.09101,-0.181931 -0.143323,-0.28665 -0.04902,-0.09798 0.06022,-0.291906 0,-0.382208 -0.01123,-0.01786 -0.195019,-0.0051 -0.238882,-0.04771 -0.103416,-0.103341 -0.123523,-0.241129 -0.238881,-0.382208 -0.174147,-0.212806 -0.419948,-0.391062 -0.573307,-0.621091 -0.04021,-0.06022 0.1162,-0.04134 0.143324,-0.09569 0.04116,-0.08216 0.08688,-0.277974 0.143323,-0.334416 0.05338,-0.05333 0.22301,0.04823 0.191115,-0.143401 -0.01174,-0.07017 -0.06371,-0.127326 -0.09556,-0.191117 z"
         id="path86" />
      <path
         style="fill:#ff6600;stroke:#ff6600;stroke-width:0.119336px;stroke-linecap:butt;stroke-linejoin:miter;stroke-opacity:1"
         d="m 25.047099,32.945409 c 0.350785,-0.292314 0.078,-0.02296 0.417678,-0.656355 0.06124,-0.114312 0.148682,-0.213315 0.208849,-0.328164 0.04971,-0.09492 0.07145,-0.202599 0.119338,-0.298361 0.04195,-0.08395 0.107219,-0.154629 0.149167,-0.238577 0.131408,-0.262843 0.04703,-0.280781 0.149167,0.05971 0.0092,0.03011 0.0222,0.05894 0.02983,0.08956 0.0024,0.01021 -0.0094,0.02679 0,0.02985 0.107856,0.03598 0.218826,-0.03266 0.298339,-0.08956 0.04047,-0.02883 0.08418,-0.05435 0.119338,-0.08956 0.0069,-0.0051 -0.0069,-0.03674 0,-0.02985 0.0629,0.06302 0.06701,0.166621 0.119339,0.238577 0.04136,0.0569 0.104641,0.09492 0.149167,0.149014 0.09592,0.117375 0.18318,0.315356 0.328172,0.387847 0.01786,0.01021 0.04187,-0.01021 0.05968,0 0.0089,0.0051 0,0.02041 0,0.02985 0,0.120182 0.04996,0.237301 0.02983,0.357993 -0.0079,0.04695 -0.104386,0.0717 -0.08951,0.08956 0.287517,0.345006 0.783246,0.645408 0.954688,1.074005 0.01837,0.04618 -0.01735,0.102575 0,0.149015 0.02041,0.05435 0.06795,0.09543 0.08951,0.14927 0.01123,0.02781 -0.06208,-0.01021 -0.08951,0 -0.0533,0.02296 -0.108162,0.04848 -0.149167,0.08956 -0.102625,0.102575 -0.05968,0.353068 -0.05968,0.477332 0,0.03674 0.0077,0.678477 0,0.686209 -0.02592,0.02603 -0.385971,0.03062 -0.447508,0 -0.01046,-0.0051 -0.208849,-0.537959 -0.208849,-0.537041 0,0.553243 0.271986,0.564139 0.119339,0.02985 -0.04386,-0.153608 -0.292815,0.596672 -0.298342,0.596672 -0.0199,0 0.01021,-0.04261 0,-0.05971 -0.05116,-0.08522 -0.119338,-0.159221 -0.178995,-0.238577 -0.119823,-0.159732 -0.254777,-0.243935 -0.417674,-0.357993 -0.04075,-0.02858 -0.07486,-0.06736 -0.119339,-0.08956 -0.05963,-0.02985 -0.09778,0.04695 -0.149167,0.05971 -0.0926,0.02296 -0.32672,-0.0347 -0.358008,-0.02985 -0.04914,0.0077 -0.08951,0.04976 -0.119338,0.08956 -0.05626,0.07502 -0.08048,0.499353 -0.119339,0.44753 -0.167181,-0.223012 -0.313462,-0.460849 -0.477341,-0.686209 -0.07178,-0.09849 -0.120156,-0.163559 -0.08951,-0.178869 0.02587,-0.01276 0.252711,-0.01531 0.268506,0 0.106988,0.106913 0.08936,0.178869 0.238677,0.178869 0.01,0 0.02526,0.01021 0.02983,0 0.05555,-0.110995 -0.05682,-0.113547 -0.08951,-0.178869 -0.03062,-0.06124 0.03761,-0.182186 0,-0.238577 -0.0069,-0.01021 -0.121788,-0.0026 -0.149167,-0.02985 -0.06458,-0.06456 -0.07713,-0.150545 -0.149167,-0.238576 -0.108749,-0.13294 -0.262239,-0.244191 -0.358005,-0.387847 -0.02501,-0.03751 0.07257,-0.02577 0.08951,-0.05971 0.0257,-0.05129 0.05425,-0.173511 0.08951,-0.208723 0.03332,-0.03343 0.139267,0.03011 0.119339,-0.08956 -0.0074,-0.04389 -0.03978,-0.07961 -0.05968,-0.119416 z"
         id="path88" />
      <path
         style="fill:#ffff00;stroke:#ffff00;stroke-width:0.0335558px;stroke-linecap:butt;stroke-linejoin:miter;stroke-opacity:1"
         d="m 26.167642,33.483062 c 0.09864,-0.08216 0.02194,-0.0077 0.11745,-0.184483 0.0171,-0.03215 0.0418,-0.05996 0.05874,-0.09237 0.01403,-0.02679 0.02016,-0.0569 0.03355,-0.08395 0.01174,-0.02296 0.03016,-0.04338 0.04195,-0.06711 0.03695,-0.074 0.01327,-0.0791 0.04195,0.01786 0.0026,0.0077 0.0061,0.01531 0.0084,0.02552 6.71e-4,0.0026 -0.0026,0.0077 0,0.0077 0.03034,0.01021 0.06154,-0.01021 0.0839,-0.02552 0.01148,-0.0077 0.02373,-0.01531 0.03355,-0.02552 0.0019,-0.0015 -0.0019,-0.01021 0,-0.0077 0.01761,0.01786 0.01888,0.04695 0.03355,0.06711 0.01174,0.01531 0.02942,0.02679 0.04195,0.04185 0.02697,0.03292 0.05152,0.0888 0.09227,0.108954 0.0051,0.0026 0.01174,-0.0026 0.01684,0 0.0025,0.0014 0,0.0051 0,0.0077 0,0.03368 0.01403,0.06685 0.0084,0.100789 -0.0022,0.01276 -0.02934,0.02041 -0.02526,0.02552 0.08084,0.09696 0.220229,0.181421 0.268447,0.302011 0.0051,0.01276 -0.0048,0.02883 0,0.04185 0.0056,0.01531 0.01914,0.02679 0.02526,0.0421 0.0031,0.0077 -0.01735,-0.0026 -0.02526,0 -0.01505,0.0077 -0.03041,0.01276 -0.04195,0.02552 -0.02886,0.02883 -0.01684,0.09926 -0.01684,0.134215 0,0.01021 0.0022,0.190862 0,0.192903 -0.0074,0.0077 -0.108545,0.0077 -0.125845,0 -0.0031,-0.0014 -0.05874,-0.151312 -0.05874,-0.151056 0,0.155649 0.07647,0.158711 0.03355,0.0077 -0.01225,-0.04312 -0.08234,0.167642 -0.0839,0.167642 -0.0056,0 0.0028,-0.01276 0,-0.01786 -0.01429,-0.02296 -0.03355,-0.04465 -0.05034,-0.06711 -0.03368,-0.04491 -0.07165,-0.06864 -0.117451,-0.100534 -0.01148,-0.0077 -0.02118,-0.01786 -0.03355,-0.02552 -0.01684,-0.0077 -0.02748,0.01276 -0.04195,0.01786 -0.02605,0.0077 -0.09186,-0.01021 -0.100661,-0.0077 -0.01378,0.0021 -0.02526,0.01276 -0.03355,0.02552 -0.01582,0.02041 -0.02271,0.140339 -0.03355,0.125795 -0.047,-0.06277 -0.08813,-0.129623 -0.134214,-0.192903 -0.02016,-0.02781 -0.03378,-0.04593 -0.02526,-0.05027 0.0074,-0.0026 0.07106,-0.0051 0.0755,0 0.03008,0.03011 0.02501,0.05027 0.06711,0.05027 0.0028,0 0.0071,0.0026 0.0084,0 0.01556,-0.03113 -0.01608,-0.03189 -0.02526,-0.05027 -0.0087,-0.01786 0.01046,-0.05129 0,-0.06711 -0.0019,-0.0026 -0.03424,-7.14e-4 -0.04195,-0.0077 -0.01812,-0.01786 -0.02169,-0.04236 -0.04195,-0.06711 -0.03057,-0.03751 -0.07374,-0.06864 -0.100661,-0.108955 -0.0071,-0.01021 0.02041,-0.0077 0.02526,-0.01786 0.0071,-0.01531 0.01531,-0.04874 0.02526,-0.05869 0.0094,-0.01021 0.03917,0.0077 0.03355,-0.02552 -0.0021,-0.01276 -0.01123,-0.02296 -0.01684,-0.03368 z"
         id="path90" />
    </g>
  </g>
  <g
     inkscape:groupmode="layer"
     id="g110"
     inkscape:label="Sparks 2"
     style="display:inline"
     sodipodi:insensitive="true">
    <g
       id="g121">
      <g
         id="g100"
         style="display:inline"
         transform="translate(0,-2.6458328)">
        <path
           style="fill:#ff0000;stroke:#ff0000;stroke-width:0.191103px;stroke-linecap:butt;stroke-linejoin:miter;stroke-opacity:1"
           d="m 23.986652,32.507423 c 0.561739,-0.468122 0.124901,-0.03572 0.66886,-1.051066 0.09806,-0.182951 0.238091,-0.341586 0.334432,-0.525532 0.07958,-0.151822 0.114388,-0.324337 0.191115,-0.477767 0.06718,-0.13447 0.171697,-0.247762 0.238881,-0.382208 0.210456,-0.42089 0.07532,-0.449647 0.238881,0.09543 0.01454,0.04823 0.03557,0.09441 0.04777,0.143402 0.0038,0.01531 -0.01505,0.04287 0,0.04772 0.172718,0.05767 0.350417,-0.05231 0.477758,-0.143401 0.06479,-0.04618 0.134801,-0.08701 0.191115,-0.143402 0.01123,-0.01021 -0.01123,-0.05894 0,-0.04772 0.100712,0.100789 0.10732,0.267002 0.191115,0.382208 0.06624,0.09109 0.167564,0.151822 0.238881,0.238832 0.153581,0.187799 0.293343,0.504992 0.525534,0.621091 0.02848,0.01531 0.06706,-0.01531 0.09556,0 0.01429,0.0077 0,0.03189 0,0.04772 0,0.192393 0.08002,0.379835 0.04777,0.573299 -0.0125,0.07502 -0.167181,0.114823 -0.143324,0.143402 0.460424,0.552503 1.25428,1.033561 1.528825,1.719922 0.02957,0.074 -0.02797,0.164325 0,0.238832 0.03261,0.08701 0.108826,0.152588 0.143323,0.238833 0.01786,0.0444 -0.09941,-0.01786 -0.143323,0 -0.08535,0.03649 -0.173229,0.07757 -0.238881,0.143401 -0.164349,0.164324 -0.09556,0.565389 -0.09556,0.764416 0,0.05869 0.01225,1.086481 0,1.098857 -0.04152,0.04159 -0.618091,0.04925 -0.716636,0 -0.01684,-0.0077 -0.334431,-0.86148 -0.334431,-0.859974 0,0.885949 0.435556,0.903377 0.191089,0.04772 -0.07024,-0.245977 -0.468908,0.955507 -0.477757,0.955507 -0.03184,0 0.01633,-0.06813 0,-0.09569 -0.08193,-0.136512 -0.191115,-0.254907 -0.286655,-0.382208 -0.191881,-0.255851 -0.408009,-0.390705 -0.66886,-0.573299 -0.06524,-0.04567 -0.119874,-0.107678 -0.191115,-0.143401 -0.09548,-0.04772 -0.156567,0.07502 -0.238881,0.09543 -0.148274,0.037 -0.523204,-0.05537 -0.57331,-0.04772 -0.07869,0.01276 -0.143324,0.07961 -0.191116,0.143402 -0.0901,0.120181 -0.128856,0.799653 -0.191089,0.716649 -0.267717,-0.356972 -0.501978,-0.738007 -0.764413,-1.098857 -0.114924,-0.157946 -0.192416,-0.262103 -0.143323,-0.28665 0.04141,-0.02041 0.404694,-0.02552 0.429981,0 0.171315,0.171214 0.143094,0.28665 0.382207,0.28665 0.01582,0 0.04065,0.01531 0.04777,0 0.08895,-0.177849 -0.09101,-0.181931 -0.143323,-0.28665 -0.04902,-0.09798 0.06022,-0.291906 0,-0.382208 -0.01123,-0.01786 -0.195019,-0.0051 -0.238882,-0.04771 -0.103416,-0.103341 -0.123523,-0.241129 -0.238881,-0.382208 -0.174147,-0.212806 -0.419948,-0.391062 -0.573307,-0.621091 -0.04021,-0.06022 0.1162,-0.04134 0.143324,-0.09569 0.04116,-0.08216 0.08688,-0.277974 0.143323,-0.334416 0.05338,-0.05333 0.22301,0.04823 0.191115,-0.143401 -0.01174,-0.07017 -0.06371,-0.127326 -0.09556,-0.191117 z"
           id="path94" />
        <path
           style="fill:#ff6600;stroke:#ff6600;stroke-width:0.119336px;stroke-linecap:butt;stroke-linejoin:miter;stroke-opacity:1"
           d="m 25.047099,32.945409 c 0.350785,-0.292314 0.078,-0.02296 0.417678,-0.656355 0.06124,-0.114312 0.148682,-0.213315 0.208849,-0.328164 0.04971,-0.09492 0.07145,-0.202599 0.119338,-0.298361 0.04195,-0.08395 0.107219,-0.154629 0.149167,-0.238577 0.131408,-0.262843 0.04703,-0.280781 0.149167,0.05971 0.0092,0.03011 0.0222,0.05894 0.02983,0.08956 0.0024,0.01021 -0.0094,0.02679 0,0.02985 0.107856,0.03598 0.218826,-0.03266 0.298339,-0.08956 0.04047,-0.02883 0.08418,-0.05435 0.119338,-0.08956 0.0069,-0.0051 -0.0069,-0.03674 0,-0.02985 0.0629,0.06302 0.06701,0.166621 0.119339,0.238577 0.04136,0.0569 0.104641,0.09492 0.149167,0.149014 0.09592,0.117375 0.18318,0.315356 0.328172,0.387847 0.01786,0.01021 0.04187,-0.01021 0.05968,0 0.0089,0.0051 0,0.02041 0,0.02985 0,0.120182 0.04996,0.237301 0.02983,0.357993 -0.0079,0.04695 -0.104386,0.0717 -0.08951,0.08956 0.287517,0.345006 0.783246,0.645408 0.954688,1.074005 0.01837,0.04618 -0.01735,0.102575 0,0.149015 0.02041,0.05435 0.06795,0.09543 0.08951,0.14927 0.01123,0.02781 -0.06208,-0.01021 -0.08951,0 -0.0533,0.02296 -0.108162,0.04848 -0.149167,0.08956 -0.102625,0.102575 -0.05968,0.353068 -0.05968,0.477332 0,0.03674 0.0077,0.678477 0,0.686209 -0.02592,0.02603 -0.385971,0.03062 -0.447508,0 -0.01046,-0.0051 -0.208849,-0.537959 -0.208849,-0.537041 0,0.553243 0.271986,0.564139 0.119339,0.02985 -0.04386,-0.153608 -0.292815,0.596672 -0.298342,0.596672 -0.0199,0 0.01021,-0.04261 0,-0.05971 -0.05116,-0.08522 -0.119338,-0.159221 -0.178995,-0.238577 -0.119823,-0.159732 -0.254777,-0.243935 -0.417674,-0.357993 -0.04075,-0.02858 -0.07486,-0.06736 -0.119339,-0.08956 -0.05963,-0.02985 -0.09778,0.04695 -0.149167,0.05971 -0.0926,0.02296 -0.32672,-0.0347 -0.358008,-0.02985 -0.04914,0.0077 -0.08951,0.04976 -0.119338,0.08956 -0.05626,0.07502 -0.08048,0.499353 -0.119339,0.44753 -0.167181,-0.223012 -0.313462,-0.460849 -0.477341,-0.686209 -0.07178,-0.09849 -0.120156,-0.163559 -0.08951,-0.178869 0.02587,-0.01276 0.252711,-0.01531 0.268506,0 0.106988,0.106913 0.08936,0.178869 0.238677,0.178869 0.01,0 0.02526,0.01021 0.02983,0 0.05555,-0.110995 -0.05682,-0.113547 -0.08951,-0.178869 -0.03062,-0.06124 0.03761,-0.182186 0,-0.238577 -0.0069,-0.01021 -0.121788,-0.0026 -0.149167,-0.02985 -0.06458,-0.06456 -0.07713,-0.150545 -0.149167,-0.238576 -0.108749,-0.13294 -0.262239,-0.244191 -0.358005,-0.387847 -0.02501,-0.03751 0.07257,-0.02577 0.08951,-0.05971 0.0257,-0.05129 0.05425,-0.173511 0.08951,-0.208723 0.03332,-0.03343 0.139267,0.03011 0.119339,-0.08956 -0.0074,-0.04389 -0.03978,-0.07961 -0.05968,-0.119416 z"
           id="path96" />
        <path
           style="fill:#ffff00;stroke:#ffff00;stroke-width:0.0335558px;stroke-linecap:butt;stroke-linejoin:miter;stroke-opacity:1"
           d="m 26.167642,33.483062 c 0.09864,-0.08216 0.02194,-0.0077 0.11745,-0.184483 0.0171,-0.03215 0.0418,-0.05996 0.05874,-0.09237 0.01403,-0.02679 0.02016,-0.0569 0.03355,-0.08395 0.01174,-0.02296 0.03016,-0.04338 0.04195,-0.06711 0.03695,-0.074 0.01327,-0.0791 0.04195,0.01786 0.0026,0.0077 0.0061,0.01531 0.0084,0.02552 6.71e-4,0.0026 -0.0026,0.0077 0,0.0077 0.03034,0.01021 0.06154,-0.01021 0.0839,-0.02552 0.01148,-0.0077 0.02373,-0.01531 0.03355,-0.02552 0.0019,-0.0015 -0.0019,-0.01021 0,-0.0077 0.01761,0.01786 0.01888,0.04695 0.03355,0.06711 0.01174,0.01531 0.02942,0.02679 0.04195,0.04185 0.02697,0.03292 0.05152,0.0888 0.09227,0.108954 0.0051,0.0026 0.01174,-0.0026 0.01684,0 0.0025,0.0014 0,0.0051 0,0.0077 0,0.03368 0.01403,0.06685 0.0084,0.100789 -0.0022,0.01276 -0.02934,0.02041 -0.02526,0.02552 0.08084,0.09696 0.220229,0.181421 0.268447,0.302011 0.0051,0.01276 -0.0048,0.02883 0,0.04185 0.0056,0.01531 0.01914,0.02679 0.02526,0.0421 0.0031,0.0077 -0.01735,-0.0026 -0.02526,0 -0.01505,0.0077 -0.03041,0.01276 -0.04195,0.02552 -0.02886,0.02883 -0.01684,0.09926 -0.01684,0.134215 0,0.01021 0.0022,0.190862 0,0.192903 -0.0074,0.0077 -0.108545,0.0077 -0.125845,0 -0.0031,-0.0014 -0.05874,-0.151312 -0.05874,-0.151056 0,0.155649 0.07647,0.158711 0.03355,0.0077 -0.01225,-0.04312 -0.08234,0.167642 -0.0839,0.167642 -0.0056,0 0.0028,-0.01276 0,-0.01786 -0.01429,-0.02296 -0.03355,-0.04465 -0.05034,-0.06711 -0.03368,-0.04491 -0.07165,-0.06864 -0.117451,-0.100534 -0.01148,-0.0077 -0.02118,-0.01786 -0.03355,-0.02552 -0.01684,-0.0077 -0.02748,0.01276 -0.04195,0.01786 -0.02605,0.0077 -0.09186,-0.01021 -0.100661,-0.0077 -0.01378,0.0021 -0.02526,0.01276 -0.03355,0.02552 -0.01582,0.02041 -0.02271,0.140339 -0.03355,0.125795 -0.047,-0.06277 -0.08813,-0.129623 -0.134214,-0.192903 -0.02016,-0.02781 -0.03378,-0.04593 -0.02526,-0.05027 0.0074,-0.0026 0.07106,-0.0051 0.0755,0 0.03008,0.03011 0.02501,0.05027 0.06711,0.05027 0.0028,0 0.0071,0.0026 0.0084,0 0.01556,-0.03113 -0.01608,-0.03189 -0.02526,-0.05027 -0.0087,-0.01786 0.01046,-0.05129 0,-0.06711 -0.0019,-0.0026 -0.03424,-7.14e-4 -0.04195,-0.0077 -0.01812,-0.01786 -0.02169,-0.04236 -0.04195,-0.06711 -0.03057,-0.03751 -0.07374,-0.06864 -0.100661,-0.108955 -0.0071,-0.01021 0.02041,-0.0077 0.02526,-0.01786 0.0071,-0.01531 0.01531,-0.04874 0.02526,-0.05869 0.0094,-0.01021 0.03917,0.0077 0.03355,-0.02552 -0.0021,-0.01276 -0.01123,-0.02296 -0.01684,-0.03368 z"
           id="path98" />
      </g>
      <g
         id="g108"
         style="display:inline"
         transform="rotate(-90,46.384121,5.1608626)">
        <path
           style="fill:#ff0000;stroke:#ff0000;stroke-width:0.191103px;stroke-linecap:butt;stroke-linejoin:miter;stroke-opacity:1"
           d="m 23.986652,32.507423 c 0.561739,-0.468122 0.124901,-0.03572 0.66886,-1.051066 0.09806,-0.182951 0.238091,-0.341586 0.334432,-0.525532 0.07958,-0.151822 0.114388,-0.324337 0.191115,-0.477767 0.06718,-0.13447 0.171697,-0.247762 0.238881,-0.382208 0.210456,-0.42089 0.07532,-0.449647 0.238881,0.09543 0.01454,0.04823 0.03557,0.09441 0.04777,0.143402 0.0038,0.01531 -0.01505,0.04287 0,0.04772 0.172718,0.05767 0.350417,-0.05231 0.477758,-0.143401 0.06479,-0.04618 0.134801,-0.08701 0.191115,-0.143402 0.01123,-0.01021 -0.01123,-0.05894 0,-0.04772 0.100712,0.100789 0.10732,0.267002 0.191115,0.382208 0.06624,0.09109 0.167564,0.151822 0.238881,0.238832 0.153581,0.187799 0.293343,0.504992 0.525534,0.621091 0.02848,0.01531 0.06706,-0.01531 0.09556,0 0.01429,0.0077 0,0.03189 0,0.04772 0,0.192393 0.08002,0.379835 0.04777,0.573299 -0.0125,0.07502 -0.167181,0.114823 -0.143324,0.143402 0.460424,0.552503 1.25428,1.033561 1.528825,1.719922 0.02957,0.074 -0.02797,0.164325 0,0.238832 0.03261,0.08701 0.108826,0.152588 0.143323,0.238833 0.01786,0.0444 -0.09941,-0.01786 -0.143323,0 -0.08535,0.03649 -0.173229,0.07757 -0.238881,0.143401 -0.164349,0.164324 -0.09556,0.565389 -0.09556,0.764416 0,0.05869 0.01225,1.086481 0,1.098857 -0.04152,0.04159 -0.618091,0.04925 -0.716636,0 -0.01684,-0.0077 -0.334431,-0.86148 -0.334431,-0.859974 0,0.885949 0.435556,0.903377 0.191089,0.04772 -0.07024,-0.245977 -0.468908,0.955507 -0.477757,0.955507 -0.03184,0 0.01633,-0.06813 0,-0.09569 -0.08193,-0.136512 -0.191115,-0.254907 -0.286655,-0.382208 -0.191881,-0.255851 -0.408009,-0.390705 -0.66886,-0.573299 -0.06524,-0.04567 -0.119874,-0.107678 -0.191115,-0.143401 -0.09548,-0.04772 -0.156567,0.07502 -0.238881,0.09543 -0.148274,0.037 -0.523204,-0.05537 -0.57331,-0.04772 -0.07869,0.01276 -0.143324,0.07961 -0.191116,0.143402 -0.0901,0.120181 -0.128856,0.799653 -0.191089,0.716649 -0.267717,-0.356972 -0.501978,-0.738007 -0.764413,-1.098857 -0.114924,-0.157946 -0.192416,-0.262103 -0.143323,-0.28665 0.04141,-0.02041 0.404694,-0.02552 0.429981,0 0.171315,0.171214 0.143094,0.28665 0.382207,0.28665 0.01582,0 0.04065,0.01531 0.04777,0 0.08895,-0.177849 -0.09101,-0.181931 -0.143323,-0.28665 -0.04902,-0.09798 0.06022,-0.291906 0,-0.382208 -0.01123,-0.01786 -0.195019,-0.0051 -0.238882,-0.04771 -0.103416,-0.103341 -0.123523,-0.241129 -0.238881,-0.382208 -0.174147,-0.212806 -0.419948,-0.391062 -0.573307,-0.621091 -0.04021,-0.06022 0.1162,-0.04134 0.143324,-0.09569 0.04116,-0.08216 0.08688,-0.277974 0.143323,-0.334416 0.05338,-0.05333 0.22301,0.04823 0.191115,-0.143401 -0.01174,-0.07017 -0.06371,-0.127326 -0.09556,-0.191117 z"
           id="path102" />
        <path
           style="fill:#ff6600;stroke:#ff6600;stroke-width:0.119336px;stroke-linecap:butt;stroke-linejoin:miter;stroke-opacity:1"
           d="m 25.047099,32.945409 c 0.350785,-0.292314 0.078,-0.02296 0.417678,-0.656355 0.06124,-0.114312 0.148682,-0.213315 0.208849,-0.328164 0.04971,-0.09492 0.07145,-0.202599 0.119338,-0.298361 0.04195,-0.08395 0.107219,-0.154629 0.149167,-0.238577 0.131408,-0.262843 0.04703,-0.280781 0.149167,0.05971 0.0092,0.03011 0.0222,0.05894 0.02983,0.08956 0.0024,0.01021 -0.0094,0.02679 0,0.02985 0.107856,0.03598 0.218826,-0.03266 0.298339,-0.08956 0.04047,-0.02883 0.08418,-0.05435 0.119338,-0.08956 0.0069,-0.0051 -0.0069,-0.03674 0,-0.02985 0.0629,0.06302 0.06701,0.166621 0.119339,0.238577 0.04136,0.0569 0.104641,0.09492 0.149167,0.149014 0.09592,0.117375 0.18318,0.315356 0.328172,0.387847 0.01786,0.01021 0.04187,-0.01021 0.05968,0 0.0089,0.0051 0,0.02041 0,0.02985 0,0.120182 0.04996,0.237301 0.02983,0.357993 -0.0079,0.04695 -0.104386,0.0717 -0.08951,0.08956 0.287517,0.345006 0.783246,0.645408 0.954688,1.074005 0.01837,0.04618 -0.01735,0.102575 0,0.149015 0.02041,0.05435 0.06795,0.09543 0.08951,0.14927 0.01123,0.02781 -0.06208,-0.01021 -0.08951,0 -0.0533,0.02296 -0.108162,0.04848 -0.149167,0.08956 -0.102625,0.102575 -0.05968,0.353068 -0.05968,0.477332 0,0.03674 0.0077,0.678477 0,0.686209 -0.02592,0.02603 -0.385971,0.03062 -0.447508,0 -0.01046,-0.0051 -0.208849,-0.537959 -0.208849,-0.537041 0,0.553243 0.271986,0.564139 0.119339,0.02985 -0.04386,-0.153608 -0.292815,0.596672 -0.298342,0.596672 -0.0199,0 0.01021,-0.04261 0,-0.05971 -0.05116,-0.08522 -0.119338,-0.159221 -0.178995,-0.238577 -0.119823,-0.159732 -0.254777,-0.243935 -0.417674,-0.357993 -0.04075,-0.02858 -0.07486,-0.06736 -0.119339,-0.08956 -0.05963,-0.02985 -0.09778,0.04695 -0.149167,0.05971 -0.0926,0.02296 -0.32672,-0.0347 -0.358008,-0.02985 -0.04914,0.0077 -0.08951,0.04976 -0.119338,0.08956 -0.05626,0.07502 -0.08048,0.499353 -0.119339,0.44753 -0.167181,-0.223012 -0.313462,-0.460849 -0.477341,-0.686209 -0.07178,-0.09849 -0.120156,-0.163559 -0.08951,-0.178869 0.02587,-0.01276 0.252711,-0.01531 0.268506,0 0.106988,0.106913 0.08936,0.178869 0.238677,0.178869 0.01,0 0.02526,0.01021 0.02983,0 0.05555,-0.110995 -0.05682,-0.113547 -0.08951,-0.178869 -0.03062,-0.06124 0.03761,-0.182186 0,-0.238577 -0.0069,-0.01021 -0.121788,-0.0026 -0.149167,-0.02985 -0.06458,-0.06456 -0.07713,-0.150545 -0.149167,-0.238576 -0.108749,-0.13294 -0.262239,-0.244191 -0.358005,-0.387847 -0.02501,-0.03751 0.07257,-0.02577 0.08951,-0.05971 0.0257,-0.05129 0.05425,-0.173511 0.08951,-0.208723 0.03332,-0.03343 0.139267,0.03011 0.119339,-0.08956 -0.0074,-0.04389 -0.03978,-0.07961 -0.05968,-0.119416 z"
           id="path104" />
        <path
           style="fill:#ffff00;stroke:#ffff00;stroke-width:0.0335558px;stroke-linecap:butt;stroke-linejoin:miter;stroke-opacity:1"
           d="m 26.167642,33.483062 c 0.09864,-0.08216 0.02194,-0.0077 0.11745,-0.184483 0.0171,-0.03215 0.0418,-0.05996 0.05874,-0.09237 0.01403,-0.02679 0.02016,-0.0569 0.03355,-0.08395 0.01174,-0.02296 0.03016,-0.04338 0.04195,-0.06711 0.03695,-0.074 0.01327,-0.0791 0.04195,0.01786 0.0026,0.0077 0.0061,0.01531 0.0084,0.02552 6.71e-4,0.0026 -0.0026,0.0077 0,0.0077 0.03034,0.01021 0.06154,-0.01021 0.0839,-0.02552 0.01148,-0.0077 0.02373,-0.01531 0.03355,-0.02552 0.0019,-0.0015 -0.0019,-0.01021 0,-0.0077 0.01761,0.01786 0.01888,0.04695 0.03355,0.06711 0.01174,0.01531 0.02942,0.02679 0.04195,0.04185 0.02697,0.03292 0.05152,0.0888 0.09227,0.108954 0.0051,0.0026 0.01174,-0.0026 0.01684,0 0.0025,0.0014 0,0.0051 0,0.0077 0,0.03368 0.01403,0.06685 0.0084,0.100789 -0.0022,0.01276 -0.02934,0.02041 -0.02526,0.02552 0.08084,0.09696 0.220229,0.181421 0.268447,0.302011 0.0051,0.01276 -0.0048,0.02883 0,0.04185 0.0056,0.01531 0.01914,0.02679 0.02526,0.0421 0.0031,0.0077 -0.01735,-0.0026 -0.02526,0 -0.01505,0.0077 -0.03041,0.01276 -0.04195,0.02552 -0.02886,0.02883 -0.01684,0.09926 -0.01684,0.134215 0,0.01021 0.0022,0.190862 0,0.192903 -0.0074,0.0077 -0.108545,0.0077 -0.125845,0 -0.0031,-0.0014 -0.05874,-0.151312 -0.05874,-0.151056 0,0.155649 0.07647,0.158711 0.03355,0.0077 -0.01225,-0.04312 -0.08234,0.167642 -0.0839,0.167642 -0.0056,0 0.0028,-0.01276 0,-0.01786 -0.01429,-0.02296 -0.03355,-0.04465 -0.05034,-0.06711 -0.03368,-0.04491 -0.07165,-0.06864 -0.117451,-0.100534 -0.01148,-0.0077 -0.02118,-0.01786 -0.03355,-0.02552 -0.01684,-0.0077 -0.02748,0.01276 -0.04195,0.01786 -0.02605,0.0077 -0.09186,-0.01021 -0.100661,-0.0077 -0.01378,0.0021 -0.02526,0.01276 -0.03355,0.02552 -0.01582,0.02041 -0.02271,0.140339 -0.03355,0.125795 -0.047,-0.06277 -0.08813,-0.129623 -0.134214,-0.192903 -0.02016,-0.02781 -0.03378,-0.04593 -0.02526,-0.05027 0.0074,-0.0026 0.07106,-0.0051 0.0755,0 0.03008,0.03011 0.02501,0.05027 0.06711,0.05027 0.0028,0 0.0071,0.0026 0.0084,0 0.01556,-0.03113 -0.01608,-0.03189 -0.02526,-0.05027 -0.0087,-0.01786 0.01046,-0.05129 0,-0.06711 -0.0019,-0.0026 -0.03424,-7.14e-4 -0.04195,-0.0077 -0.01812,-0.01786 -0.02169,-0.04236 -0.04195,-0.06711 -0.03057,-0.03751 -0.07374,-0.06864 -0.100661,-0.108955 -0.0071,-0.01021 0.02041,-0.0077 0.02526,-0.01786 0.0071,-0.01531 0.01531,-0.04874 0.02526,-0.05869 0.0094,-0.01021 0.03917,0.0077 0.03355,-0.02552 -0.0021,-0.01276 -0.01123,-0.02296 -0.01684,-0.03368 z"
           id="path106" />
      </g>
    </g>
  </g>
  <g
     inkscape:groupmode="layer"
     id="g211"
     inkscape:label="Sparks 3"
     style="display:inline"
     sodipodi:insensitive="true">
    <g
       id="g199"
       style="display:inline"
       transform="matrix(-1,0,0,1,52.602733,-5.2916663)">
      <path
         style="fill:#ff0000;stroke:#ff0000;stroke-width:0.191103px;stroke-linecap:butt;stroke-linejoin:miter;stroke-opacity:1"
         d="m 23.986652,32.507423 c 0.561739,-0.468122 0.124901,-0.03572 0.66886,-1.051066 0.09806,-0.182951 0.238091,-0.341586 0.334432,-0.525532 0.07958,-0.151822 0.114388,-0.324337 0.191115,-0.477767 0.06718,-0.13447 0.171697,-0.247762 0.238881,-0.382208 0.210456,-0.42089 0.07532,-0.449647 0.238881,0.09543 0.01454,0.04823 0.03557,0.09441 0.04777,0.143402 0.0038,0.01531 -0.01505,0.04287 0,0.04772 0.172718,0.05767 0.350417,-0.05231 0.477758,-0.143401 0.06479,-0.04618 0.134801,-0.08701 0.191115,-0.143402 0.01123,-0.01021 -0.01123,-0.05894 0,-0.04772 0.100712,0.100789 0.10732,0.267002 0.191115,0.382208 0.06624,0.09109 0.167564,0.151822 0.238881,0.238832 0.153581,0.187799 0.293343,0.504992 0.525534,0.621091 0.02848,0.01531 0.06706,-0.01531 0.09556,0 0.01429,0.0077 0,0.03189 0,0.04772 0,0.192393 0.08002,0.379835 0.04777,0.573299 -0.0125,0.07502 -0.167181,0.114823 -0.143324,0.143402 0.460424,0.552503 1.25428,1.033561 1.528825,1.719922 0.02957,0.074 -0.02797,0.164325 0,0.238832 0.03261,0.08701 0.108826,0.152588 0.143323,0.238833 0.01786,0.0444 -0.09941,-0.01786 -0.143323,0 -0.08535,0.03649 -0.173229,0.07757 -0.238881,0.143401 -0.164349,0.164324 -0.09556,0.565389 -0.09556,0.764416 0,0.05869 0.01225,1.086481 0,1.098857 -0.04152,0.04159 -0.618091,0.04925 -0.716636,0 -0.01684,-0.0077 -0.334431,-0.86148 -0.334431,-0.859974 0,0.885949 0.435556,0.903377 0.191089,0.04772 -0.07024,-0.245977 -0.468908,0.955507 -0.477757,0.955507 -0.03184,0 0.01633,-0.06813 0,-0.09569 -0.08193,-0.136512 -0.191115,-0.254907 -0.286655,-0.382208 -0.191881,-0.255851 -0.408009,-0.390705 -0.66886,-0.573299 -0.06524,-0.04567 -0.119874,-0.107678 -0.191115,-0.143401 -0.09548,-0.04772 -0.156567,0.07502 -0.238881,0.09543 -0.148274,0.037 -0.523204,-0.05537 -0.57331,-0.04772 -0.07869,0.01276 -0.143324,0.07961 -0.191116,0.143402 -0.0901,0.120181 -0.128856,0.799653 -0.191089,0.716649 -0.267717,-0.356972 -0.501978,-0.738007 -0.764413,-1.098857 -0.114924,-0.157946 -0.192416,-0.262103 -0.143323,-0.28665 0.04141,-0.02041 0.404694,-0.02552 0.429981,0 0.171315,0.171214 0.143094,0.28665 0.382207,0.28665 0.01582,0 0.04065,0.01531 0.04777,0 0.08895,-0.177849 -0.09101,-0.181931 -0.143323,-0.28665 -0.04902,-0.09798 0.06022,-0.291906 0,-0.382208 -0.01123,-0.01786 -0.195019,-0.0051 -0.238882,-0.04771 -0.103416,-0.103341 -0.123523,-0.241129 -0.238881,-0.382208 -0.174147,-0.212806 -0.419948,-0.391062 -0.573307,-0.621091 -0.04021,-0.06022 0.1162,-0.04134 0.143324,-0.09569 0.04116,-0.08216 0.08688,-0.277974 0.143323,-0.334416 0.05338,-0.05333 0.22301,0.04823 0.191115,-0.143401 -0.01174,-0.07017 -0.06371,-0.127326 -0.09556,-0.191117 z"
         id="path193" />
      <path
         style="fill:#ff6600;stroke:#ff6600;stroke-width:0.119336px;stroke-linecap:butt;stroke-linejoin:miter;stroke-opacity:1"
         d="m 25.047099,32.945409 c 0.350785,-0.292314 0.078,-0.02296 0.417678,-0.656355 0.06124,-0.114312 0.148682,-0.213315 0.208849,-0.328164 0.04971,-0.09492 0.07145,-0.202599 0.119338,-0.298361 0.04195,-0.08395 0.107219,-0.154629 0.149167,-0.238577 0.131408,-0.262843 0.04703,-0.280781 0.149167,0.05971 0.0092,0.03011 0.0222,0.05894 0.02983,0.08956 0.0024,0.01021 -0.0094,0.02679 0,0.02985 0.107856,0.03598 0.218826,-0.03266 0.298339,-0.08956 0.04047,-0.02883 0.08418,-0.05435 0.119338,-0.08956 0.0069,-0.0051 -0.0069,-0.03674 0,-0.02985 0.0629,0.06302 0.06701,0.166621 0.119339,0.238577 0.04136,0.0569 0.104641,0.09492 0.149167,0.149014 0.09592,0.117375 0.18318,0.315356 0.328172,0.387847 0.01786,0.01021 0.04187,-0.01021 0.05968,0 0.0089,0.0051 0,0.02041 0,0.02985 0,0.120182 0.04996,0.237301 0.02983,0.357993 -0.0079,0.04695 -0.104386,0.0717 -0.08951,0.08956 0.287517,0.345006 0.783246,0.645408 0.954688,1.074005 0.01837,0.04618 -0.01735,0.102575 0,0.149015 0.02041,0.05435 0.06795,0.09543 0.08951,0.14927 0.01123,0.02781 -0.06208,-0.01021 -0.08951,0 -0.0533,0.02296 -0.108162,0.04848 -0.149167,0.08956 -0.102625,0.102575 -0.05968,0.353068 -0.05968,0.477332 0,0.03674 0.0077,0.678477 0,0.686209 -0.02592,0.02603 -0.385971,0.03062 -0.447508,0 -0.01046,-0.0051 -0.208849,-0.537959 -0.208849,-0.537041 0,0.553243 0.271986,0.564139 0.119339,0.02985 -0.04386,-0.153608 -0.292815,0.596672 -0.298342,0.596672 -0.0199,0 0.01021,-0.04261 0,-0.05971 -0.05116,-0.08522 -0.119338,-0.159221 -0.178995,-0.238577 -0.119823,-0.159732 -0.254777,-0.243935 -0.417674,-0.357993 -0.04075,-0.02858 -0.07486,-0.06736 -0.119339,-0.08956 -0.05963,-0.02985 -0.09778,0.04695 -0.149167,0.05971 -0.0926,0.02296 -0.32672,-0.0347 -0.358008,-0.02985 -0.04914,0.0077 -0.08951,0.04976 -0.119338,0.08956 -0.05626,0.07502 -0.08048,0.499353 -0.119339,0.44753 -0.167181,-0.223012 -0.313462,-0.460849 -0.477341,-0.686209 -0.07178,-0.09849 -0.120156,-0.163559 -0.08951,-0.178869 0.02587,-0.01276 0.252711,-0.01531 0.268506,0 0.106988,0.106913 0.08936,0.178869 0.238677,0.178869 0.01,0 0.02526,0.01021 0.02983,0 0.05555,-0.110995 -0.05682,-0.113547 -0.08951,-0.178869 -0.03062,-0.06124 0.03761,-0.182186 0,-0.238577 -0.0069,-0.01021 -0.121788,-0.0026 -0.149167,-0.02985 -0.06458,-0.06456 -0.07713,-0.150545 -0.149167,-0.238576 -0.108749,-0.13294 -0.262239,-0.244191 -0.358005,-0.387847 -0.02501,-0.03751 0.07257,-0.02577 0.08951,-0.05971 0.0257,-0.05129 0.05425,-0.173511 0.08951,-0.208723 0.03332,-0.03343 0.139267,0.03011 0.119339,-0.08956 -0.0074,-0.04389 -0.03978,-0.07961 -0.05968,-0.119416 z"
         id="path195" />
      <path
         style="fill:#ffff00;stroke:#ffff00;stroke-width:0.0335558px;stroke-linecap:butt;stroke-linejoin:miter;stroke-opacity:1"
         d="m 26.167642,33.483062 c 0.09864,-0.08216 0.02194,-0.0077 0.11745,-0.184483 0.0171,-0.03215 0.0418,-0.05996 0.05874,-0.09237 0.01403,-0.02679 0.02016,-0.0569 0.03355,-0.08395 0.01174,-0.02296 0.03016,-0.04338 0.04195,-0.06711 0.03695,-0.074 0.01327,-0.0791 0.04195,0.01786 0.0026,0.0077 0.0061,0.01531 0.0084,0.02552 6.71e-4,0.0026 -0.0026,0.0077 0,0.0077 0.03034,0.01021 0.06154,-0.01021 0.0839,-0.02552 0.01148,-0.0077 0.02373,-0.01531 0.03355,-0.02552 0.0019,-0.0015 -0.0019,-0.01021 0,-0.0077 0.01761,0.01786 0.01888,0.04695 0.03355,0.06711 0.01174,0.01531 0.02942,0.02679 0.04195,0.04185 0.02697,0.03292 0.05152,0.0888 0.09227,0.108954 0.0051,0.0026 0.01174,-0.0026 0.01684,0 0.0025,0.0014 0,0.0051 0,0.0077 0,0.03368 0.01403,0.06685 0.0084,0.100789 -0.0022,0.01276 -0.02934,0.02041 -0.02526,0.02552 0.08084,0.09696 0.220229,0.181421 0.268447,0.302011 0.0051,0.01276 -0.0048,0.02883 0,0.04185 0.0056,0.01531 0.01914,0.02679 0.02526,0.0421 0.0031,0.0077 -0.01735,-0.0026 -0.02526,0 -0.01505,0.0077 -0.03041,0.01276 -0.04195,0.02552 -0.02886,0.02883 -0.01684,0.09926 -0.01684,0.134215 0,0.01021 0.0022,0.190862 0,0.192903 -0.0074,0.0077 -0.108545,0.0077 -0.125845,0 -0.0031,-0.0014 -0.05874,-0.151312 -0.05874,-0.151056 0,0.155649 0.07647,0.158711 0.03355,0.0077 -0.01225,-0.04312 -0.08234,0.167642 -0.0839,0.167642 -0.0056,0 0.0028,-0.01276 0,-0.01786 -0.01429,-0.02296 -0.03355,-0.04465 -0.05034,-0.06711 -0.03368,-0.04491 -0.07165,-0.06864 -0.117451,-0.100534 -0.01148,-0.0077 -0.02118,-0.01786 -0.03355,-0.02552 -0.01684,-0.0077 -0.02748,0.01276 -0.04195,0.01786 -0.02605,0.0077 -0.09186,-0.01021 -0.100661,-0.0077 -0.01378,0.0021 -0.02526,0.01276 -0.03355,0.02552 -0.01582,0.02041 -0.02271,0.140339 -0.03355,0.125795 -0.047,-0.06277 -0.08813,-0.129623 -0.134214,-0.192903 -0.02016,-0.02781 -0.03378,-0.04593 -0.02526,-0.05027 0.0074,-0.0026 0.07106,-0.0051 0.0755,0 0.03008,0.03011 0.02501,0.05027 0.06711,0.05027 0.0028,0 0.0071,0.0026 0.0084,0 0.01556,-0.03113 -0.01608,-0.03189 -0.02526,-0.05027 -0.0087,-0.01786 0.01046,-0.05129 0,-0.06711 -0.0019,-0.0026 -0.03424,-7.14e-4 -0.04195,-0.0077 -0.01812,-0.01786 -0.02169,-0.04236 -0.04195,-0.06711 -0.03057,-0.03751 -0.07374,-0.06864 -0.100661,-0.108955 -0.0071,-0.01021 0.02041,-0.0077 0.02526,-0.01786 0.0071,-0.01531 0.01531,-0.04874 0.02526,-0.05869 0.0094,-0.01021 0.03917,0.0077 0.03355,-0.02552 -0.0021,-0.01276 -0.01123,-0.02296 -0.01684,-0.03368 z"
         id="path197" />
    </g>
    <g
       id="g207"
       style="display:inline"
       transform="translate(47.894701,-10.468703)">
      <path
         style="fill:#ff0000;stroke:#ff0000;stroke-width:0.191103px;stroke-linecap:butt;stroke-linejoin:miter;stroke-opacity:1"
         d="m 23.986652,32.507423 c 0.561739,-0.468122 0.124901,-0.03572 0.66886,-1.051066 0.09806,-0.182951 0.238091,-0.341586 0.334432,-0.525532 0.07958,-0.151822 0.114388,-0.324337 0.191115,-0.477767 0.06718,-0.13447 0.171697,-0.247762 0.238881,-0.382208 0.210456,-0.42089 0.07532,-0.449647 0.238881,0.09543 0.01454,0.04823 0.03557,0.09441 0.04777,0.143402 0.0038,0.01531 -0.01505,0.04287 0,0.04772 0.172718,0.05767 0.350417,-0.05231 0.477758,-0.143401 0.06479,-0.04618 0.134801,-0.08701 0.191115,-0.143402 0.01123,-0.01021 -0.01123,-0.05894 0,-0.04772 0.100712,0.100789 0.10732,0.267002 0.191115,0.382208 0.06624,0.09109 0.167564,0.151822 0.238881,0.238832 0.153581,0.187799 0.293343,0.504992 0.525534,0.621091 0.02848,0.01531 0.06706,-0.01531 0.09556,0 0.01429,0.0077 0,0.03189 0,0.04772 0,0.192393 0.08002,0.379835 0.04777,0.573299 -0.0125,0.07502 -0.167181,0.114823 -0.143324,0.143402 0.460424,0.552503 1.25428,1.033561 1.528825,1.719922 0.02957,0.074 -0.02797,0.164325 0,0.238832 0.03261,0.08701 0.108826,0.152588 0.143323,0.238833 0.01786,0.0444 -0.09941,-0.01786 -0.143323,0 -0.08535,0.03649 -0.173229,0.07757 -0.238881,0.143401 -0.164349,0.164324 -0.09556,0.565389 -0.09556,0.764416 0,0.05869 0.01225,1.086481 0,1.098857 -0.04152,0.04159 -0.618091,0.04925 -0.716636,0 -0.01684,-0.0077 -0.334431,-0.86148 -0.334431,-0.859974 0,0.885949 0.435556,0.903377 0.191089,0.04772 -0.07024,-0.245977 -0.468908,0.955507 -0.477757,0.955507 -0.03184,0 0.01633,-0.06813 0,-0.09569 -0.08193,-0.136512 -0.191115,-0.254907 -0.286655,-0.382208 -0.191881,-0.255851 -0.408009,-0.390705 -0.66886,-0.573299 -0.06524,-0.04567 -0.119874,-0.107678 -0.191115,-0.143401 -0.09548,-0.04772 -0.156567,0.07502 -0.238881,0.09543 -0.148274,0.037 -0.523204,-0.05537 -0.57331,-0.04772 -0.07869,0.01276 -0.143324,0.07961 -0.191116,0.143402 -0.0901,0.120181 -0.128856,0.799653 -0.191089,0.716649 -0.267717,-0.356972 -0.501978,-0.738007 -0.764413,-1.098857 -0.114924,-0.157946 -0.192416,-0.262103 -0.143323,-0.28665 0.04141,-0.02041 0.404694,-0.02552 0.429981,0 0.171315,0.171214 0.143094,0.28665 0.382207,0.28665 0.01582,0 0.04065,0.01531 0.04777,0 0.08895,-0.177849 -0.09101,-0.181931 -0.143323,-0.28665 -0.04902,-0.09798 0.06022,-0.291906 0,-0.382208 -0.01123,-0.01786 -0.195019,-0.0051 -0.238882,-0.04771 -0.103416,-0.103341 -0.123523,-0.241129 -0.238881,-0.382208 -0.174147,-0.212806 -0.419948,-0.391062 -0.573307,-0.621091 -0.04021,-0.06022 0.1162,-0.04134 0.143324,-0.09569 0.04116,-0.08216 0.08688,-0.277974 0.143323,-0.334416 0.05338,-0.05333 0.22301,0.04823 0.191115,-0.143401 -0.01174,-0.07017 -0.06371,-0.127326 -0.09556,-0.191117 z"
         id="path201" />
      <path
         style="fill:#ff6600;stroke:#ff6600;stroke-width:0.119336px;stroke-linecap:butt;stroke-linejoin:miter;stroke-opacity:1"
         d="m 25.047099,32.945409 c 0.350785,-0.292314 0.078,-0.02296 0.417678,-0.656355 0.06124,-0.114312 0.148682,-0.213315 0.208849,-0.328164 0.04971,-0.09492 0.07145,-0.202599 0.119338,-0.298361 0.04195,-0.08395 0.107219,-0.154629 0.149167,-0.238577 0.131408,-0.262843 0.04703,-0.280781 0.149167,0.05971 0.0092,0.03011 0.0222,0.05894 0.02983,0.08956 0.0024,0.01021 -0.0094,0.02679 0,0.02985 0.107856,0.03598 0.218826,-0.03266 0.298339,-0.08956 0.04047,-0.02883 0.08418,-0.05435 0.119338,-0.08956 0.0069,-0.0051 -0.0069,-0.03674 0,-0.02985 0.0629,0.06302 0.06701,0.166621 0.119339,0.238577 0.04136,0.0569 0.104641,0.09492 0.149167,0.149014 0.09592,0.117375 0.18318,0.315356 0.328172,0.387847 0.01786,0.01021 0.04187,-0.01021 0.05968,0 0.0089,0.0051 0,0.02041 0,0.02985 0,0.120182 0.04996,0.237301 0.02983,0.357993 -0.0079,0.04695 -0.104386,0.0717 -0.08951,0.08956 0.287517,0.345006 0.783246,0.645408 0.954688,1.074005 0.01837,0.04618 -0.01735,0.102575 0,0.149015 0.02041,0.05435 0.06795,0.09543 0.08951,0.14927 0.01123,0.02781 -0.06208,-0.01021 -0.08951,0 -0.0533,0.02296 -0.108162,0.04848 -0.149167,0.08956 -0.102625,0.102575 -0.05968,0.353068 -0.05968,0.477332 0,0.03674 0.0077,0.678477 0,0.686209 -0.02592,0.02603 -0.385971,0.03062 -0.447508,0 -0.01046,-0.0051 -0.208849,-0.537959 -0.208849,-0.537041 0,0.553243 0.271986,0.564139 0.119339,0.02985 -0.04386,-0.153608 -0.292815,0.596672 -0.298342,0.596672 -0.0199,0 0.01021,-0.04261 0,-0.05971 -0.05116,-0.08522 -0.119338,-0.159221 -0.178995,-0.238577 -0.119823,-0.159732 -0.254777,-0.243935 -0.417674,-0.357993 -0.04075,-0.02858 -0.07486,-0.06736 -0.119339,-0.08956 -0.05963,-0.02985 -0.09778,0.04695 -0.149167,0.05971 -0.0926,0.02296 -0.32672,-0.0347 -0.358008,-0.02985 -0.04914,0.0077 -0.08951,0.04976 -0.119338,0.08956 -0.05626,0.07502 -0.08048,0.499353 -0.119339,0.44753 -0.167181,-0.223012 -0.313462,-0.460849 -0.477341,-0.686209 -0.07178,-0.09849 -0.120156,-0.163559 -0.08951,-0.178869 0.02587,-0.01276 0.252711,-0.01531 0.268506,0 0.106988,0.106913 0.08936,0.178869 0.238677,0.178869 0.01,0 0.02526,0.01021 0.02983,0 0.05555,-0.110995 -0.05682,-0.113547 -0.08951,-0.178869 -0.03062,-0.06124 0.03761,-0.182186 0,-0.238577 -0.0069,-0.01021 -0.121788,-0.0026 -0.149167,-0.02985 -0.06458,-0.06456 -0.07713,-0.150545 -0.149167,-0.238576 -0.108749,-0.13294 -0.262239,-0.244191 -0.358005,-0.387847 -0.02501,-0.03751 0.07257,-0.02577 0.08951,-0.05971 0.0257,-0.05129 0.05425,-0.173511 0.08951,-0.208723 0.03332,-0.03343 0.139267,0.03011 0.119339,-0.08956 -0.0074,-0.04389 -0.03978,-0.07961 -0.05968,-0.119416 z"
         id="path203" />
      <path
         style="fill:#ffff00;stroke:#ffff00;stroke-width:0.0335558px;stroke-linecap:butt;stroke-linejoin:miter;stroke-opacity:1"
         d="m 26.167642,33.483062 c 0.09864,-0.08216 0.02194,-0.0077 0.11745,-0.184483 0.0171,-0.03215 0.0418,-0.05996 0.05874,-0.09237 0.01403,-0.02679 0.02016,-0.0569 0.03355,-0.08395 0.01174,-0.02296 0.03016,-0.04338 0.04195,-0.06711 0.03695,-0.074 0.01327,-0.0791 0.04195,0.01786 0.0026,0.0077 0.0061,0.01531 0.0084,0.02552 6.71e-4,0.0026 -0.0026,0.0077 0,0.0077 0.03034,0.01021 0.06154,-0.01021 0.0839,-0.02552 0.01148,-0.0077 0.02373,-0.01531 0.03355,-0.02552 0.0019,-0.0015 -0.0019,-0.01021 0,-0.0077 0.01761,0.01786 0.01888,0.04695 0.03355,0.06711 0.01174,0.01531 0.02942,0.02679 0.04195,0.04185 0.02697,0.03292 0.05152,0.0888 0.09227,0.108954 0.0051,0.0026 0.01174,-0.0026 0.01684,0 0.0025,0.0014 0,0.0051 0,0.0077 0,0.03368 0.01403,0.06685 0.0084,0.100789 -0.0022,0.01276 -0.02934,0.02041 -0.02526,0.02552 0.08084,0.09696 0.220229,0.181421 0.268447,0.302011 0.0051,0.01276 -0.0048,0.02883 0,0.04185 0.0056,0.01531 0.01914,0.02679 0.02526,0.0421 0.0031,0.0077 -0.01735,-0.0026 -0.02526,0 -0.01505,0.0077 -0.03041,0.01276 -0.04195,0.02552 -0.02886,0.02883 -0.01684,0.09926 -0.01684,0.134215 0,0.01021 0.0022,0.190862 0,0.192903 -0.0074,0.0077 -0.108545,0.0077 -0.125845,0 -0.0031,-0.0014 -0.05874,-0.151312 -0.05874,-0.151056 0,0.155649 0.07647,0.158711 0.03355,0.0077 -0.01225,-0.04312 -0.08234,0.167642 -0.0839,0.167642 -0.0056,0 0.0028,-0.01276 0,-0.01786 -0.01429,-0.02296 -0.03355,-0.04465 -0.05034,-0.06711 -0.03368,-0.04491 -0.07165,-0.06864 -0.117451,-0.100534 -0.01148,-0.0077 -0.02118,-0.01786 -0.03355,-0.02552 -0.01684,-0.0077 -0.02748,0.01276 -0.04195,0.01786 -0.02605,0.0077 -0.09186,-0.01021 -0.100661,-0.0077 -0.01378,0.0021 -0.02526,0.01276 -0.03355,0.02552 -0.01582,0.02041 -0.02271,0.140339 -0.03355,0.125795 -0.047,-0.06277 -0.08813,-0.129623 -0.134214,-0.192903 -0.02016,-0.02781 -0.03378,-0.04593 -0.02526,-0.05027 0.0074,-0.0026 0.07106,-0.0051 0.0755,0 0.03008,0.03011 0.02501,0.05027 0.06711,0.05027 0.0028,0 0.0071,0.0026 0.0084,0 0.01556,-0.03113 -0.01608,-0.03189 -0.02526,-0.05027 -0.0087,-0.01786 0.01046,-0.05129 0,-0.06711 -0.0019,-0.0026 -0.03424,-7.14e-4 -0.04195,-0.0077 -0.01812,-0.01786 -0.02169,-0.04236 -0.04195,-0.06711 -0.03057,-0.03751 -0.07374,-0.06864 -0.100661,-0.108955 -0.0071,-0.01021 0.02041,-0.0077 0.02526,-0.01786 0.0071,-0.01531 0.01531,-0.04874 0.02526,-0.05869 0.0094,-0.01021 0.03917,0.0077 0.03355,-0.02552 -0.0021,-0.01276 -0.01123,-0.02296 -0.01684,-0.03368 z"
         id="path205" />
    </g>
  </g>
  <g
     inkscape:groupmode="layer"
     id="g421"
     inkscape:label="Sparks 4"
     style="display:inline"
     sodipodi:insensitive="true">
    <g
       id="g411"
       style="display:inline"
       transform="matrix(0,1,1,0,-6.7651201,-0.64334618)">
      <path
         style="fill:#ff0000;stroke:#ff0000;stroke-width:0.191103px;stroke-linecap:butt;stroke-linejoin:miter;stroke-opacity:1"
         d="m 23.986652,32.507423 c 0.561739,-0.468122 0.124901,-0.03572 0.66886,-1.051066 0.09806,-0.182951 0.238091,-0.341586 0.334432,-0.525532 0.07958,-0.151822 0.114388,-0.324337 0.191115,-0.477767 0.06718,-0.13447 0.171697,-0.247762 0.238881,-0.382208 0.210456,-0.42089 0.07532,-0.449647 0.238881,0.09543 0.01454,0.04823 0.03557,0.09441 0.04777,0.143402 0.0038,0.01531 -0.01505,0.04287 0,0.04772 0.172718,0.05767 0.350417,-0.05231 0.477758,-0.143401 0.06479,-0.04618 0.134801,-0.08701 0.191115,-0.143402 0.01123,-0.01021 -0.01123,-0.05894 0,-0.04772 0.100712,0.100789 0.10732,0.267002 0.191115,0.382208 0.06624,0.09109 0.167564,0.151822 0.238881,0.238832 0.153581,0.187799 0.293343,0.504992 0.525534,0.621091 0.02848,0.01531 0.06706,-0.01531 0.09556,0 0.01429,0.0077 0,0.03189 0,0.04772 0,0.192393 0.08002,0.379835 0.04777,0.573299 -0.0125,0.07502 -0.167181,0.114823 -0.143324,0.143402 0.460424,0.552503 1.25428,1.033561 1.528825,1.719922 0.02957,0.074 -0.02797,0.164325 0,0.238832 0.03261,0.08701 0.108826,0.152588 0.143323,0.238833 0.01786,0.0444 -0.09941,-0.01786 -0.143323,0 -0.08535,0.03649 -0.173229,0.07757 -0.238881,0.143401 -0.164349,0.164324 -0.09556,0.565389 -0.09556,0.764416 0,0.05869 0.01225,1.086481 0,1.098857 -0.04152,0.04159 -0.618091,0.04925 -0.716636,0 -0.01684,-0.0077 -0.334431,-0.86148 -0.334431,-0.859974 0,0.885949 0.435556,0.903377 0.191089,0.04772 -0.07024,-0.245977 -0.468908,0.955507 -0.477757,0.955507 -0.03184,0 0.01633,-0.06813 0,-0.09569 -0.08193,-0.136512 -0.191115,-0.254907 -0.286655,-0.382208 -0.191881,-0.255851 -0.408009,-0.390705 -0.66886,-0.573299 -0.06524,-0.04567 -0.119874,-0.107678 -0.191115,-0.143401 -0.09548,-0.04772 -0.156567,0.07502 -0.238881,0.09543 -0.148274,0.037 -0.523204,-0.05537 -0.57331,-0.04772 -0.07869,0.01276 -0.143324,0.07961 -0.191116,0.143402 -0.0901,0.120181 -0.128856,0.799653 -0.191089,0.716649 -0.267717,-0.356972 -0.501978,-0.738007 -0.764413,-1.098857 -0.114924,-0.157946 -0.192416,-0.262103 -0.143323,-0.28665 0.04141,-0.02041 0.404694,-0.02552 0.429981,0 0.171315,0.171214 0.143094,0.28665 0.382207,0.28665 0.01582,0 0.04065,0.01531 0.04777,0 0.08895,-0.177849 -0.09101,-0.181931 -0.143323,-0.28665 -0.04902,-0.09798 0.06022,-0.291906 0,-0.382208 -0.01123,-0.01786 -0.195019,-0.0051 -0.238882,-0.04771 -0.103416,-0.103341 -0.123523,-0.241129 -0.238881,-0.382208 -0.174147,-0.212806 -0.419948,-0.391062 -0.573307,-0.621091 -0.04021,-0.06022 0.1162,-0.04134 0.143324,-0.09569 0.04116,-0.08216 0.08688,-0.277974 0.143323,-0.334416 0.05338,-0.05333 0.22301,0.04823 0.191115,-0.143401 -0.01174,-0.07017 -0.06371,-0.127326 -0.09556,-0.191117 z"
         id="path405" />
      <path
         style="fill:#ff6600;stroke:#ff6600;stroke-width:0.119336px;stroke-linecap:butt;stroke-linejoin:miter;stroke-opacity:1"
         d="m 25.047099,32.945409 c 0.350785,-0.292314 0.078,-0.02296 0.417678,-0.656355 0.06124,-0.114312 0.148682,-0.213315 0.208849,-0.328164 0.04971,-0.09492 0.07145,-0.202599 0.119338,-0.298361 0.04195,-0.08395 0.107219,-0.154629 0.149167,-0.238577 0.131408,-0.262843 0.04703,-0.280781 0.149167,0.05971 0.0092,0.03011 0.0222,0.05894 0.02983,0.08956 0.0024,0.01021 -0.0094,0.02679 0,0.02985 0.107856,0.03598 0.218826,-0.03266 0.298339,-0.08956 0.04047,-0.02883 0.08418,-0.05435 0.119338,-0.08956 0.0069,-0.0051 -0.0069,-0.03674 0,-0.02985 0.0629,0.06302 0.06701,0.166621 0.119339,0.238577 0.04136,0.0569 0.104641,0.09492 0.149167,0.149014 0.09592,0.117375 0.18318,0.315356 0.328172,0.387847 0.01786,0.01021 0.04187,-0.01021 0.05968,0 0.0089,0.0051 0,0.02041 0,0.02985 0,0.120182 0.04996,0.237301 0.02983,0.357993 -0.0079,0.04695 -0.104386,0.0717 -0.08951,0.08956 0.287517,0.345006 0.783246,0.645408 0.954688,1.074005 0.01837,0.04618 -0.01735,0.102575 0,0.149015 0.02041,0.05435 0.06795,0.09543 0.08951,0.14927 0.01123,0.02781 -0.06208,-0.01021 -0.08951,0 -0.0533,0.02296 -0.108162,0.04848 -0.149167,0.08956 -0.102625,0.102575 -0.05968,0.353068 -0.05968,0.477332 0,0.03674 0.0077,0.678477 0,0.686209 -0.02592,0.02603 -0.385971,0.03062 -0.447508,0 -0.01046,-0.0051 -0.208849,-0.537959 -0.208849,-0.537041 0,0.553243 0.271986,0.564139 0.119339,0.02985 -0.04386,-0.153608 -0.292815,0.596672 -0.298342,0.596672 -0.0199,0 0.01021,-0.04261 0,-0.05971 -0.05116,-0.08522 -0.119338,-0.159221 -0.178995,-0.238577 -0.119823,-0.159732 -0.254777,-0.243935 -0.417674,-0.357993 -0.04075,-0.02858 -0.07486,-0.06736 -0.119339,-0.08956 -0.05963,-0.02985 -0.09778,0.04695 -0.149167,0.05971 -0.0926,0.02296 -0.32672,-0.0347 -0.358008,-0.02985 -0.04914,0.0077 -0.08951,0.04976 -0.119338,0.08956 -0.05626,0.07502 -0.08048,0.499353 -0.119339,0.44753 -0.167181,-0.223012 -0.313462,-0.460849 -0.477341,-0.686209 -0.07178,-0.09849 -0.120156,-0.163559 -0.08951,-0.178869 0.02587,-0.01276 0.252711,-0.01531 0.268506,0 0.106988,0.106913 0.08936,0.178869 0.238677,0.178869 0.01,0 0.02526,0.01021 0.02983,0 0.05555,-0.110995 -0.05682,-0.113547 -0.08951,-0.178869 -0.03062,-0.06124 0.03761,-0.182186 0,-0.238577 -0.0069,-0.01021 -0.121788,-0.0026 -0.149167,-0.02985 -0.06458,-0.06456 -0.07713,-0.150545 -0.149167,-0.238576 -0.108749,-0.13294 -0.262239,-0.244191 -0.358005,-0.387847 -0.02501,-0.03751 0.07257,-0.02577 0.08951,-0.05971 0.0257,-0.05129 0.05425,-0.173511 0.08951,-0.208723 0.03332,-0.03343 0.139267,0.03011 0.119339,-0.08956 -0.0074,-0.04389 -0.03978,-0.07961 -0.05968,-0.119416 z"
         id="path407" />
      <path
         style="fill:#ffff00;stroke:#ffff00;stroke-width:0.0335558px;stroke-linecap:butt;stroke-linejoin:miter;stroke-opacity:1"
         d="m 26.167642,33.483062 c 0.09864,-0.08216 0.02194,-0.0077 0.11745,-0.184483 0.0171,-0.03215 0.0418,-0.05996 0.05874,-0.09237 0.01403,-0.02679 0.02016,-0.0569 0.03355,-0.08395 0.01174,-0.02296 0.03016,-0.04338 0.04195,-0.06711 0.03695,-0.074 0.01327,-0.0791 0.04195,0.01786 0.0026,0.0077 0.0061,0.01531 0.0084,0.02552 6.71e-4,0.0026 -0.0026,0.0077 0,0.0077 0.03034,0.01021 0.06154,-0.01021 0.0839,-0.02552 0.01148,-0.0077 0.02373,-0.01531 0.03355,-0.02552 0.0019,-0.0015 -0.0019,-0.01021 0,-0.0077 0.01761,0.01786 0.01888,0.04695 0.03355,0.06711 0.01174,0.01531 0.02942,0.02679 0.04195,0.04185 0.02697,0.03292 0.05152,0.0888 0.09227,0.108954 0.0051,0.0026 0.01174,-0.0026 0.01684,0 0.0025,0.0014 0,0.0051 0,0.0077 0,0.03368 0.01403,0.06685 0.0084,0.100789 -0.0022,0.01276 -0.02934,0.02041 -0.02526,0.02552 0.08084,0.09696 0.220229,0.181421 0.268447,0.302011 0.0051,0.01276 -0.0048,0.02883 0,0.04185 0.0056,0.01531 0.01914,0.02679 0.02526,0.0421 0.0031,0.0077 -0.01735,-0.0026 -0.02526,0 -0.01505,0.0077 -0.03041,0.01276 -0.04195,0.02552 -0.02886,0.02883 -0.01684,0.09926 -0.01684,0.134215 0,0.01021 0.0022,0.190862 0,0.192903 -0.0074,0.0077 -0.108545,0.0077 -0.125845,0 -0.0031,-0.0014 -0.05874,-0.151312 -0.05874,-0.151056 0,0.155649 0.07647,0.158711 0.03355,0.0077 -0.01225,-0.04312 -0.08234,0.167642 -0.0839,0.167642 -0.0056,0 0.0028,-0.01276 0,-0.01786 -0.01429,-0.02296 -0.03355,-0.04465 -0.05034,-0.06711 -0.03368,-0.04491 -0.07165,-0.06864 -0.117451,-0.100534 -0.01148,-0.0077 -0.02118,-0.01786 -0.03355,-0.02552 -0.01684,-0.0077 -0.02748,0.01276 -0.04195,0.01786 -0.02605,0.0077 -0.09186,-0.01021 -0.100661,-0.0077 -0.01378,0.0021 -0.02526,0.01276 -0.03355,0.02552 -0.01582,0.02041 -0.02271,0.140339 -0.03355,0.125795 -0.047,-0.06277 -0.08813,-0.129623 -0.134214,-0.192903 -0.02016,-0.02781 -0.03378,-0.04593 -0.02526,-0.05027 0.0074,-0.0026 0.07106,-0.0051 0.0755,0 0.03008,0.03011 0.02501,0.05027 0.06711,0.05027 0.0028,0 0.0071,0.0026 0.0084,0 0.01556,-0.03113 -0.01608,-0.03189 -0.02526,-0.05027 -0.0087,-0.01786 0.01046,-0.05129 0,-0.06711 -0.0019,-0.0026 -0.03424,-7.14e-4 -0.04195,-0.0077 -0.01812,-0.01786 -0.02169,-0.04236 -0.04195,-0.06711 -0.03057,-0.03751 -0.07374,-0.06864 -0.100661,-0.108955 -0.0071,-0.01021 0.02041,-0.0077 0.02526,-0.01786 0.0071,-0.01531 0.01531,-0.04874 0.02526,-0.05869 0.0094,-0.01021 0.03917,0.0077 0.03355,-0.02552 -0.0021,-0.01276 -0.01123,-0.02296 -0.01684,-0.03368 z"
         id="path409" />
    </g>
    <g
       id="g419"
       style="display:inline"
       transform="rotate(90,56.806053,50.456502)">
      <path
         style="fill:#ff0000;stroke:#ff0000;stroke-width:0.191103px;stroke-linecap:butt;stroke-linejoin:miter;stroke-opacity:1"
         d="m 23.986652,32.507423 c 0.561739,-0.468122 0.124901,-0.03572 0.66886,-1.051066 0.09806,-0.182951 0.238091,-0.341586 0.334432,-0.525532 0.07958,-0.151822 0.114388,-0.324337 0.191115,-0.477767 0.06718,-0.13447 0.171697,-0.247762 0.238881,-0.382208 0.210456,-0.42089 0.07532,-0.449647 0.238881,0.09543 0.01454,0.04823 0.03557,0.09441 0.04777,0.143402 0.0038,0.01531 -0.01505,0.04287 0,0.04772 0.172718,0.05767 0.350417,-0.05231 0.477758,-0.143401 0.06479,-0.04618 0.134801,-0.08701 0.191115,-0.143402 0.01123,-0.01021 -0.01123,-0.05894 0,-0.04772 0.100712,0.100789 0.10732,0.267002 0.191115,0.382208 0.06624,0.09109 0.167564,0.151822 0.238881,0.238832 0.153581,0.187799 0.293343,0.504992 0.525534,0.621091 0.02848,0.01531 0.06706,-0.01531 0.09556,0 0.01429,0.0077 0,0.03189 0,0.04772 0,0.192393 0.08002,0.379835 0.04777,0.573299 -0.0125,0.07502 -0.167181,0.114823 -0.143324,0.143402 0.460424,0.552503 1.25428,1.033561 1.528825,1.719922 0.02957,0.074 -0.02797,0.164325 0,0.238832 0.03261,0.08701 0.108826,0.152588 0.143323,0.238833 0.01786,0.0444 -0.09941,-0.01786 -0.143323,0 -0.08535,0.03649 -0.173229,0.07757 -0.238881,0.143401 -0.164349,0.164324 -0.09556,0.565389 -0.09556,0.764416 0,0.05869 0.01225,1.086481 0,1.098857 -0.04152,0.04159 -0.618091,0.04925 -0.716636,0 -0.01684,-0.0077 -0.334431,-0.86148 -0.334431,-0.859974 0,0.885949 0.435556,0.903377 0.191089,0.04772 -0.07024,-0.245977 -0.468908,0.955507 -0.477757,0.955507 -0.03184,0 0.01633,-0.06813 0,-0.09569 -0.08193,-0.136512 -0.191115,-0.254907 -0.286655,-0.382208 -0.191881,-0.255851 -0.408009,-0.390705 -0.66886,-0.573299 -0.06524,-0.04567 -0.119874,-0.107678 -0.191115,-0.143401 -0.09548,-0.04772 -0.156567,0.07502 -0.238881,0.09543 -0.148274,0.037 -0.523204,-0.05537 -0.57331,-0.04772 -0.07869,0.01276 -0.143324,0.07961 -0.191116,0.143402 -0.0901,0.120181 -0.128856,0.799653 -0.191089,0.716649 -0.267717,-0.356972 -0.501978,-0.738007 -0.764413,-1.098857 -0.114924,-0.157946 -0.192416,-0.262103 -0.143323,-0.28665 0.04141,-0.02041 0.404694,-0.02552 0.429981,0 0.171315,0.171214 0.143094,0.28665 0.382207,0.28665 0.01582,0 0.04065,0.01531 0.04777,0 0.08895,-0.177849 -0.09101,-0.181931 -0.143323,-0.28665 -0.04902,-0.09798 0.06022,-0.291906 0,-0.382208 -0.01123,-0.01786 -0.195019,-0.0051 -0.238882,-0.04771 -0.103416,-0.103341 -0.123523,-0.241129 -0.238881,-0.382208 -0.174147,-0.212806 -0.419948,-0.391062 -0.573307,-0.621091 -0.04021,-0.06022 0.1162,-0.04134 0.143324,-0.09569 0.04116,-0.08216 0.08688,-0.277974 0.143323,-0.334416 0.05338,-0.05333 0.22301,0.04823 0.191115,-0.143401 -0.01174,-0.07017 -0.06371,-0.127326 -0.09556,-0.191117 z"
         id="path413" />
      <path
         style="fill:#ff6600;stroke:#ff6600;stroke-width:0.119336px;stroke-linecap:butt;stroke-linejoin:miter;stroke-opacity:1"
         d="m 25.047099,32.945409 c 0.350785,-0.292314 0.078,-0.02296 0.417678,-0.656355 0.06124,-0.114312 0.148682,-0.213315 0.208849,-0.328164 0.04971,-0.09492 0.07145,-0.202599 0.119338,-0.298361 0.04195,-0.08395 0.107219,-0.154629 0.149167,-0.238577 0.131408,-0.262843 0.04703,-0.280781 0.149167,0.05971 0.0092,0.03011 0.0222,0.05894 0.02983,0.08956 0.0024,0.01021 -0.0094,0.02679 0,0.02985 0.107856,0.03598 0.218826,-0.03266 0.298339,-0.08956 0.04047,-0.02883 0.08418,-0.05435 0.119338,-0.08956 0.0069,-0.0051 -0.0069,-0.03674 0,-0.02985 0.0629,0.06302 0.06701,0.166621 0.119339,0.238577 0.04136,0.0569 0.104641,0.09492 0.149167,0.149014 0.09592,0.117375 0.18318,0.315356 0.328172,0.387847 0.01786,0.01021 0.04187,-0.01021 0.05968,0 0.0089,0.0051 0,0.02041 0,0.02985 0,0.120182 0.04996,0.237301 0.02983,0.357993 -0.0079,0.04695 -0.104386,0.0717 -0.08951,0.08956 0.287517,0.345006 0.783246,0.645408 0.954688,1.074005 0.01837,0.04618 -0.01735,0.102575 0,0.149015 0.02041,0.05435 0.06795,0.09543 0.08951,0.14927 0.01123,0.02781 -0.06208,-0.01021 -0.08951,0 -0.0533,0.02296 -0.108162,0.04848 -0.149167,0.08956 -0.102625,0.102575 -0.05968,0.353068 -0.05968,0.477332 0,0.03674 0.0077,0.678477 0,0.686209 -0.02592,0.02603 -0.385971,0.03062 -0.447508,0 -0.01046,-0.0051 -0.208849,-0.537959 -0.208849,-0.537041 0,0.553243 0.271986,0.564139 0.119339,0.02985 -0.04386,-0.153608 -0.292815,0.596672 -0.298342,0.596672 -0.0199,0 0.01021,-0.04261 0,-0.05971 -0.05116,-0.08522 -0.119338,-0.159221 -0.178995,-0.238577 -0.119823,-0.159732 -0.254777,-0.243935 -0.417674,-0.357993 -0.04075,-0.02858 -0.07486,-0.06736 -0.119339,-0.08956 -0.05963,-0.02985 -0.09778,0.04695 -0.149167,0.05971 -0.0926,0.02296 -0.32672,-0.0347 -0.358008,-0.02985 -0.04914,0.0077 -0.08951,0.04976 -0.119338,0.08956 -0.05626,0.07502 -0.08048,0.499353 -0.119339,0.44753 -0.167181,-0.223012 -0.313462,-0.460849 -0.477341,-0.686209 -0.07178,-0.09849 -0.120156,-0.163559 -0.08951,-0.178869 0.02587,-0.01276 0.252711,-0.01531 0.268506,0 0.106988,0.106913 0.08936,0.178869 0.238677,0.178869 0.01,0 0.02526,0.01021 0.02983,0 0.05555,-0.110995 -0.05682,-0.113547 -0.08951,-0.178869 -0.03062,-0.06124 0.03761,-0.182186 0,-0.238577 -0.0069,-0.01021 -0.121788,-0.0026 -0.149167,-0.02985 -0.06458,-0.06456 -0.07713,-0.150545 -0.149167,-0.238576 -0.108749,-0.13294 -0.262239,-0.244191 -0.358005,-0.387847 -0.02501,-0.03751 0.07257,-0.02577 0.08951,-0.05971 0.0257,-0.05129 0.05425,-0.173511 0.08951,-0.208723 0.03332,-0.03343 0.139267,0.03011 0.119339,-0.08956 -0.0074,-0.04389 -0.03978,-0.07961 -0.05968,-0.119416 z"
         id="path415" />
      <path
         style="fill:#ffff00;stroke:#ffff00;stroke-width:0.0335558px;stroke-linecap:butt;stroke-linejoin:miter;stroke-opacity:1"
         d="m 26.167642,33.483062 c 0.09864,-0.08216 0.02194,-0.0077 0.11745,-0.184483 0.0171,-0.03215 0.0418,-0.05996 0.05874,-0.09237 0.01403,-0.02679 0.02016,-0.0569 0.03355,-0.08395 0.01174,-0.02296 0.03016,-0.04338 0.04195,-0.06711 0.03695,-0.074 0.01327,-0.0791 0.04195,0.01786 0.0026,0.0077 0.0061,0.01531 0.0084,0.02552 6.71e-4,0.0026 -0.0026,0.0077 0,0.0077 0.03034,0.01021 0.06154,-0.01021 0.0839,-0.02552 0.01148,-0.0077 0.02373,-0.01531 0.03355,-0.02552 0.0019,-0.0015 -0.0019,-0.01021 0,-0.0077 0.01761,0.01786 0.01888,0.04695 0.03355,0.06711 0.01174,0.01531 0.02942,0.02679 0.04195,0.04185 0.02697,0.03292 0.05152,0.0888 0.09227,0.108954 0.0051,0.0026 0.01174,-0.0026 0.01684,0 0.0025,0.0014 0,0.0051 0,0.0077 0,0.03368 0.01403,0.06685 0.0084,0.100789 -0.0022,0.01276 -0.02934,0.02041 -0.02526,0.02552 0.08084,0.09696 0.220229,0.181421 0.268447,0.302011 0.0051,0.01276 -0.0048,0.02883 0,0.04185 0.0056,0.01531 0.01914,0.02679 0.02526,0.0421 0.0031,0.0077 -0.01735,-0.0026 -0.02526,0 -0.01505,0.0077 -0.03041,0.01276 -0.04195,0.02552 -0.02886,0.02883 -0.01684,0.09926 -0.01684,0.134215 0,0.01021 0.0022,0.190862 0,0.192903 -0.0074,0.0077 -0.108545,0.0077 -0.125845,0 -0.0031,-0.0014 -0.05874,-0.151312 -0.05874,-0.151056 0,0.155649 0.07647,0.158711 0.03355,0.0077 -0.01225,-0.04312 -0.08234,0.167642 -0.0839,0.167642 -0.0056,0 0.0028,-0.01276 0,-0.01786 -0.01429,-0.02296 -0.03355,-0.04465 -0.05034,-0.06711 -0.03368,-0.04491 -0.07165,-0.06864 -0.117451,-0.100534 -0.01148,-0.0077 -0.02118,-0.01786 -0.03355,-0.02552 -0.01684,-0.0077 -0.02748,0.01276 -0.04195,0.01786 -0.02605,0.0077 -0.09186,-0.01021 -0.100661,-0.0077 -0.01378,0.0021 -0.02526,0.01276 -0.03355,0.02552 -0.01582,0.02041 -0.02271,0.140339 -0.03355,0.125795 -0.047,-0.06277 -0.08813,-0.129623 -0.134214,-0.192903 -0.02016,-0.02781 -0.03378,-0.04593 -0.02526,-0.05027 0.0074,-0.0026 0.07106,-0.0051 0.0755,0 0.03008,0.03011 0.02501,0.05027 0.06711,0.05027 0.0028,0 0.0071,0.0026 0.0084,0 0.01556,-0.03113 -0.01608,-0.03189 -0.02526,-0.05027 -0.0087,-0.01786 0.01046,-0.05129 0,-0.06711 -0.0019,-0.0026 -0.03424,-7.14e-4 -0.04195,-0.0077 -0.01812,-0.01786 -0.02169,-0.04236 -0.04195,-0.06711 -0.03057,-0.03751 -0.07374,-0.06864 -0.100661,-0.108955 -0.0071,-0.01021 0.02041,-0.0077 0.02526,-0.01786 0.0071,-0.01531 0.01531,-0.04874 0.02526,-0.05869 0.0094,-0.01021 0.03917,0.0077 0.03355,-0.02552 -0.0021,-0.01276 -0.01123,-0.02296 -0.01684,-0.03368 z"
         id="path417" />
    </g>
  </g>
</svg>
