<?xml version="1.0" encoding="UTF-8" standalone="no"?>
<svg
   xmlns:dc="http://purl.org/dc/elements/1.1/"
   xmlns:cc="http://creativecommons.org/ns#"
   xmlns:rdf="http://www.w3.org/1999/02/22-rdf-syntax-ns#"
   xmlns:svg="http://www.w3.org/2000/svg"
   xmlns="http://www.w3.org/2000/svg"
   xmlns:sodipodi="http://sodipodi.sourceforge.net/DTD/sodipodi-0.dtd"
   xmlns:inkscape="http://www.inkscape.org/namespaces/inkscape"
   width="100mm"
   height="100mm"
   viewBox="0 0 100 100"
   version="1.1"
   id="svg8"
   inkscape:version="1.0.2 (e86c870879, 2021-01-15, custom)"
   sodipodi:docname="Fir.svg">
  <defs
     id="defs2" />
  <sodipodi:namedview
     id="base"
     pagecolor="#ffffff"
     bordercolor="#666666"
     borderopacity="1.0"
     inkscape:pageopacity="0.0"
     inkscape:pageshadow="2"
     inkscape:zoom="2"
     inkscape:cx="136.50464"
     inkscape:cy="218.57118"
     inkscape:document-units="mm"
     inkscape:current-layer="g22"
     inkscape:document-rotation="0"
     showgrid="false"
     inkscape:window-width="1920"
     inkscape:window-height="1001"
     inkscape:window-x="-9"
     inkscape:window-y="-9"
     inkscape:window-maximized="1" />
  <metadata
     id="metadata5">
    <rdf:RDF>
      <cc:Work
         rdf:about="">
        <dc:format>image/svg+xml</dc:format>
        <dc:type
           rdf:resource="http://purl.org/dc/dcmitype/StillImage" />
        <dc:title></dc:title>
      </cc:Work>
    </rdf:RDF>
  </metadata>
  <g
     inkscape:label="Ebene 1"
     inkscape:groupmode="layer"
     id="layer1">
    <g
       id="g78">
      <g
         id="g22"
         transform="matrix(3.5327121,0,0,3.5327396,-79.061045,-358.83584)">
        <g
           id="g59"
           transform="matrix(1.6591586,0,0,1.6591586,-20.045513,-71.21001)">
          <g
             id="g46"
             style="stroke:#008000">
            <g
               id="g38"
               style="stroke:#008000">
              <path
                 style="fill:none;stroke:#008000;stroke-width:0.0562838px;stroke-linecap:butt;stroke-linejoin:miter;stroke-opacity:1"
                 d="m 34.100807,104.52635 c -0.666128,2.09931 -1.782794,3.90826 -3.57134,5.28424 l 1.944161,-0.0374 c -1.372528,3.63452 -2.587771,3.92674 -3.824926,4.6846 h 2.070955 c 0.22767,0.93809 -0.29325,2.06209 -3.256107,3.66592"
                 id="path24"
                 sodipodi:nodetypes="cccccc" />
              <path
                 style="fill:none;stroke:#008000;stroke-width:0.0562838px;stroke-linecap:butt;stroke-linejoin:miter;stroke-opacity:1"
                 d="m 34.100807,104.52635 c 0.666128,2.09931 1.782794,3.90826 3.57134,5.28424 l -1.944161,-0.0374 c 1.372528,3.63452 2.587771,3.92674 3.824926,4.6846 h -2.070955 c -0.22767,0.93809 0.29325,2.06209 3.256107,3.66592"
                 id="path34"
                 sodipodi:nodetypes="cccccc" />
            </g>
            <path
               style="fill:none;stroke:#008000;stroke-width:0.0748949px;stroke-linecap:butt;stroke-linejoin:miter;stroke-opacity:1"
               d="M 27.463549,118.12371 H 40.738063"
               id="path40" />
          </g>
          <rect
             style="fill:#784421;fill-opacity:1;fill-rule:evenodd;stroke:#000000;stroke-width:0.0748949;stroke-opacity:0"
             id="rect50"
             width="2.2904739"
             height="3.2834284"
             x="32.956665"
             y="117.50166" />
          <path
             style="fill:#008000;fill-rule:evenodd;stroke:#008000;stroke-width:0.25"
             d="m 70.295098,220.33832 c 0,-0.0515 1.546875,-0.96986 3.4375,-2.04085 15.79334,-8.94648 27.573462,-18.23471 33.395952,-26.33156 4.55589,-6.33551 6.22957,-12.97323 4.8776,-19.34425 l -0.25152,-1.18527 -12.917267,-0.0647 -12.917265,-0.0647 4.482066,-2.58475 c 10.083186,-5.81483 13.251646,-8.11724 18.783626,-13.64942 7.98975,-7.99003 13.88342,-17.20772 20.79021,-32.51583 1.32087,-2.92756 5.57161,-13.45583 5.47267,-13.55476 -0.0373,-0.0373 -5.60996,0.0525 -12.38377,0.19956 -6.77381,0.14702 -12.36107,0.22226 -12.41614,0.16719 -0.0551,-0.0551 0.65846,-0.70737 1.58561,-1.44957 3.04802,-2.43999 8.13375,-7.11254 11.17209,-10.264441 13.76301,-14.277418 23.76225,-30.741578 31.41312,-51.722983 0.92757,-2.54375 1.74955,-4.45625 1.82661,-4.25 0.0771,0.20625 0.74625,2.0625 1.48709,4.125 6.5966,18.36502 15.28221,33.502628 26.88322,46.853068 3.52771,4.05968 10.49215,10.892886 14.48417,14.211226 l 3.08056,2.56071 -1.70556,-0.006 c -0.93807,-0.003 -6.53491,-0.11432 -12.43743,-0.24731 -5.90253,-0.13299 -10.77531,-0.19835 -10.82842,-0.14525 -0.0531,0.0531 0.76772,2.26546 1.82404,4.91635 7.58815,19.04272 15.3148,32.15336 24.23533,41.12266 4.66401,4.68952 8.99141,7.88086 16.87591,12.44552 2.26875,1.31347 4.6875,2.72755 5.375,3.1424 l 1.25,0.75427 -12.92787,0.008 -12.92786,0.008 -0.31119,1.0625 c -0.18032,0.61565 -0.31505,2.53445 -0.32034,4.5625 -0.01,3.80841 0.23517,5.10063 1.62678,8.57602 3.93722,9.83272 16.13126,20.68065 36.23548,32.23542 2.26875,1.30395 4.17187,2.41419 4.22917,2.46719 0.0573,0.053 -38.72709,0.0964 -86.1875,0.0964 -47.46042,0 -86.291672,-0.0421 -86.291672,-0.0936 z"
             id="path48"
             transform="matrix(0.07489524,0,0,0.07489466,22.379702,101.57438)" />
        </g>
      </g>
    </g>
  </g>
</svg>
