<?xml version="1.0" encoding="UTF-8" standalone="no"?>
<svg
   xmlns:dc="http://purl.org/dc/elements/1.1/"
   xmlns:cc="http://creativecommons.org/ns#"
   xmlns:rdf="http://www.w3.org/1999/02/22-rdf-syntax-ns#"
   xmlns:svg="http://www.w3.org/2000/svg"
   xmlns="http://www.w3.org/2000/svg"
   xmlns:sodipodi="http://sodipodi.sourceforge.net/DTD/sodipodi-0.dtd"
   xmlns:inkscape="http://www.inkscape.org/namespaces/inkscape"
   width="100mm"
   height="100mm"
   viewBox="0 0 100 100"
   version="1.1"
   id="svg8"
   inkscape:version="1.0.2 (e86c870879, 2021-01-15, custom)"
   sodipodi:docname="BottleLargeEnergydrink.svg">
  <defs
     id="defs2" />
  <sodipodi:namedview
     id="base"
     pagecolor="#ffffff"
     bordercolor="#666666"
     borderopacity="1.0"
     inkscape:pageopacity="0.0"
     inkscape:pageshadow="2"
     inkscape:zoom="1.4"
     inkscape:cx="190.86819"
     inkscape:cy="231.95034"
     inkscape:document-units="mm"
     inkscape:current-layer="g22"
     inkscape:document-rotation="0"
     showgrid="false"
     inkscape:window-width="1920"
     inkscape:window-height="1001"
     inkscape:window-x="-9"
     inkscape:window-y="-9"
     inkscape:window-maximized="1" />
  <metadata
     id="metadata5">
    <rdf:RDF>
      <cc:Work
         rdf:about="">
        <dc:format>image/svg+xml</dc:format>
        <dc:type
           rdf:resource="http://purl.org/dc/dcmitype/StillImage" />
        <dc:title></dc:title>
      </cc:Work>
    </rdf:RDF>
  </metadata>
  <g
     inkscape:label="Ebene 1"
     inkscape:groupmode="layer"
     id="layer1">
    <g
       id="g78">
      <g
         id="g22"
         transform="matrix(3.5327121,0,0,3.5327396,-79.061045,-358.83584)">
        <g
           id="g21"
           transform="matrix(1.6433771,0,0,1.6433771,-9.539495,-67.547841)">
          <rect
             style="fill:#803300;fill-rule:evenodd;stroke-width:0.0748949"
             id="rect48"
             width="1.6878996"
             height="1.1785346"
             x="27.218388"
             y="103.57887" />
          <path
             style="fill:none;stroke:#000000;stroke-width:0.0855508px;stroke-linecap:butt;stroke-linejoin:miter;stroke-opacity:1"
             d="m 28.852284,103.57887 c 0,0 0.0802,1.74611 0.02673,4.19069 -0.05347,2.44457 2.325662,1.46675 2.379126,3.63194 0.05347,2.16519 -0.989076,8.06709 -0.989076,8.06709"
             id="path40" />
          <path
             style="fill:none;stroke:#000000;stroke-width:0.0855508px;stroke-linecap:butt;stroke-linejoin:miter;stroke-opacity:1"
             d="m 27.218388,103.57887 c 0,0 -0.0802,1.74611 -0.02673,4.19069 0.05347,2.44457 -2.325662,1.46675 -2.379126,3.63194 -0.05347,2.16519 0.989076,8.06709 0.989076,8.06709"
             id="path42" />
          <path
             style="fill:none;stroke:#000000;stroke-width:0.0748949px;stroke-linecap:butt;stroke-linejoin:miter;stroke-opacity:1"
             d="m 25.801608,119.46859 h 4.467455"
             id="path44" />
          <path
             style="fill:none;stroke:#000000;stroke-width:0.0748949px;stroke-linecap:butt;stroke-linejoin:miter;stroke-opacity:1"
             d="m 27.218387,103.57887 h 1.633896"
             id="path46" />
          <path
             style="fill:#00ff00;fill-rule:evenodd;stroke-width:0.357143"
             d="m 46.293093,237.69476 c -0.306371,-1.02347 -3.993704,-23.73671 -5.725486,-35.26785 -4.860521,-32.36398 -7.08206,-53.20663 -7.13747,-66.96429 -0.03646,-9.05282 0.236134,-10.94682 2.106846,-14.63849 2.234237,-4.40906 4.872522,-6.6704 13.760131,-11.79416 9.363474,-5.3981 12.97983,-9.51978 14.889514,-16.970073 0.579658,-2.261435 0.627199,-4.11375 0.517646,-20.168703 -0.06635,-9.723214 -0.0091,-20.290178 0.127305,-23.482143 l 0.247936,-5.803571 h 10.497694 10.497697 l 0.06196,6.517857 c 0.03407,3.584822 0.07426,14.3125 0.08929,23.839286 0.02693,17.074249 0.03915,17.359614 0.856182,19.997456 1.323921,4.274357 2.782553,6.684818 5.944735,9.823971 2.083175,2.068 3.961947,3.48569 6.802254,5.13287 2.158283,1.25164 5.196983,3.0195 6.752653,3.92857 5.43124,3.17376 8.93986,7.61717 10.47041,13.25999 1.2819,4.72611 0.71544,19.28143 -1.53587,39.46428 -1.97388,17.69565 -8.3145,60.93631 -10.53945,71.875 l -0.38138,1.875 H 75.537938 c -27.364685,0 -29.068656,-0.0364 -29.244845,-0.625 z"
             id="path50"
             transform="matrix(0.07489524,0,0,0.07489466,22.379702,101.57438)" />
        </g>
      </g>
    </g>
  </g>
</svg>
