<?xml version="1.0" encoding="UTF-8" standalone="no"?>
<svg
   xmlns:dc="http://purl.org/dc/elements/1.1/"
   xmlns:cc="http://creativecommons.org/ns#"
   xmlns:rdf="http://www.w3.org/1999/02/22-rdf-syntax-ns#"
   xmlns:svg="http://www.w3.org/2000/svg"
   xmlns="http://www.w3.org/2000/svg"
   xmlns:sodipodi="http://sodipodi.sourceforge.net/DTD/sodipodi-0.dtd"
   xmlns:inkscape="http://www.inkscape.org/namespaces/inkscape"
   width="100mm"
   height="100mm"
   viewBox="0 0 100 100"
   version="1.1"
   id="svg8"
   inkscape:version="1.0.2 (e86c870879, 2021-01-15, custom)"
   sodipodi:docname="Bow.svg">
  <defs
     id="defs2" />
  <sodipodi:namedview
     id="base"
     pagecolor="#ffffff"
     bordercolor="#666666"
     borderopacity="1.0"
     inkscape:pageopacity="0.0"
     inkscape:pageshadow="2"
     inkscape:zoom="1"
     inkscape:cx="481.93884"
     inkscape:cy="313.25095"
     inkscape:document-units="mm"
     inkscape:current-layer="layer1"
     inkscape:document-rotation="0"
     showgrid="false"
     inkscape:window-width="1920"
     inkscape:window-height="1001"
     inkscape:window-x="-9"
     inkscape:window-y="-9"
     inkscape:window-maximized="1" />
  <metadata
     id="metadata5">
    <rdf:RDF>
      <cc:Work
         rdf:about="">
        <dc:format>image/svg+xml</dc:format>
        <dc:type
           rdf:resource="http://purl.org/dc/dcmitype/StillImage" />
        <dc:title></dc:title>
      </cc:Work>
    </rdf:RDF>
  </metadata>
  <g
     inkscape:label="Ebene 1"
     inkscape:groupmode="layer"
     id="layer1">
    <path
       style="fill:none;fill-rule:evenodd;stroke-width:0.505076"
       d="m 105.70612,394.71089 c 0,-0.69448 0.11464,-0.97859 0.25475,-0.63135 0.14012,0.34724 0.14012,0.91545 0,1.26269 -0.14011,0.34724 -0.25475,0.0631 -0.25475,-0.63134 z"
       id="path58"
       transform="scale(0.26458333)" />
    <path
       style="fill:none;fill-rule:evenodd;stroke-width:0.505076"
       d="m 105.70612,394.71089 c 0,-0.69448 0.11464,-0.97859 0.25475,-0.63135 0.14012,0.34724 0.14012,0.91545 0,1.26269 -0.14011,0.34724 -0.25475,0.0631 -0.25475,-0.63134 z"
       id="path60"
       transform="scale(0.26458333)" />
    <path
       style="fill:none;fill-rule:evenodd;stroke-width:0.505076"
       d="m 105.70612,394.71089 c 0,-0.69448 0.11464,-0.97859 0.25475,-0.63135 0.14012,0.34724 0.14012,0.91545 0,1.26269 -0.14011,0.34724 -0.25475,0.0631 -0.25475,-0.63134 z"
       id="path62"
       transform="scale(0.26458333)" />
    <path
       style="fill:none;fill-rule:evenodd;stroke-width:0.505076"
       d="m 105.70612,394.71089 c 0,-0.69448 0.11464,-0.97859 0.25475,-0.63135 0.14012,0.34724 0.14012,0.91545 0,1.26269 -0.14011,0.34724 -0.25475,0.0631 -0.25475,-0.63134 z"
       id="path64"
       transform="scale(0.26458333)" />
    <path
       style="fill:#552200;fill-rule:evenodd;stroke-width:0.505076"
       d="m 105.70612,394.71089 c 0,-0.69448 0.11464,-0.97859 0.25475,-0.63135 0.14012,0.34724 0.14012,0.91545 0,1.26269 -0.14011,0.34724 -0.25475,0.0631 -0.25475,-0.63134 z"
       id="path66"
       transform="scale(0.26458333)" />
    <path
       style="fill:#552200;fill-rule:evenodd;stroke-width:0.505076"
       d="m 107.68655,435.83252 c 0.0242,-0.58839 0.14391,-0.70807 0.30515,-0.30515 0.1459,0.3646 0.12796,0.80023 -0.0399,0.96806 -0.16783,0.16783 -0.2872,-0.13048 -0.26527,-0.66291 z"
       id="path68"
       transform="scale(0.26458333)" />
    <path
       style="fill:#552200;fill-rule:evenodd;stroke-width:0.505076"
       d=""
       id="path70"
       transform="scale(0.26458333)" />
    <path
       style="fill:#552200;fill-rule:evenodd;stroke-width:0.505076"
       d=""
       id="path72"
       transform="scale(0.26458333)" />
    <path
       style="fill:#552200;fill-rule:evenodd;stroke-width:0.505076"
       d=""
       id="path74"
       transform="scale(0.26458333)" />
    <path
       style="fill:#552200;fill-rule:evenodd;stroke-width:0.505076"
       d=""
       id="path76"
       transform="scale(0.26458333)" />
    <path
       style="fill:#552200;fill-rule:evenodd;stroke-width:0.505076"
       d=""
       id="path78"
       transform="scale(0.26458333)" />
    <path
       style="fill:#552200;fill-rule:evenodd;stroke-width:0.505076"
       d=""
       id="path80"
       transform="scale(0.26458333)" />
    <g
       id="g846"
       transform="matrix(1.6911367,0,0,1.3604985,-68.650347,-60.885898)">
      <path
         id="path94"
         style="fill:#552200;stroke:#552200;stroke-width:0.264583px;stroke-linecap:butt;stroke-linejoin:miter;stroke-opacity:1"
         d="m 47.603812,53.960012 -0.177766,0.158131 C 56.989919,87.929175 73.329138,102.16565 92.231579,108.91428 68.824257,99.199203 55.438762,79.425263 47.603812,53.960012 Z m 44.627767,54.954268 c 0.154012,0.0639 0.310719,0.12506 0.465603,0.1881 7.94e-4,-7.9e-4 0.0013,-0.002 0.0021,-0.003 0.0056,-0.007 0.01429,-0.0106 0.02223,-0.015 -0.163213,-0.057 -0.327054,-0.11239 -0.489892,-0.17053 z" />
      <path
         style="fill:#d38d5f;stroke:#d38d5f;stroke-width:0.264583px;stroke-linecap:butt;stroke-linejoin:miter;stroke-opacity:1"
         d="m 47.426046,54.118142 45.295465,54.966238 -0.02434,0.018 z"
         id="path152" />
    </g>
  </g>
</svg>
