<?xml version="1.0" encoding="UTF-8" standalone="no"?>
<svg
   xmlns:dc="http://purl.org/dc/elements/1.1/"
   xmlns:cc="http://creativecommons.org/ns#"
   xmlns:rdf="http://www.w3.org/1999/02/22-rdf-syntax-ns#"
   xmlns:svg="http://www.w3.org/2000/svg"
   xmlns="http://www.w3.org/2000/svg"
   xmlns:sodipodi="http://sodipodi.sourceforge.net/DTD/sodipodi-0.dtd"
   xmlns:inkscape="http://www.inkscape.org/namespaces/inkscape"
   width="100mm"
   height="100mm"
   viewBox="0 0 100 100"
   version="1.1"
   id="svg8"
   inkscape:version="1.0.2 (e86c870879, 2021-01-15, custom)"
   sodipodi:docname="BowBroken.svg">
  <defs
     id="defs2" />
  <sodipodi:namedview
     id="base"
     pagecolor="#ffffff"
     bordercolor="#666666"
     borderopacity="1.0"
     inkscape:pageopacity="0.0"
     inkscape:pageshadow="2"
     inkscape:zoom="2.56"
     inkscape:cx="285.39317"
     inkscape:cy="173.41065"
     inkscape:document-units="mm"
     inkscape:current-layer="layer1"
     inkscape:document-rotation="0"
     showgrid="false"
     inkscape:window-width="1920"
     inkscape:window-height="1001"
     inkscape:window-x="-9"
     inkscape:window-y="-9"
     inkscape:window-maximized="1" />
  <metadata
     id="metadata5">
    <rdf:RDF>
      <cc:Work
         rdf:about="">
        <dc:format>image/svg+xml</dc:format>
        <dc:type
           rdf:resource="http://purl.org/dc/dcmitype/StillImage" />
        <dc:title></dc:title>
      </cc:Work>
    </rdf:RDF>
  </metadata>
  <g
     inkscape:label="Ebene 1"
     inkscape:groupmode="layer"
     id="layer1">
    <path
       style="fill:none;fill-rule:evenodd;stroke-width:0.505076"
       d="m 105.70612,394.71089 c 0,-0.69448 0.11464,-0.97859 0.25475,-0.63135 0.14012,0.34724 0.14012,0.91545 0,1.26269 -0.14011,0.34724 -0.25475,0.0631 -0.25475,-0.63134 z"
       id="path58"
       transform="scale(0.26458333)" />
    <path
       style="fill:none;fill-rule:evenodd;stroke-width:0.505076"
       d="m 105.70612,394.71089 c 0,-0.69448 0.11464,-0.97859 0.25475,-0.63135 0.14012,0.34724 0.14012,0.91545 0,1.26269 -0.14011,0.34724 -0.25475,0.0631 -0.25475,-0.63134 z"
       id="path60"
       transform="scale(0.26458333)" />
    <path
       style="fill:none;fill-rule:evenodd;stroke-width:0.505076"
       d="m 105.70612,394.71089 c 0,-0.69448 0.11464,-0.97859 0.25475,-0.63135 0.14012,0.34724 0.14012,0.91545 0,1.26269 -0.14011,0.34724 -0.25475,0.0631 -0.25475,-0.63134 z"
       id="path62"
       transform="scale(0.26458333)" />
    <path
       style="fill:none;fill-rule:evenodd;stroke-width:0.505076"
       d="m 105.70612,394.71089 c 0,-0.69448 0.11464,-0.97859 0.25475,-0.63135 0.14012,0.34724 0.14012,0.91545 0,1.26269 -0.14011,0.34724 -0.25475,0.0631 -0.25475,-0.63134 z"
       id="path64"
       transform="scale(0.26458333)" />
    <path
       style="fill:#552200;fill-rule:evenodd;stroke-width:0.505076"
       d="m 105.70612,394.71089 c 0,-0.69448 0.11464,-0.97859 0.25475,-0.63135 0.14012,0.34724 0.14012,0.91545 0,1.26269 -0.14011,0.34724 -0.25475,0.0631 -0.25475,-0.63134 z"
       id="path66"
       transform="scale(0.26458333)" />
    <path
       style="fill:#552200;fill-rule:evenodd;stroke-width:0.505076"
       d="m 107.68655,435.83252 c 0.0242,-0.58839 0.14391,-0.70807 0.30515,-0.30515 0.1459,0.3646 0.12796,0.80023 -0.0399,0.96806 -0.16783,0.16783 -0.2872,-0.13048 -0.26527,-0.66291 z"
       id="path68"
       transform="scale(0.26458333)" />
    <path
       style="fill:#552200;fill-rule:evenodd;stroke-width:0.505076"
       d=""
       id="path70"
       transform="scale(0.26458333)" />
    <path
       style="fill:#552200;fill-rule:evenodd;stroke-width:0.505076"
       d=""
       id="path72"
       transform="scale(0.26458333)" />
    <path
       style="fill:#552200;fill-rule:evenodd;stroke-width:0.505076"
       d=""
       id="path74"
       transform="scale(0.26458333)" />
    <path
       style="fill:#552200;fill-rule:evenodd;stroke-width:0.505076"
       d=""
       id="path76"
       transform="scale(0.26458333)" />
    <path
       style="fill:#552200;fill-rule:evenodd;stroke-width:0.505076"
       d=""
       id="path78"
       transform="scale(0.26458333)" />
    <path
       style="fill:#552200;fill-rule:evenodd;stroke-width:0.505076"
       d=""
       id="path80"
       transform="scale(0.26458333)" />
    <g
       id="g846"
       transform="matrix(1.6911367,0,0,1.3604985,-68.650347,-60.885898)">
      <path
         id="path94"
         style="fill:#552200;stroke:#552200;stroke-width:1.51683px;stroke-linecap:butt;stroke-linejoin:miter;stroke-opacity:1"
         transform="matrix(0.15645295,0,0,0.19447528,40.594203,44.752639)"
         d="m 44.802734,47.34375 -1.134765,0.814453 C 73.2097,132.17768 112.87643,192.66426 159.60742,236.68359 c -0.004,-0.0688 -0.009,-0.13171 0.0488,-0.60351 0.0307,-0.25108 0.0867,-0.49898 0.13086,-0.74805 0.2667,-0.31909 0.50567,-0.66536 0.79687,-0.96094 0.17636,-0.39743 0.58284,-0.51261 1.03125,-0.51562 0.23115,-0.002 0.46896,0.022 0.6875,0.0469 0.15506,0.0207 0.31691,0.0177 0.4668,0.0625 0.45211,0.13508 0.76706,0.49541 1,0.9043 0.91665,-0.10682 1.0458,-0.2049 0.97461,0.17383 0.004,1.6e-4 0.006,-1.7e-4 0.01,0 -0.005,0.0742 -0.0195,0.14855 -0.0293,0.22265 -0.002,0.25969 -0.007,0.045 0.043,0.44141 0.0213,0.16753 0.0368,0.34146 0.0547,0.51367 0.13087,0.14852 0.27094,0.28834 0.39648,0.44141 0.14232,-0.0392 0.30752,-0.0704 0.51758,-0.10352 0.16259,0.004 0.3246,0.0408 0.48633,0.0234 0.0632,-0.007 0.12128,-0.0786 0.18164,-0.0586 1.28791,0.42536 1.46225,0.25372 1.39258,1.2207 -0.0325,0.20314 -0.0821,0.62957 -0.17579,0.85352 0.23223,0.36904 0.24079,0.83536 0.13086,1.42968 -0.0748,0.27653 -0.19679,0.91627 -0.36718,1.28711 0.1418,0.57171 0.24085,1.15444 0.2207,1.76367 0.008,0.37084 0.0271,0.65722 -0.0215,0.91407 48.12842,42.72044 103.33153,68.94475 162.4668,85.92969 C 180.43871,279.96701 94.881316,178.28713 44.802734,47.34375 Z M 330.05078,329.92188 c 0.9844,0.32806 1.98659,0.64264 2.97656,0.96679 0.005,-0.004 0.007,-0.0105 0.0117,-0.0156 0.0358,-0.036 0.0918,-0.0535 0.14258,-0.0762 -1.04321,-0.2931 -2.09005,-0.578 -3.13086,-0.87696 z M 166.04883,237.34766 c -0.001,0.0424 -0.003,0.13019 -0.002,0.13086 l 0.002,0.002 c 0.002,-0.16145 10e-4,-0.17403 0,-0.13281 z" />
      <path
         id="path152"
         style="fill:#d38d5f;stroke:#d38d5f;stroke-width:1.51683px;stroke-linecap:butt;stroke-linejoin:miter;stroke-opacity:1"
         transform="matrix(0.15645295,0,0,0.19447528,40.594203,44.752639)"
         d="M 43.667969,48.158203 171.91797,173.46875 c 0.0189,-0.0168 0.0357,-0.0361 0.0547,-0.0527 z m 189.689451,185.343747 99.66992,97.38672 0.1543,-0.0918 -99.66211,-97.29493 c -0.054,-4.6e-4 -0.10815,4.1e-4 -0.16211,0 z" />
    </g>
    <path
       sodipodi:type="spiral"
       style="fill:none;fill-rule:evenodd;stroke:#d38d5f;stroke-width:0.264583;stroke-opacity:1"
       id="path1472"
       sodipodi:cx="45.501099"
       sodipodi:cy="45.882996"
       sodipodi:expansion="1"
       sodipodi:revolution="1.961115"
       sodipodi:radius="1.3823625"
       sodipodi:argument="-49.226704"
       sodipodi:t0="0"
       d="m 45.501099,45.882996 c 0.05378,0.09137 -0.09663,0.117579 -0.151865,0.08939 -0.14968,-0.07638 -0.122536,-0.286411 -0.02692,-0.393123 0.171034,-0.190882 0.473659,-0.140069 0.63438,0.03555 0.235864,0.257733 0.158835,0.663707 -0.09803,0.875638 -0.342355,0.282471 -0.85478,0.17817 -1.116895,-0.160498 -0.329845,-0.426179 -0.197806,-1.046351 0.222971,-1.358153 0.509617,-0.377634 1.238204,-0.217619 1.59941,0.285444 0.34945,0.486689 0.292977,1.164429 -0.09447,1.612039"
       transform="matrix(-0.24274097,2.004134,-1.6125743,-0.19531521,132.36141,-38.094188)" />
    <path
       sodipodi:type="spiral"
       style="fill:none;fill-rule:evenodd;stroke:#d38d5f;stroke-width:0.264583;stroke-opacity:1"
       id="path1474"
       sodipodi:cx="45.501099"
       sodipodi:cy="45.882996"
       sodipodi:expansion="1"
       sodipodi:revolution="1.961115"
       sodipodi:radius="1.3823625"
       sodipodi:argument="-49.226704"
       sodipodi:t0="0"
       d="m 45.501099,45.882996 c 0.05378,0.09137 -0.09663,0.117579 -0.151865,0.08939 -0.14968,-0.07638 -0.122536,-0.286411 -0.02692,-0.393123 0.171034,-0.190882 0.473659,-0.140069 0.63438,0.03555 0.235864,0.257733 0.158835,0.663707 -0.09803,0.875638 -0.342355,0.282471 -0.85478,0.17817 -1.116895,-0.160498 -0.329845,-0.426179 -0.197806,-1.046351 0.222971,-1.358153 0.509617,-0.377634 1.238204,-0.217619 1.59941,0.285444 0.34945,0.486689 0.292977,1.164429 -0.09447,1.612039"
       transform="matrix(-2.004134,0.24274097,0.19531521,1.6125743,145.71967,-25.079582)" />
  </g>
</svg>
