<?xml version="1.0" encoding="UTF-8" standalone="no"?>
<svg
   xmlns:dc="http://purl.org/dc/elements/1.1/"
   xmlns:cc="http://creativecommons.org/ns#"
   xmlns:rdf="http://www.w3.org/1999/02/22-rdf-syntax-ns#"
   xmlns:svg="http://www.w3.org/2000/svg"
   xmlns="http://www.w3.org/2000/svg"
   xmlns:sodipodi="http://sodipodi.sourceforge.net/DTD/sodipodi-0.dtd"
   xmlns:inkscape="http://www.inkscape.org/namespaces/inkscape"
   width="100mm"
   height="100mm"
   viewBox="0 0 100 100"
   version="1.1"
   id="svg8"
   inkscape:version="1.0.2 (e86c870879, 2021-01-15, custom)"
   sodipodi:docname="Divingfins.svg">
  <defs
     id="defs2" />
  <sodipodi:namedview
     id="base"
     pagecolor="#ffffff"
     bordercolor="#666666"
     borderopacity="1.0"
     inkscape:pageopacity="0.0"
     inkscape:pageshadow="2"
     inkscape:zoom="1"
     inkscape:cx="81.518678"
     inkscape:cy="255.49115"
     inkscape:document-units="mm"
     inkscape:current-layer="g22"
     inkscape:document-rotation="0"
     showgrid="false"
     inkscape:window-width="1920"
     inkscape:window-height="1001"
     inkscape:window-x="-9"
     inkscape:window-y="-9"
     inkscape:window-maximized="1" />
  <metadata
     id="metadata5">
    <rdf:RDF>
      <cc:Work
         rdf:about="">
        <dc:format>image/svg+xml</dc:format>
        <dc:type
           rdf:resource="http://purl.org/dc/dcmitype/StillImage" />
        <dc:title></dc:title>
      </cc:Work>
    </rdf:RDF>
  </metadata>
  <g
     inkscape:label="Ebene 1"
     inkscape:groupmode="layer"
     id="layer1">
    <g
       id="g78">
      <g
         id="g22"
         transform="matrix(3.5327121,0,0,3.5327396,-79.061045,-358.83584)">
        <g
           id="g3710"
           transform="matrix(1.5846763,0,0,1.5846763,-16.36327,-64.644529)">
          <g
             id="g3652">
            <path
               style="fill:#2ad4ff;fill-rule:evenodd;stroke:#00ccff;stroke-width:0.0264793;stroke-opacity:1"
               d="m 24.958061,121.23559 c 0.0079,-0.0619 0.280162,-2.91413 0.605075,-6.33831 l 0.59075,-6.22578 0.05558,0.17527 c 0.105776,0.33356 0.24225,0.55246 0.514674,0.82551 0.217243,0.21774 0.287583,0.2701 0.504032,0.37519 0.346311,0.16815 0.552891,0.21576 0.926781,0.21361 0.218457,-0.001 0.361653,-0.017 0.506702,-0.0559 0.663977,-0.17769 1.201282,-0.6823 1.414949,-1.32883 l 0.04813,-0.14564 0.587668,6.16967 c 0.323217,3.39332 0.594101,6.23222 0.601964,6.30868 l 0.0143,0.13902 h -3.192462 -3.192462 z"
               id="path3581" />
            <g
               id="g3557"
               transform="matrix(0.99850773,0,0,1.7536091,0.04198843,-81.558386)">
              <path
                 style="fill:none;stroke:#00ccff;stroke-width:0.0748949px;stroke-linecap:butt;stroke-linejoin:miter;stroke-opacity:1"
                 d="m 26.143188,108.22128 -1.254495,7.50819"
                 id="path3548" />
              <path
                 style="fill:none;stroke:#00ccff;stroke-width:0.0748949px;stroke-linecap:butt;stroke-linejoin:miter;stroke-opacity:1"
                 d="m 26.143188,108.22128 -1.254495,7.50819"
                 id="path3550" />
              <path
                 style="fill:none;stroke:#00ccff;stroke-width:0.0748949px;stroke-linecap:butt;stroke-linejoin:miter;stroke-opacity:1"
                 d="m 30.131363,108.22128 1.254495,7.50819"
                 id="path3552" />
            </g>
            <g
               id="g3567" />
            <ellipse
               style="fill:#2ad4ff;fill-rule:evenodd;stroke:#00aad4;stroke-width:0.0748949;stroke-opacity:1"
               id="path3546"
               cx="28.147169"
               cy="108.24113"
               rx="1.9814805"
               ry="1.981465" />
            <path
               style="fill:none;stroke:#00ccff;stroke-width:0.0748949px;stroke-linecap:butt;stroke-linejoin:miter;stroke-opacity:1"
               d="m 24.89354,121.38586 h 6.48747"
               id="path3559" />
            <path
               style="fill:none;stroke:#00abd5;stroke-width:0.0763139px;stroke-linecap:butt;stroke-linejoin:miter;stroke-opacity:0.972549"
               d="m 26.630008,109.50624 -1.1796,11.87778"
               id="path3601" />
            <path
               style="fill:none;stroke:#00abd5;stroke-width:0.0761231px;stroke-linecap:butt;stroke-linejoin:miter;stroke-opacity:0.972549"
               d="m 29.644538,109.56558 1.1796,11.81844"
               id="path3603" />
            <path
               style="fill:none;stroke:#00abd5;stroke-width:0.0736858px;stroke-linecap:butt;stroke-linejoin:miter;stroke-opacity:0.972549"
               d="m 28.133701,110.26229 7.52e-4,11.13102"
               id="path3605" />
            <path
               style="fill:none;stroke:#00abd5;stroke-width:0.0745499px;stroke-linecap:butt;stroke-linejoin:miter;stroke-opacity:0.972549"
               d="m 28.865717,110.03203 0.640172,11.37804"
               id="path3607" />
            <path
               style="fill:none;stroke:#00abd5;stroke-width:0.0746182px;stroke-linecap:butt;stroke-linejoin:miter;stroke-opacity:0.972549"
               d="m 27.316146,109.94498 -0.640172,11.39889"
               id="path3623" />
          </g>
          <g
             id="g3680"
             transform="translate(10.485334)">
            <path
               style="fill:#2ad4ff;fill-rule:evenodd;stroke:#00ccff;stroke-width:0.0264793;stroke-opacity:1"
               d="m 24.958061,121.23559 c 0.0079,-0.0619 0.280162,-2.91413 0.605075,-6.33831 l 0.59075,-6.22578 0.05558,0.17527 c 0.105776,0.33356 0.24225,0.55246 0.514674,0.82551 0.217243,0.21774 0.287583,0.2701 0.504032,0.37519 0.346311,0.16815 0.552891,0.21576 0.926781,0.21361 0.218457,-0.001 0.361653,-0.017 0.506702,-0.0559 0.663977,-0.17769 1.201282,-0.6823 1.414949,-1.32883 l 0.04813,-0.14564 0.587668,6.16967 c 0.323217,3.39332 0.594101,6.23222 0.601964,6.30868 l 0.0143,0.13902 h -3.192462 -3.192462 z"
               id="path3654" />
            <g
               id="g3662"
               transform="matrix(0.99850773,0,0,1.7536091,0.04198843,-81.558386)">
              <path
                 style="fill:none;stroke:#00ccff;stroke-width:0.0748949px;stroke-linecap:butt;stroke-linejoin:miter;stroke-opacity:1"
                 d="m 26.143188,108.22128 -1.254495,7.50819"
                 id="path3656" />
              <path
                 style="fill:none;stroke:#00ccff;stroke-width:0.0748949px;stroke-linecap:butt;stroke-linejoin:miter;stroke-opacity:1"
                 d="m 26.143188,108.22128 -1.254495,7.50819"
                 id="path3658" />
              <path
                 style="fill:none;stroke:#00ccff;stroke-width:0.0748949px;stroke-linecap:butt;stroke-linejoin:miter;stroke-opacity:1"
                 d="m 30.131363,108.22128 1.254495,7.50819"
                 id="path3660" />
            </g>
            <g
               id="g3664" />
            <ellipse
               style="fill:#2ad4ff;fill-rule:evenodd;stroke:#00aad4;stroke-width:0.0748949;stroke-opacity:1"
               id="ellipse3666"
               cx="28.147169"
               cy="108.24113"
               rx="1.9814805"
               ry="1.981465" />
            <path
               style="fill:none;stroke:#00ccff;stroke-width:0.0748949px;stroke-linecap:butt;stroke-linejoin:miter;stroke-opacity:1"
               d="m 24.89354,121.38586 h 6.48747"
               id="path3668" />
            <path
               style="fill:none;stroke:#00abd5;stroke-width:0.0763139px;stroke-linecap:butt;stroke-linejoin:miter;stroke-opacity:0.972549"
               d="m 26.630008,109.50624 -1.1796,11.87778"
               id="path3670" />
            <path
               style="fill:none;stroke:#00abd5;stroke-width:0.0761231px;stroke-linecap:butt;stroke-linejoin:miter;stroke-opacity:0.972549"
               d="m 29.644538,109.56558 1.1796,11.81844"
               id="path3672" />
            <path
               style="fill:none;stroke:#00abd5;stroke-width:0.0736858px;stroke-linecap:butt;stroke-linejoin:miter;stroke-opacity:0.972549"
               d="m 28.133701,110.26229 7.52e-4,11.13102"
               id="path3674" />
            <path
               style="fill:none;stroke:#00abd5;stroke-width:0.0745499px;stroke-linecap:butt;stroke-linejoin:miter;stroke-opacity:0.972549"
               d="m 28.865717,110.03203 0.640172,11.37804"
               id="path3676" />
            <path
               style="fill:none;stroke:#00abd5;stroke-width:0.0746182px;stroke-linecap:butt;stroke-linejoin:miter;stroke-opacity:0.972549"
               d="m 27.316146,109.94498 -0.640172,11.39889"
               id="path3678" />
          </g>
        </g>
      </g>
    </g>
  </g>
</svg>
