<?xml version="1.0" encoding="UTF-8" standalone="no"?>
<svg
   xmlns:dc="http://purl.org/dc/elements/1.1/"
   xmlns:cc="http://creativecommons.org/ns#"
   xmlns:rdf="http://www.w3.org/1999/02/22-rdf-syntax-ns#"
   xmlns:svg="http://www.w3.org/2000/svg"
   xmlns="http://www.w3.org/2000/svg"
   xmlns:sodipodi="http://sodipodi.sourceforge.net/DTD/sodipodi-0.dtd"
   xmlns:inkscape="http://www.inkscape.org/namespaces/inkscape"
   width="100mm"
   height="100mm"
   viewBox="0 0 100 100"
   version="1.1"
   id="svg8"
   inkscape:version="1.0.2 (e86c870879, 2021-01-15, custom)"
   sodipodi:docname="Key.svg">
  <defs
     id="defs2" />
  <sodipodi:namedview
     id="base"
     pagecolor="#ffffff"
     bordercolor="#666666"
     borderopacity="1.0"
     inkscape:pageopacity="0.0"
     inkscape:pageshadow="2"
     inkscape:zoom="0.98994949"
     inkscape:cx="-12.33236"
     inkscape:cy="166.1132"
     inkscape:document-units="mm"
     inkscape:current-layer="g22"
     inkscape:document-rotation="0"
     showgrid="false"
     inkscape:window-width="1920"
     inkscape:window-height="1001"
     inkscape:window-x="-9"
     inkscape:window-y="-9"
     inkscape:window-maximized="1" />
  <metadata
     id="metadata5">
    <rdf:RDF>
      <cc:Work
         rdf:about="">
        <dc:format>image/svg+xml</dc:format>
        <dc:type
           rdf:resource="http://purl.org/dc/dcmitype/StillImage" />
        <dc:title />
      </cc:Work>
    </rdf:RDF>
  </metadata>
  <g
     inkscape:label="Ebene 1"
     inkscape:groupmode="layer"
     id="layer1">
    <g
       id="g78">
      <g
         id="g22"
         transform="matrix(3.5327121,0,0,3.5327396,-79.061045,-358.83584)">
        <g
           id="g923">
          <ellipse
             style="fill:none;fill-rule:evenodd;stroke:#ffcc00;stroke-width:0.210711"
             id="path847"
             cx="36.635506"
             cy="107.96253"
             rx="5.574821"
             ry="5.574779" />
          <rect
             style="fill:#ffcc00;fill-opacity:1;fill-rule:evenodd;stroke:#ffcc00;stroke-width:0.229844;stroke-opacity:1"
             id="rect855"
             width="3.2559047"
             height="15.794878"
             x="34.693676"
             y="113.2632" />
          <rect
             style="fill:#ffcc00;fill-opacity:1;fill-rule:evenodd;stroke:#ffcc00;stroke-width:0.210714;stroke-opacity:1"
             id="rect883"
             width="3.4588816"
             height="2.0220997"
             x="38.039768"
             y="119.5438" />
          <rect
             style="fill:#ffcc00;fill-opacity:1;fill-rule:evenodd;stroke:#ffcc00;stroke-width:0.210714;stroke-opacity:1"
             id="rect885"
             width="3.6185222"
             height="1.809247"
             x="38.092991"
             y="124.8651" />
          <rect
             style="fill:#ffcc00;fill-opacity:1;fill-rule:evenodd;stroke:#ffcc00;stroke-width:0.210714;stroke-opacity:1"
             id="rect887"
             width="3.6717358"
             height="2.5542312"
             x="30.855942"
             y="121.72555" />
          <ellipse
             style="fill:none;fill-rule:evenodd;stroke:#ffcc00;stroke-width:0.19738"
             id="ellipse851"
             cx="36.687691"
             cy="107.94819"
             rx="5.2221227"
             ry="5.2220831" />
          <path
             style="fill:none;fill-rule:evenodd;stroke:#ffcc00;stroke-width:0.505076"
             d=""
             id="path853"
             transform="matrix(0.07489524,0,0,0.07489466,22.379702,101.57438)" />
          <path
             style="fill:#ffcc00;fill-rule:evenodd;stroke:#ffcc00;stroke-width:0.037839"
             d="m 38.086532,113.15712 c -0.01371,-0.0222 -0.0026,-0.0478 0.02478,-0.057 0.02734,-0.009 0.185975,-0.0623 0.352518,-0.11814 0.773782,-0.25933 1.530427,-0.75644 2.13681,-1.40387 1.659062,-1.77138 1.899392,-4.50159 0.574085,-6.52179 -0.832772,-1.26941 -2.042388,-2.07667 -3.543609,-2.3649 -0.463971,-0.0891 -1.387583,-0.0896 -1.873606,-10e-4 -2.239155,0.40783 -3.974225,2.17195 -4.337842,4.41049 -0.07125,0.43861 -0.06746,1.30195 0.0076,1.74479 0.128872,0.75982 0.467391,1.57691 0.912701,2.203 0.288649,0.40583 0.858044,0.97157 1.269145,1.26101 0.382242,0.26912 0.894309,0.5315 1.353485,0.69353 l 0.321731,0.11353 -0.266775,-0.01 c -0.240361,-0.009 -0.313435,-0.0329 -0.738086,-0.24176 -0.576242,-0.28345 -1.029057,-0.60105 -1.450011,-1.01704 -0.816616,-0.80698 -1.339773,-1.79362 -1.563356,-2.94838 -0.09812,-0.50675 -0.08913,-1.46576 0.01847,-1.97096 0.24046,-1.12903 0.712572,-2.00911 1.500332,-2.79682 0.785311,-0.78527 1.693118,-1.27983 2.783309,-1.5163 0.455442,-0.0988 1.661671,-0.1003 2.114895,-0.003 1.297641,0.27961 2.392377,0.93786 3.171743,1.9071 0.641158,0.79737 1.014087,1.63589 1.173164,2.63783 0.08009,0.50442 0.05116,1.48774 -0.0575,1.95474 -0.25717,1.10523 -0.799692,2.0584 -1.5997,2.81053 -0.516921,0.48598 -1.058462,0.83356 -1.702373,1.09263 -0.392992,0.15811 -0.548296,0.19586 -0.581956,0.14143 z"
             id="path855" />
          <path
             style="fill:none;fill-rule:evenodd;stroke:#ffcc00;stroke-width:0.505076"
             d=""
             id="path857"
             transform="matrix(0.07489524,0,0,0.07489466,22.379702,101.57438)" />
          <path
             style="fill:#ffcc00;fill-rule:evenodd;stroke:#ffcc00;stroke-width:0.0157836"
             d=""
             id="path875"
             transform="matrix(0.07489524,0,0,0.07489466,22.379702,101.57438)" />
          <path
             style="fill:#ffcc00;fill-rule:evenodd;stroke:#ffcc00;stroke-width:0.0157836"
             d=""
             id="path877"
             transform="matrix(0.07489524,0,0,0.07489466,22.379702,101.57438)" />
          <path
             style="fill:#ffcc00;fill-rule:evenodd;stroke:#ffcc00;stroke-width:0.0157836"
             d=""
             id="path879"
             transform="matrix(0.07489524,0,0,0.07489466,22.379702,101.57438)" />
          <path
             style="fill:#ffcc00;fill-rule:evenodd;stroke:#ffcc00;stroke-width:0.0157836"
             d=""
             id="path881"
             transform="matrix(0.07489524,0,0,0.07489466,22.379702,101.57438)" />
          <path
             style="fill:#ffcc00;fill-rule:evenodd;stroke:#ffcc00;stroke-width:0.0157836"
             d=""
             id="path883"
             transform="matrix(0.07489524,0,0,0.07489466,22.379702,101.57438)" />
          <path
             style="fill:#ffcc00;fill-rule:evenodd;stroke:#ffcc00;stroke-width:0.0157836"
             d=""
             id="path885"
             transform="matrix(0.07489524,0,0,0.07489466,22.379702,101.57438)" />
          <path
             style="fill:#ffcc00;fill-rule:evenodd;stroke:#ffcc00;stroke-width:0.0157836"
             d=""
             id="path887"
             transform="matrix(0.07489524,0,0,0.07489466,22.379702,101.57438)" />
          <path
             style="fill:#ffcc00;fill-rule:evenodd;stroke:#ffcc00;stroke-width:0.0157836"
             d=""
             id="path889"
             transform="matrix(0.07489524,0,0,0.07489466,22.379702,101.57438)" />
          <ellipse
             style="fill:none;fill-rule:evenodd;stroke:#ffcc00;stroke-width:0.0805542"
             id="path891"
             cx="36.707657"
             cy="107.98548"
             rx="5.4802561"
             ry="5.4802136" />
          <rect
             style="fill:#ffcc00;fill-rule:evenodd;stroke:#ffcc00;stroke-width:0.0748949"
             id="rect893"
             width="0.48112243"
             height="0.28607059"
             x="34.781315"
             y="112.92382" />
          <rect
             style="fill:#ffcc00;fill-rule:evenodd;stroke:#ffcc00;stroke-width:0.0748949"
             id="rect895"
             width="0.026006619"
             height="0.010638989"
             x="35.625347"
             y="113.17324" />
          <rect
             style="fill:#ffcc00;fill-rule:evenodd;stroke:#ffcc00;stroke-width:0.0748949"
             id="rect897"
             width="0.34636089"
             height="0.15249217"
             x="35.280167"
             y="113.07513" />
          <rect
             style="fill:#ffcc00;fill-rule:evenodd;stroke:#ffcc00;stroke-width:0.0748949"
             id="rect899"
             width="0.60288072"
             height="0.1193931"
             x="37.786259"
             y="113.09877" />
        </g>
      </g>
    </g>
  </g>
</svg>
