<?xml version="1.0" encoding="UTF-8" standalone="no"?>
<svg
   xmlns:dc="http://purl.org/dc/elements/1.1/"
   xmlns:cc="http://creativecommons.org/ns#"
   xmlns:rdf="http://www.w3.org/1999/02/22-rdf-syntax-ns#"
   xmlns:svg="http://www.w3.org/2000/svg"
   xmlns="http://www.w3.org/2000/svg"
   xmlns:sodipodi="http://sodipodi.sourceforge.net/DTD/sodipodi-0.dtd"
   xmlns:inkscape="http://www.inkscape.org/namespaces/inkscape"
   width="100mm"
   height="100mm"
   viewBox="0 0 100 100"
   version="1.1"
   id="svg8"
   inkscape:version="1.0.2 (e86c870879, 2021-01-15, custom)"
   sodipodi:docname="Stairsdown.svg">
  <defs
     id="defs2" />
  <sodipodi:namedview
     id="base"
     pagecolor="#ffffff"
     bordercolor="#666666"
     borderopacity="1.0"
     inkscape:pageopacity="0.0"
     inkscape:pageshadow="2"
     inkscape:zoom="0.24748738"
     inkscape:cx="474.8101"
     inkscape:cy="-26.707531"
     inkscape:document-units="mm"
     inkscape:current-layer="g22"
     inkscape:document-rotation="0"
     showgrid="false"
     inkscape:window-width="1920"
     inkscape:window-height="1001"
     inkscape:window-x="-9"
     inkscape:window-y="-9"
     inkscape:window-maximized="1" />
  <metadata
     id="metadata5">
    <rdf:RDF>
      <cc:Work
         rdf:about="">
        <dc:format>image/svg+xml</dc:format>
        <dc:type
           rdf:resource="http://purl.org/dc/dcmitype/StillImage" />
        <dc:title></dc:title>
      </cc:Work>
    </rdf:RDF>
  </metadata>
  <g
     inkscape:label="Ebene 1"
     inkscape:groupmode="layer"
     id="layer1">
    <g
       id="g78">
      <g
         id="g22"
         transform="matrix(3.5327121,0,0,3.5327396,-79.061045,-358.83584)">
        <path
           style="fill:none;stroke:#000000;stroke-width:0.0748949px;stroke-linecap:butt;stroke-linejoin:miter;stroke-opacity:1"
           d="M 26.873416,105.05163 Z"
           id="path24" />
        <ellipse
           style="fill:#999999;fill-rule:evenodd;stroke:none;stroke-width:0.0759304"
           id="ellipse114"
           cx="36.533134"
           cy="115.12852"
           rx="10.859787"
           ry="10.859702" />
        <ellipse
           style="fill:#241c1c;fill-rule:evenodd;stroke-width:0.0759304;stroke:#241c1c"
           id="path26"
           cx="36.533134"
           cy="115.72771"
           rx="10.859787"
           ry="10.859702" />
        <path
           id="path30"
           style="fill:#aa4400;stroke:none;stroke-width:1.18692px;stroke-linecap:butt;stroke-linejoin:miter;stroke-opacity:1"
           d="M 86.8125 98.933594 L 117.21875 314.97656 A 144.99969 144.99968 0 0 0 133.8125 323.07227 L 244.14062 323.07227 A 144.99969 144.99968 0 0 0 258.83594 316.03711 L 290 98.935547 L 271.31836 98.935547 L 269.66211 113.07422 L 107.11719 113.07422 L 105.49219 98.935547 L 86.8125 98.933594 z M 108.26562 123.07227 L 268.49023 123.07227 L 264.97656 153.07227 L 111.71094 153.07227 L 108.26562 123.07227 z M 112.85938 163.07227 L 263.80469 163.07227 L 260.29102 193.07227 L 116.30469 193.07227 L 112.85938 163.07227 z M 117.45508 203.07227 L 259.11914 203.07227 L 255.60547 233.07227 L 120.90039 233.07227 L 117.45508 203.07227 z M 122.04883 243.07227 L 254.43359 243.07227 L 250.91992 273.07227 L 125.49414 273.07227 L 122.04883 243.07227 z M 126.64453 283.07227 L 249.74805 283.07227 L 246.23242 313.07227 L 130.08984 313.07227 L 126.64453 283.07227 z M 145.16797 327.19922 A 144.99969 144.99968 0 0 0 145.33008 327.25195 L 188.40625 327.47266 L 145.16797 327.19922 z "
           transform="matrix(0.07489524,0,0,0.07489466,22.379702,101.57438)" />
      </g>
    </g>
  </g>
</svg>
