<?xml version="1.0" encoding="UTF-8" standalone="no"?>
<svg
   xmlns:dc="http://purl.org/dc/elements/1.1/"
   xmlns:cc="http://creativecommons.org/ns#"
   xmlns:rdf="http://www.w3.org/1999/02/22-rdf-syntax-ns#"
   xmlns:svg="http://www.w3.org/2000/svg"
   xmlns="http://www.w3.org/2000/svg"
   xmlns:sodipodi="http://sodipodi.sourceforge.net/DTD/sodipodi-0.dtd"
   xmlns:inkscape="http://www.inkscape.org/namespaces/inkscape"
   width="100mm"
   height="100mm"
   viewBox="0 0 100 100"
   version="1.1"
   id="svg8"
   inkscape:version="1.0.2 (e86c870879, 2021-01-15, custom)"
   sodipodi:docname="WarmSea4.svg">
  <defs
     id="defs2" />
  <sodipodi:namedview
     id="base"
     pagecolor="#ffffff"
     bordercolor="#666666"
     borderopacity="1.0"
     inkscape:pageopacity="0.0"
     inkscape:pageshadow="2"
     inkscape:zoom="1.4142136"
     inkscape:cx="195.63218"
     inkscape:cy="203.42476"
     inkscape:document-units="mm"
     inkscape:current-layer="g22"
     inkscape:document-rotation="0"
     showgrid="false"
     inkscape:window-width="1920"
     inkscape:window-height="1001"
     inkscape:window-x="-9"
     inkscape:window-y="-9"
     inkscape:window-maximized="1" />
  <metadata
     id="metadata5">
    <rdf:RDF>
      <cc:Work
         rdf:about="">
        <dc:format>image/svg+xml</dc:format>
        <dc:type
           rdf:resource="http://purl.org/dc/dcmitype/StillImage" />
        <dc:title></dc:title>
      </cc:Work>
    </rdf:RDF>
  </metadata>
  <g
     inkscape:label="Ebene 1"
     inkscape:groupmode="layer"
     id="layer1">
    <g
       id="g78">
      <g
         id="g22"
         transform="matrix(3.5327121,0,0,3.5327396,-79.061045,-358.83584)">
        <rect
           style="fill:#00ffcc;fill-rule:evenodd;stroke:#00ffcc;stroke-width:0.0748949;stroke-opacity:1"
           id="rect847"
           width="28.306864"
           height="28.306643"
           x="22.326742"
           y="101.62734" />
        <g
           id="g855"
           style="fill:none;stroke:#00d4aa"
           transform="translate(0,10.485252)">
          <path
             style="fill:none;stroke:#00d4aa;stroke-width:0.0722757px;stroke-linecap:butt;stroke-linejoin:miter;stroke-opacity:1"
             d="m 22.346986,103.90512 c 3.548236,0.106 5.551851,-4.343999 7.266383,-1.58945 3.991765,0.90099 3.029679,1.53493 6.926561,1.27145"
             id="path849"
             sodipodi:nodetypes="ccc" />
          <path
             style="fill:none;stroke:#00d4aa;stroke-width:0.0722757px;stroke-linecap:butt;stroke-linejoin:miter;stroke-opacity:1"
             d="m 36.53993,103.58712 c 3.548236,0.106 1.950643,1.5344 7.319342,-7e-4 4.2036,1.16579 4.353652,-3.655004 6.873602,-0.3173"
             id="path851"
             sodipodi:nodetypes="ccc" />
        </g>
        <g
           id="g861"
           style="fill:none;stroke:#00d4aa"
           transform="translate(0,13.481038)">
          <path
             style="fill:none;stroke:#00d4aa;stroke-width:0.0722757px;stroke-linecap:butt;stroke-linejoin:miter;stroke-opacity:1"
             d="m 22.029232,104.64654 c 1.535797,1.11221 3.274617,-1.90791 7.266383,-1.00691 5.368697,-0.68776 3.400392,-1.7485 7.244315,-0.0525"
             id="path857"
             sodipodi:nodetypes="ccc" />
          <path
             style="fill:none;stroke:#00d4aa;stroke-width:0.0722757px;stroke-linecap:butt;stroke-linejoin:miter;stroke-opacity:1"
             d="m 36.53993,103.58712 c 3.548236,1.21813 4.439713,-2.43749 6.948629,-0.90099 3.356258,3.12525 3.718146,-1.96034 7.244315,0.58299"
             id="path859"
             sodipodi:nodetypes="ccc" />
        </g>
        <g
           id="g867"
           style="fill:none;stroke:#00d4aa"
           transform="translate(0,16.476824)">
          <path
             style="fill:none;stroke:#00d4aa;stroke-width:0.0722757px;stroke-linecap:butt;stroke-linejoin:miter;stroke-opacity:1"
             d="m 22.346986,103.90512 c 3.548236,0.106 2.956863,-1.80199 6.948629,-0.90099 3.991765,0.90099 3.400392,-1.113 7.244315,0.58299"
             id="path863" />
          <path
             style="fill:none;stroke:#00d4aa;stroke-width:0.0722757px;stroke-linecap:butt;stroke-linejoin:miter;stroke-opacity:1"
             d="m 36.53993,103.58712 c 3.548236,0.106 2.956863,-1.80199 6.948629,-0.90099 3.991765,0.90099 3.400392,-1.113 7.244315,0.58299"
             id="path865" />
        </g>
        <g
           id="g873"
           style="fill:none;stroke:#00d4aa"
           transform="translate(0,19.47261)">
          <path
             style="fill:none;stroke:#00d4aa;stroke-width:0.0722757px;stroke-linecap:butt;stroke-linejoin:miter;stroke-opacity:1"
             d="m 22.346986,103.90512 c 3.548236,0.106 2.956863,-1.80199 6.948629,-0.90099 3.991765,0.90099 3.400392,-1.113 7.244315,0.58299"
             id="path869" />
          <path
             style="fill:none;stroke:#00d4aa;stroke-width:0.0722757px;stroke-linecap:butt;stroke-linejoin:miter;stroke-opacity:1"
             d="m 36.53993,103.58712 c 3.548236,0.106 2.956863,-1.80199 6.948629,-0.90099 3.991765,0.90099 3.400392,-1.113 7.244315,0.58299"
             id="path871" />
        </g>
        <g
           id="g879"
           style="fill:none;stroke:#00d4aa"
           transform="translate(0,22.468396)">
          <path
             style="fill:none;stroke:#00d4aa;stroke-width:0.0722757px;stroke-linecap:butt;stroke-linejoin:miter;stroke-opacity:1"
             d="m 22.346986,103.90512 c 3.548236,0.106 2.956863,-1.80199 6.948629,-0.90099 3.991765,0.90099 3.400392,-1.113 7.244315,0.58299"
             id="path875" />
          <path
             style="fill:none;stroke:#00d4aa;stroke-width:0.0722757px;stroke-linecap:butt;stroke-linejoin:miter;stroke-opacity:1"
             d="m 36.53993,103.58712 c 3.548236,0.106 2.956863,-1.80199 6.948629,-0.90099 3.991765,0.90099 3.400392,-1.113 7.244315,0.58299"
             id="path877" />
        </g>
        <g
           id="g885"
           style="fill:none;stroke:#00d4aa"
           transform="translate(0,25.464182)">
          <path
             style="fill:none;stroke:#00d4aa;stroke-width:0.0722757px;stroke-linecap:butt;stroke-linejoin:miter;stroke-opacity:1"
             d="m 22.346986,103.90512 c 3.548236,0.106 2.956863,-1.80199 6.948629,-0.90099 3.991765,0.90099 3.400392,-1.113 7.244315,0.58299"
             id="path881" />
          <path
             style="fill:none;stroke:#00d4aa;stroke-width:0.0722757px;stroke-linecap:butt;stroke-linejoin:miter;stroke-opacity:1"
             d="m 36.53993,103.58712 c 3.548236,0.106 2.956863,-1.80199 6.948629,-0.90099 3.991765,0.90099 3.400392,-1.113 7.244315,0.58299"
             id="path883" />
        </g>
        <g
           id="g891"
           style="fill:none;stroke:#00d4aa"
           transform="translate(0,1.4978932)">
          <path
             style="fill:none;stroke:#00d4aa;stroke-width:0.0722757px;stroke-linecap:butt;stroke-linejoin:miter;stroke-opacity:1"
             d="m 22.346986,103.90512 c 3.548236,0.106 2.956863,-1.80199 6.948629,-0.90099 3.991765,0.90099 3.400392,-1.113 7.244315,0.58299"
             id="path887" />
          <path
             style="fill:none;stroke:#00d4aa;stroke-width:0.0722757px;stroke-linecap:butt;stroke-linejoin:miter;stroke-opacity:1"
             d="m 36.53993,103.58712 c 3.548236,0.106 2.956863,-1.80199 6.948629,-0.90099 3.991765,0.90099 3.400392,-1.113 7.244315,0.58299"
             id="path889" />
        </g>
        <g
           id="g897"
           style="fill:none;stroke:#00d4aa"
           transform="translate(0,4.4936792)">
          <path
             style="fill:none;stroke:#00d4aa;stroke-width:0.0722757px;stroke-linecap:butt;stroke-linejoin:miter;stroke-opacity:1"
             d="m 22.346986,103.90512 c 3.548236,0.106 2.956863,-1.80199 6.948629,-0.90099 3.991765,0.90099 3.400392,-1.113 7.244315,0.58299"
             id="path893" />
          <path
             style="fill:none;stroke:#00d4aa;stroke-width:0.0722757px;stroke-linecap:butt;stroke-linejoin:miter;stroke-opacity:1"
             d="m 36.53993,103.58712 c 3.548236,0.106 2.956863,-1.80199 6.948629,-0.90099 3.991765,0.90099 3.400392,-1.113 7.244315,0.58299"
             id="path895" />
        </g>
        <g
           id="g903"
           style="fill:none;stroke:#00d4aa"
           transform="translate(0,7.489466)">
          <path
             style="fill:none;stroke:#00d4aa;stroke-width:0.0722757px;stroke-linecap:butt;stroke-linejoin:miter;stroke-opacity:1"
             d="m 22.346986,103.90512 c 3.548236,0.106 2.956863,-1.80199 6.948629,-0.90099 3.991765,0.90099 3.400392,-1.113 7.244315,0.58299"
             id="path899" />
          <path
             style="fill:none;stroke:#00d4aa;stroke-width:0.0722757px;stroke-linecap:butt;stroke-linejoin:miter;stroke-opacity:1"
             d="m 36.53993,103.58712 c 3.548236,0.106 2.956863,-1.80199 6.948629,-0.90099 3.991765,0.90099 3.400392,-1.113 7.244315,0.58299"
             id="path901" />
        </g>
      </g>
    </g>
  </g>
</svg>
