<?xml version="1.0" encoding="UTF-8" standalone="no"?>
<svg
   xmlns:dc="http://purl.org/dc/elements/1.1/"
   xmlns:cc="http://creativecommons.org/ns#"
   xmlns:rdf="http://www.w3.org/1999/02/22-rdf-syntax-ns#"
   xmlns:svg="http://www.w3.org/2000/svg"
   xmlns="http://www.w3.org/2000/svg"
   xmlns:sodipodi="http://sodipodi.sourceforge.net/DTD/sodipodi-0.dtd"
   xmlns:inkscape="http://www.inkscape.org/namespaces/inkscape"
   width="100mm"
   height="100mm"
   viewBox="0 0 100 100"
   version="1.1"
   id="svg8"
   inkscape:version="1.0.2 (e86c870879, 2021-01-15, custom)"
   sodipodi:docname="Slug.svg">
  <defs
     id="defs2" />
  <sodipodi:namedview
     id="base"
     pagecolor="#ffffff"
     bordercolor="#666666"
     borderopacity="1.0"
     inkscape:pageopacity="0.0"
     inkscape:pageshadow="2"
     inkscape:zoom="2"
     inkscape:cx="212.30396"
     inkscape:cy="157.92308"
     inkscape:document-units="mm"
     inkscape:current-layer="g22"
     inkscape:document-rotation="0"
     showgrid="false"
     inkscape:window-width="1920"
     inkscape:window-height="1001"
     inkscape:window-x="-9"
     inkscape:window-y="-9"
     inkscape:window-maximized="1" />
  <metadata
     id="metadata5">
    <rdf:RDF>
      <cc:Work
         rdf:about="">
        <dc:format>image/svg+xml</dc:format>
        <dc:type
           rdf:resource="http://purl.org/dc/dcmitype/StillImage" />
        <dc:title></dc:title>
      </cc:Work>
    </rdf:RDF>
  </metadata>
  <g
     inkscape:label="Ebene 1"
     inkscape:groupmode="layer"
     id="layer1">
    <g
       id="g78">
      <g
         id="g22"
         transform="matrix(3.5327121,0,0,3.5327396,-79.061045,-358.83584)">
        <g
           id="g918"
           transform="matrix(0.47365696,0,0,0.47365696,19.347472,64.754172)">
          <path
             style="opacity:0.996;fill:#c8ab37;fill-opacity:0.996078;fill-rule:evenodd;stroke:#c8aa37;stroke-width:0.25;stroke-opacity:0.992157"
             d="m 207.30467,134.76432 c -8.81622,-0.2963 -11.20476,-0.47116 -20.17729,-1.47711 l -10.1773,-1.14102 -15.92699,-4.60819 c -9.66448,-2.79625 -16.13173,-4.78929 -16.4477,-5.06876 -0.2864,-0.25331 -1.87072,-1.62249 -3.52072,-3.04261 -1.65,-1.42013 -7.40486,-6.72179 -12.78858,-11.78147 -9.57495,-8.998652 -9.84895,-9.231845 -12.55497,-10.68516 l -2.76641,-1.485737 -2.94502,-0.09046 -2.94502,-0.09046 -2.64216,-1.45117 c -1.45318,-0.798145 -3.92818,-2.396035 -5.499995,-3.550867 -4.222248,-3.10214 -3.928996,-2.639455 -2.736157,-4.317038 1.551114,-2.181453 1.53864,-2.168289 3.073755,-3.243641 1.327657,-0.930025 5.429557,-5.644224 5.429557,-6.240035 0,-0.215626 -4.38013,-1.538924 -6.476409,-1.956613 -0.468275,-0.09331 -1.616057,-0.536093 -2.550625,-0.983973 -0.934568,-0.447879 -1.922279,-0.872659 -2.194912,-0.943954 -0.363577,-0.09508 -0.458369,-0.27237 -0.355647,-0.66518 0.294811,-1.127357 0.743852,-1.066274 7.092773,0.964832 5.83556,1.866873 6.12069,1.932722 6.4337,1.485839 0.35833,-0.511584 0.34178,-0.552429 -0.94888,-2.342287 -0.86942,-1.205698 -8.349619,-4.805361 -7.736993,-6.030612 v 0 l -0.570092,-1.15901 c -0.377385,-0.767232 0.501738,-1.579587 0.58818,-1.675001 0.08644,-0.09542 0.198179,-0.329731 1.67691,-0.217053 2.674725,0.203813 1.291415,0.198938 1.569865,0.424783 0.19772,0.160367 2.19362,1.636295 6.64275,4.344018 l 8.18362,4.980519 14.03386,17.789626 14.03387,17.789634 9.34607,0.0656 9.34608,0.0656 1.13044,1.09305 c 3.9089,3.77963 10.05428,7.36647 15.92199,9.29312 4.79721,1.57515 7.55807,1.98167 13.45845,1.98167 4.4845,0 5.66315,-0.0836 8.08345,-0.57358 7.66374,-1.55138 14.71196,-5.00097 20.46389,-10.01557 1.12603,-0.98169 2.15072,-1.78489 2.27708,-1.78489 0.12635,0 2.78169,2.8125 5.90075,6.25 3.11905,3.4375 5.76745,6.25 5.88533,6.25 0.2594,0 2.35117,-2.26652 4.17983,-4.529 l 1.33684,-1.65399 5.43642,1.55382 5.43641,1.55382 5.8791,0.14534 5.87911,0.14534 3.74589,2.30475 3.7459,2.30476 2.94475,5.37199 c 1.61962,2.9546 2.88886,5.42789 2.82054,5.49621 -0.0683,0.0683 -4.42825,-0.23804 -9.68874,-0.68079 l -9.56454,-0.80501 -9.006,0.76864 c -11.1061,0.94787 -29.6977,2.29881 -30.88101,2.24394 -0.48125,-0.0223 -5.375,-0.19182 -10.875,-0.37666 z"
             id="path900"
             transform="matrix(0.07489524,0,0,0.07489466,22.379702,101.57438)"
             sodipodi:nodetypes="sscssssscccssssssssssssscssssscccccssscssssscccccccssscsss" />
          <path
             style="fill:none;stroke:#000000;stroke-width:0.0748949px;stroke-linecap:butt;stroke-linejoin:miter;stroke-opacity:1"
             d="m 29.326234,106.89193 -0.03979,0.11231 0.06553,0.0562 0.112343,0.0328 0.194259,0.096 c 0,0 0.269155,0.0562 0.283198,0.0632 0.01404,0.007 0.215324,0.0679 0.215324,0.0679 l -0.277094,0.34441 -0.211836,0.14564 -0.205216,0.28465 c 0,0 0.01986,0.0728 0.02648,0.0993 0.0066,0.0265 0.0662,0 0.251555,0.16549 0.185356,0.1655 0.549449,0.35085 0.622267,0.38395 0.07282,0.0331 0.443531,0.0199 0.443531,0.0199 l 0.410431,0.21845 1.460575,1.37383 0.54299,0.46809 2.396648,0.69278 1.479181,0.16851 1.741314,0.0562 1.460457,-0.11234 h 0.168514 l 1.235772,-0.11234 1.554076,0.13106 -0.505534,-0.91767 -0.580439,-0.35575 -0.880019,-0.0187 -0.7864,-0.22468 -1.348115,-0.48682"
             id="path898" />
          <path
             style="fill:none;stroke:#000000;stroke-width:0.0748949px;stroke-linecap:butt;stroke-linejoin:miter;stroke-opacity:1"
             d="m 39.156236,109.64428 h -5.954172 l -2.097067,-2.65876 -1.240314,-0.74525 -0.186751,0.023 -0.03777,0.11904 0.04182,0.21003 0.224686,0.13107 0.280857,0.18723 0.168514,0.22469"
             id="path892"
             sodipodi:nodetypes="cccccccccc" />
          <g
             id="g890"
             transform="translate(4.2690289,-3.3702597)">
            <path
               sodipodi:type="spiral"
               style="fill:#ffd42a;fill-rule:evenodd;stroke:#000000;stroke-width:0.0748952"
               id="path860"
               sodipodi:cx="32.812611"
               sodipodi:cy="110.73706"
               sodipodi:expansion="1"
               sodipodi:revolution="3.3502619"
               sodipodi:radius="4.3697114"
               sodipodi:argument="-13.933846"
               sodipodi:t0="0"
               d="m 32.812611,110.73706 c 0.03961,-0.19214 0.27855,-0.0414 0.319355,0.0658 0.110581,0.29061 -0.187371,0.54513 -0.451038,0.57287 -0.471639,0.0496 -0.823837,-0.39574 -0.826385,-0.83623 -0.0037,-0.64645 0.605892,-1.10792 1.221433,-1.0799 0.820419,0.0373 1.394115,0.81654 1.333413,1.60663 -0.07639,0.99425 -1.027387,1.68137 -1.991826,1.58693 -1.168065,-0.11439 -1.969231,-1.23835 -1.840443,-2.37703 0.151772,-1.34189 1.449368,-2.25747 2.762221,-2.09396 1.515742,0.18879 2.545965,1.66044 2.347472,3.14742 -0.225541,1.68961 -1.871533,2.83464 -3.532616,2.60099 -1.863484,-0.26212 -3.123435,-2.08266 -2.8545,-3.91781 0.29857,-2.03738 2.293792,-3.41234 4.30301,-3.10802 2.211274,0.33492 3.701304,2.50495 3.361529,4.68821 -0.139618,0.89712 -0.571376,1.73697 -1.213221,2.37828" />
            <path
               style="opacity:0.996;fill:#ffd42a;fill-opacity:0.996078;fill-rule:evenodd;stroke:#ffd42a;stroke-width:0.25;stroke-opacity:0.992157"
               d="m 161.6996,146.79063 c -2.46906,-2.71562 -4.83659,-5.33455 -5.26119,-5.81983 l -0.77199,-0.88234 1.12257,-1.49266 c 4.91956,-6.54143 5.82958,-15.48379 2.31884,-22.78627 -3.28707,-6.83724 -9.77813,-11.0814 -16.948,-11.0814 -2.94717,0 -5.0356,0.48917 -7.78849,1.82429 -2.73941,1.32858 -5.72489,4.20848 -6.93415,6.68893 -1.98836,4.07855 -2.03192,8.26328 -0.12688,12.18738 0.91767,1.89025 3.30057,4.27702 5.18603,5.19444 1.35192,0.65781 1.74681,0.72986 4,0.72991 2.9833,6e-5 4.27711,-0.5064 6.19941,-2.42676 0.65967,-0.659 1.22886,-1.19819 1.26487,-1.19819 0.13413,0 10.28924,11.2869 10.37501,11.53131 0.13165,0.37513 -0.84195,1.33174 -3.0619,3.00849 -3.1069,2.34667 -6.57006,3.90785 -10.52739,4.74572 -1.90256,0.40283 -6.79045,0.39897 -8.75,-0.007 -8.58082,-1.7773 -15.40973,-7.22034 -19.25234,-15.34523 -5.21803,-11.03312 -3.05464,-23.69492 5.59548,-32.748893 8.13982,-8.519858 20.2266,-12.081277 31.65482,-9.327226 13.53297,3.26127 24.0762,14.781919 26.78462,29.267729 0.69155,3.69872 0.63287,10.08708 -0.12515,13.625 -1.13178,5.28237 -3.13468,10.00212 -6.04604,14.24723 -1.50338,2.19212 -3.87575,5.00277 -4.22266,5.00277 -0.10795,0 -2.21641,-2.22187 -4.68547,-4.9375 z"
               id="path862"
               transform="matrix(0.07489524,0,0,0.07489466,22.379702,101.57438)" />
            <path
               style="opacity:0.996;fill:#ffd42a;fill-opacity:0.996078;fill-rule:evenodd;stroke:#37c837;stroke-width:0.25"
               d=""
               id="path864"
               transform="matrix(0.07489524,0,0,0.07489466,22.379702,101.57438)" />
            <path
               style="opacity:0.996;fill:#ffd42a;fill-opacity:0.996078;fill-rule:evenodd;stroke:#ffd42a;stroke-width:0.0441942;stroke-opacity:0.992157"
               d="m 141.29252,124.49636 c -0.94423,-1.0379 -1.7543,-1.93446 -1.80017,-1.99235 l -0.0834,-0.10527 0.19388,0.0289 0.19387,0.0289 0.0807,-0.22848 c 0.10703,-0.3031 0.31329,-0.52309 0.53803,-0.57384 0.36831,-0.0832 1.00781,0.13889 1.59119,0.55252 0.36799,0.26093 0.8698,0.80166 1.00905,1.08733 0.26633,0.54637 0.40139,1.49954 0.30218,2.13267 -0.0566,0.36111 -0.22781,0.95666 -0.27505,0.95666 -0.0184,0 -0.80605,-0.84919 -1.75028,-1.88709 z"
               id="path866"
               transform="matrix(0.07489524,0,0,0.07489466,22.379702,101.57438)" />
            <path
               style="opacity:0.996;fill:#ffd42a;fill-opacity:0.996078;fill-rule:evenodd;stroke:#ffd42a;stroke-width:0.0441942;stroke-opacity:0.992157"
               d="m 141.91054,125.13496 c -0.60513,-0.66236 -1.39771,-1.53243 -1.76131,-1.9335 l -0.66107,-0.7292 0.17217,-0.0221 c 0.15343,-0.0197 0.17864,-0.0409 0.23174,-0.19486 0.0793,-0.22995 0.25329,-0.45182 0.4233,-0.53973 0.26678,-0.13796 0.83889,-1.3e-4 1.42181,0.34253 0.3903,0.22943 1.07795,0.90897 1.23657,1.22199 0.1082,0.21352 0.28249,0.77419 0.31787,1.02254 0.0225,0.15822 0.0216,1.06205 -0.001,1.19693 -0.0464,0.274 -0.22251,0.83969 -0.26139,0.83969 -0.01,0 -0.5133,-0.54193 -1.11843,-1.20429 z"
               id="path868"
               transform="matrix(0.07489524,0,0,0.07489466,22.379702,101.57438)" />
            <path
               style="opacity:0.996;fill:#ffd42a;fill-opacity:0.996078;fill-rule:evenodd;stroke:#ffd42a;stroke-width:0.0441942;stroke-opacity:0.992157"
               d="m 142.64121,125.95038 c -0.43465,-0.45728 -2.89084,-3.1476 -3.06448,-3.35659 -0.12511,-0.15059 -0.11019,-0.16907 0.11813,-0.14635 0.0506,0.005 0.11204,-0.071 0.18918,-0.23406 0.0628,-0.13283 0.19474,-0.31423 0.29311,-0.4031 0.16899,-0.15267 0.1939,-0.16106 0.45164,-0.15204 0.54165,0.019 1.1283,0.3188 1.72073,0.87947 0.22703,0.21486 0.46772,0.46994 0.53487,0.56683 0.12317,0.17773 0.30424,0.65787 0.38646,1.02476 0.0524,0.23377 0.0661,1.23532 0.02,1.45865 -0.0533,0.25831 -0.21708,0.7513 -0.24952,0.7513 -0.0168,0 -0.1968,-0.17499 -0.4001,-0.38887 z"
               id="path870"
               transform="matrix(0.07489524,0,0,0.07489466,22.379702,101.57438)" />
            <path
               style="opacity:0.996;fill:#ffd42a;fill-opacity:0.996078;fill-rule:evenodd;stroke:#ffd42a;stroke-width:0.0441942;stroke-opacity:0.992157"
               d="m 134.86906,147.39038 c -1.42843,-0.0619 -2.38649,-0.17322 -3.35672,-0.3899 -4.21227,-0.94071 -8.1478,-2.85379 -11.35994,-5.5221 -0.70088,-0.58223 -1.58409,-1.3957 -2.10084,-1.93498 l -0.46242,-0.48256 v -17.09998 -17.09998 l 11.52363,0.007 c 6.338,0.004 11.44408,0.0143 11.34686,0.0226 -2.05874,0.17679 -3.90121,0.70974 -6.01041,1.73856 -2.69903,1.31651 -5.59378,4.06782 -6.84057,6.50159 -0.80282,1.56713 -1.36393,3.45105 -1.53073,5.13937 -0.068,0.68785 -0.059,1.98333 0.0185,2.6553 0.13689,1.18832 0.41707,2.31164 0.84872,3.40268 0.64247,1.62394 1.31338,2.61692 2.70385,4.00184 0.40392,0.40231 0.90345,0.86614 1.11006,1.03073 1.16954,0.9317 2.53309,1.62529 3.53553,1.79839 0.15799,0.0273 0.87015,0.0602 1.58258,0.0731 2.30007,0.0417 3.43191,-0.12837 4.53576,-0.68171 0.76111,-0.38153 1.267,-0.77526 2.34484,-1.82495 1.09501,-1.0664 1.15477,-1.11682 1.25816,-1.06149 0.21799,0.11666 5.8359,6.30788 9.32434,10.27588 1.07487,1.22263 1.12083,1.28446 1.09142,1.46821 -0.0709,0.44325 -1.07672,1.40406 -2.94905,2.81721 -2.48196,1.87327 -4.7926,3.09695 -7.64211,4.04716 -1.53461,0.51173 -3.04621,0.87573 -4.11006,0.98972 -1.2313,0.13192 -3.43254,0.18982 -4.86136,0.12786 z"
               id="path872"
               transform="matrix(0.07489524,0,0,0.07489466,22.379702,101.57438)" />
            <path
               style="opacity:0.996;fill:#ffd42a;fill-opacity:0.996078;fill-rule:evenodd;stroke:#ffd42a;stroke-width:0.0441942;stroke-opacity:0.992157"
               d=""
               id="path874"
               transform="matrix(0.07489524,0,0,0.07489466,22.379702,101.57438)" />
            <path
               style="opacity:0.996;fill:#ffd42a;fill-opacity:0.996078;fill-rule:evenodd;stroke:#ffd42a;stroke-width:0.0441942;stroke-opacity:0.992157"
               d="m 134.29454,147.37426 c -1.43641,-0.094 -2.34272,-0.23629 -3.64602,-0.57237 -4.21477,-1.08684 -8.02121,-3.09741 -11.20322,-5.91757 -0.23092,-0.20466 -0.74302,-0.69204 -1.138,-1.08308 l -0.71816,-0.71097 v -17.11469 -17.1147 l 11.45734,0.005 c 11.34043,0.005 11.45109,0.006 10.84461,0.0867 -1.9499,0.25953 -3.66128,0.79438 -5.5148,1.72352 -2.35761,1.18183 -4.74143,3.3096 -6.23224,5.56282 -0.49383,0.74637 -1.0485,1.93353 -1.40654,3.0104 -1.1423,3.43572 -0.89056,7.02487 0.71338,10.1709 0.59821,1.17335 1.45917,2.25871 2.6673,3.36252 0.89625,0.81886 1.51622,1.25629 2.4447,1.72489 1.26607,0.63896 1.80112,0.74149 3.80878,0.72982 1.54932,-0.009 2.38517,-0.10233 3.18198,-0.35528 1.13378,-0.35993 1.86857,-0.864 3.32387,-2.28015 0.44456,-0.4326 0.8738,-0.83651 0.95387,-0.89758 l 0.14559,-0.11103 0.43195,0.44459 c 1.20535,1.24064 6.59026,7.20559 9.17863,10.16732 0.76751,0.87821 0.85952,0.99899 0.85952,1.12822 0,0.37873 -0.66212,1.08382 -2.09922,2.23547 -2.79798,2.2422 -5.41911,3.69484 -8.51811,4.72073 -1.8048,0.59746 -3.25884,0.91907 -4.71805,1.04354 -0.72931,0.0622 -4.05954,0.0905 -4.81716,0.0409 z"
               id="path876"
               transform="matrix(0.07489524,0,0,0.07489466,22.379702,101.57438)" />
            <path
               style="opacity:0.996;fill:#ffd42a;fill-opacity:0.996078;fill-rule:evenodd;stroke:#ffd42a;stroke-width:0.0441942;stroke-opacity:0.992157"
               d="m 134.13986,147.37402 c -0.80844,-0.0553 -1.68136,-0.16494 -2.276,-0.28583 -3.28867,-0.66861 -6.73135,-2.10197 -9.51787,-3.96275 -1.4387,-0.96073 -2.59777,-1.90661 -3.88401,-3.16959 l -0.87284,-0.85705 v -17.11896 -17.11896 l 11.52363,0.005 c 10.02743,0.004 11.45765,0.0127 11.0154,0.0657 -1.95419,0.23439 -3.72867,0.76655 -5.56847,1.66993 -1.6338,0.80225 -2.92794,1.75205 -4.39794,3.22776 -0.86627,0.86964 -1.3785,1.48064 -1.92967,2.30181 -0.40025,0.59631 -0.98821,1.76657 -1.28783,2.56327 -1.26478,3.36305 -1.1947,6.89147 0.19969,10.05417 0.62645,1.42087 1.30334,2.36886 2.60584,3.64948 1.08735,1.06909 1.80472,1.59775 2.90957,2.1442 0.72629,0.35923 1.17152,0.51197 1.72357,0.59128 1.03399,0.14856 3.2915,0.11649 4.33103,-0.0615 0.9164,-0.15693 1.79236,-0.52182 2.53392,-1.05552 0.46201,-0.3325 0.67924,-0.52425 1.74433,-1.5397 0.49357,-0.47057 0.92807,-0.85558 0.96557,-0.85558 0.10131,0 1.05608,1.01489 3.65869,3.88909 2.73798,3.0237 5.99799,6.68639 6.60056,7.41587 0.29184,0.35331 0.29927,0.46955 0.0535,0.83757 -0.56668,0.84862 -3.21814,2.93821 -5.36983,4.23192 -2.81865,1.69472 -6.62578,3.02379 -9.50174,3.31705 -0.78925,0.0805 -4.37027,0.12245 -5.25911,0.0616 z"
               id="path878"
               transform="matrix(0.07489524,0,0,0.07489466,22.379702,101.57438)" />
          </g>
          <path
             style="fill:none;stroke:#000000;stroke-width:0.0748949px;stroke-linecap:butt;stroke-linejoin:miter;stroke-opacity:1"
             d="M 30.356042,107.13531 Z"
             id="path894" />
          <path
             style="fill:none;stroke:#000000;stroke-width:0.0748949px;stroke-linecap:butt;stroke-linejoin:miter;stroke-opacity:1"
             d="m 30.356041,107.13531 -0.936186,-0.29958 -0.09362,0.0562"
             id="path896" />
        </g>
      </g>
    </g>
  </g>
</svg>
