<?xml version="1.0" encoding="UTF-8" standalone="no"?>
<svg
   xmlns:dc="http://purl.org/dc/elements/1.1/"
   xmlns:cc="http://creativecommons.org/ns#"
   xmlns:rdf="http://www.w3.org/1999/02/22-rdf-syntax-ns#"
   xmlns:svg="http://www.w3.org/2000/svg"
   xmlns="http://www.w3.org/2000/svg"
   xmlns:sodipodi="http://sodipodi.sourceforge.net/DTD/sodipodi-0.dtd"
   xmlns:inkscape="http://www.inkscape.org/namespaces/inkscape"
   width="100mm"
   height="100mm"
   viewBox="0 0 100 100"
   version="1.1"
   id="svg8"
   inkscape:version="1.0.2 (e86c870879, 2021-01-15, custom)"
   sodipodi:docname="FireSworf.svg">
  <defs
     id="defs2" />
  <sodipodi:namedview
     id="base"
     pagecolor="#ffffff"
     bordercolor="#666666"
     borderopacity="1.0"
     inkscape:pageopacity="0.0"
     inkscape:pageshadow="2"
     inkscape:zoom="1.4142136"
     inkscape:cx="157.94904"
     inkscape:cy="259.33321"
     inkscape:document-units="mm"
     inkscape:current-layer="g22"
     inkscape:document-rotation="0"
     showgrid="false"
     inkscape:window-width="1920"
     inkscape:window-height="1001"
     inkscape:window-x="-9"
     inkscape:window-y="-9"
     inkscape:window-maximized="1" />
  <metadata
     id="metadata5">
    <rdf:RDF>
      <cc:Work
         rdf:about="">
        <dc:format>image/svg+xml</dc:format>
        <dc:type
           rdf:resource="http://purl.org/dc/dcmitype/StillImage" />
        <dc:title></dc:title>
      </cc:Work>
    </rdf:RDF>
  </metadata>
  <g
     inkscape:label="Ebene 1"
     inkscape:groupmode="layer"
     id="layer1">
    <g
       id="g78">
      <g
         id="g22"
         transform="matrix(3.5327121,0,0,3.5327396,-79.061045,-358.83584)">
        <g
           id="g133"
           transform="matrix(2.0127539,0,0,2.0127539,-20.382921,-126.04325)">
          <path
             style="fill:none;stroke:#000000;stroke-width:0.0748949px;stroke-linecap:butt;stroke-linejoin:miter;stroke-opacity:1"
             d="m 28.277702,113.55753 -0.805124,0.78639 0.09362,7.77032 -1.853657,0.33703 -0.0749,0.2434 1.928552,0.14979 v 3.63977"
             id="path21"
             sodipodi:nodetypes="ccccccc" />
          <path
             style="fill:none;stroke:#000000;stroke-width:0.0748949px;stroke-linecap:butt;stroke-linejoin:miter;stroke-opacity:1"
             d="m 28.277702,113.55753 0.805124,0.78639 -0.09362,7.77032 1.853657,0.33703 0.0749,0.2434 -1.928552,0.14979 v 3.63977"
             id="path23"
             sodipodi:nodetypes="ccccccc" />
          <path
             style="fill:none;stroke:#000000;stroke-width:0.0748949px;stroke-linecap:butt;stroke-linejoin:miter;stroke-opacity:1"
             d="m 27.566193,126.48423 c 0.468519,0.23281 0.942027,0.26603 1.423017,0"
             id="path25"
             sodipodi:nodetypes="cc" />
          <path
             style="fill:none;stroke:#000000;stroke-width:0.0748949px;stroke-linecap:butt;stroke-linejoin:miter;stroke-opacity:1"
             d="M 27.566193,122.84446 H 28.98921"
             id="path29" />
          <path
             style="opacity:0.996;fill:#c87137;fill-opacity:0.996078;fill-rule:evenodd;stroke:#000000;stroke-width:0.0625;stroke-opacity:0.992157"
             d="m 77.540281,334.51097 c -2.369454,-0.23095 -4.845966,-0.90897 -7.086916,-1.94027 l -0.661568,-0.30446 -0.01571,-23.87733 -0.01571,-23.87733 h 8.968831 8.968831 v 23.89666 23.89667 l -0.811365,0.38653 c -1.921635,0.91547 -3.739443,1.47031 -5.659855,1.72754 -0.889147,0.11909 -2.89492,0.16914 -3.686546,0.092 z"
             id="path31"
             transform="matrix(0.07489524,0,0,0.07489466,22.379702,101.57438)" />
          <path
             style="fill:none;stroke:#000000;stroke-width:0.0748949px;stroke-linecap:butt;stroke-linejoin:miter;stroke-opacity:1"
             d="m 27.604422,122.88278 1.281804,0.55616 -1.245133,0.47277 1.245133,0.43065 -1.254495,0.39787 1.273218,0.55235 -1.263856,0.45873 1.306774,0.71093"
             id="path33"
             sodipodi:nodetypes="cccccccc" />
          <path
             style="fill:none;stroke:#000000;stroke-width:0.0748949px;stroke-linecap:butt;stroke-linejoin:miter;stroke-opacity:1"
             d="m 28.926819,122.88278 -1.281804,0.55616 1.245133,0.47277 -1.245133,0.43065 1.254495,0.39787 -1.273218,0.55235 1.263856,0.45873 -1.306774,0.71093"
             id="path35"
             sodipodi:nodetypes="cccccccc" />
          <g
             id="g97"
             transform="matrix(0.38925343,0,0,1.7798139,15.092708,-93.32382)">
            <g
               id="g88"
               style="fill:#ff6600;stroke:#ff6600">
              <path
                 style="fill:#ff6600;stroke:#ff6600;stroke-width:0.0748949px;stroke-linecap:butt;stroke-linejoin:miter;stroke-opacity:1"
                 d="m 33.42675,120.9721 c -0.615641,-0.91598 -0.755444,-1.88729 -0.842572,-2.86472 0.305822,0.81275 0.611645,1.77844 0.917467,1.85364 -0.346478,-0.9854 -0.558291,-1.96044 -0.580438,-2.92089 0.232997,0.78958 0.434067,1.79467 0.711505,2.28428 0.01783,-0.88304 -0.01394,-1.76884 0.217316,-2.64003"
                 id="path61"
                 sodipodi:nodetypes="cccccc" />
              <path
                 style="fill:#ff6600;stroke:#ff6600;stroke-width:0.0748949px;stroke-linecap:butt;stroke-linejoin:miter;stroke-opacity:1"
                 d="m 34.273306,120.9721 c 0.290649,-0.93834 0.695764,-1.68296 0.842572,-2.86472 -0.351297,0.46327 -0.624621,1.19164 -0.917467,1.85364 0.235454,-0.93865 0.489185,-1.86207 0.580438,-2.92089 -0.386255,0.66968 -0.649362,1.41515 -0.711505,2.28428 -0.03138,-0.86738 -0.03121,-1.72505 -0.217316,-2.64003"
                 id="path63"
                 sodipodi:nodetypes="cccccc" />
              <path
                 style="fill:#ff6600;stroke:#ff6600;stroke-width:0.0748949px;stroke-linecap:butt;stroke-linejoin:miter;stroke-opacity:1"
                 d="m 33.426749,120.9721 h 0.846556"
                 id="path65" />
            </g>
            <path
               style="opacity:0.996;fill:#ff6600;fill-opacity:0.996078;fill-rule:evenodd;stroke:#ff6600;stroke-width:0.0625;stroke-opacity:0.992157"
               d="m 147.7129,258.33392 c -0.0947,-0.14451 -0.0649,-0.52277 0.46804,-5.95313 0.31303,-3.18934 0.58487,-5.90146 0.6041,-6.02692 0.0349,-0.22745 0.0356,-0.22794 0.25514,-0.16732 0.12109,0.0334 0.23191,0.049 0.24626,0.0347 0.0143,-0.0144 -0.0644,-0.2864 -0.17508,-0.60457 l -0.20117,-0.57847 0.362,-3.69687 c 0.1991,-2.03328 0.37745,-3.81598 0.39633,-3.96156 l 0.0343,-0.26468 0.50726,0.88968 0.50726,0.88969 0.0414,-1.375 c 0.0228,-0.75625 0.0722,-3.85 0.10989,-6.875 0.0377,-3.025 0.0849,-5.79531 0.10492,-6.15625 0.02,-0.36094 0.4417,-4.77656 0.937,-9.8125 0.79502,-8.0834 1.03767,-10.2205 1.17618,-10.35901 0.0259,-0.026 0.49939,2.90478 0.65872,4.07776 0.10536,0.77567 0.77133,7.35783 0.99913,9.875 0.0867,0.9581 0.23479,3.59799 0.34708,6.1875 0.10109,2.33119 0.40689,11.48452 0.40689,12.17908 v 0.41467 h 0.52604 c 0.30968,0 0.53498,-0.0268 0.54778,-0.0652 0.0478,-0.14327 0.81297,7.99426 0.77009,8.18945 -0.0281,0.12799 -0.0191,0.21976 0.0243,0.24657 0.0426,0.0263 0.30136,2.39702 0.67412,6.1754 l 0.60503,6.1327 -0.11484,0.37929 -0.11484,0.37929 h -5.30116 -5.30117 z"
               id="path90"
               transform="matrix(0.07489524,0,0,0.07489466,22.379702,101.57438)" />
          </g>
          <path
             style="fill:none;stroke:#000000;stroke-width:0.0748949px;stroke-linecap:butt;stroke-linejoin:miter;stroke-opacity:1"
             d="m 27.566197,122.11424 h 1.423008"
             id="path99" />
          <path
             style="opacity:0.996;fill:#999999;fill-opacity:0.996078;fill-rule:evenodd;stroke:#999999;stroke-width:0.0625;stroke-opacity:0.992157"
             d="m 62.504005,282.94852 c -3.4375,-0.27039 -8.945681,-0.70119 -12.240402,-0.95733 -3.294721,-0.25614 -6.002024,-0.47734 -6.016228,-0.49154 -0.02346,-0.0235 0.633152,-2.22496 0.675877,-2.26611 0.01004,-0.01 5.516691,-1.01877 12.237003,-2.24244 l 12.21875,-2.22486 9.376,2.3e-4 9.375999,2.3e-4 12.215316,2.22152 c 6.71843,1.22184 12.22077,2.22731 12.22744,2.23438 0.038,0.0403 0.7026,2.26133 0.68261,2.28131 -0.0133,0.0133 -5.58798,0.45705 -12.38825,0.98618 l -12.364115,0.96204 -9.875,-0.006 -9.875,-0.006 z"
             id="path101"
             transform="matrix(0.07489524,0,0,0.07489466,22.379702,101.57438)" />
          <path
             style="opacity:0.996;fill:#d45500;fill-opacity:0.996078;fill-rule:evenodd;stroke:#d45500;stroke-width:0.125;stroke-opacity:0.992157"
             d="m 69.762306,269.30495 c -0.04474,-2.42344 -0.334757,-25.58437 -0.644483,-51.46875 l -0.563138,-47.0625 3.536198,-3.46832 c 1.944908,-1.90758 4.245669,-4.14265 5.112802,-4.96683 l 1.576605,-1.4985 3.798395,3.69713 c 2.089118,2.03343 4.374634,4.26851 5.078925,4.96684 l 1.28053,1.2697 -0.62354,51.43749 c -0.342947,28.29062 -0.623874,51.45155 -0.62428,51.46874 -3.75e-4,0.0172 -4.016074,0.0312 -8.923705,0.0312 H 69.84365 Z m 11.291285,3.125 c 0.07695,-0.56719 0.252665,-2.63437 0.390483,-4.59375 0.137819,-1.95937 0.557781,-7.41562 0.933252,-12.125 1.951895,-24.4818 2.474498,-32.76352 2.951543,-46.77329 0.11867,-3.48508 0.116514,-4.41092 -0.01099,-4.71875 -0.31882,-0.76969 -0.272915,-0.97388 -1.066098,4.74204 -0.563178,4.05843 -1.066283,8.44136 -1.87247,16.3125 -0.641352,6.26179 -0.822352,7.16195 -0.565525,2.8125 0.717816,-12.15651 1.598238,-34.1051 1.815108,-45.25 0.06469,-3.32424 0.04948,-3.84335 -0.118771,-4.05337 -0.106127,-0.13248 -0.215902,-0.21686 -0.243942,-0.1875 -0.160938,0.16848 -1.483855,12.59639 -2.008224,18.86587 -0.553259,6.6149 -1.193379,16.59154 -1.193379,18.59949 0,0.5182 -0.03375,0.90842 -0.07501,0.86717 -0.04125,-0.0413 -0.123532,-4.39594 -0.182837,-9.67708 -0.109369,-9.73927 -0.27754,-18.30181 -0.493014,-25.10208 -0.137985,-4.35474 -0.401311,-11.61612 -0.422271,-11.64436 -0.0079,-0.0107 -0.126869,-0.0388 -0.264369,-0.0625 -0.235936,-0.0407 -0.254747,0.0483 -0.334395,1.58186 -0.647244,12.46245 -0.857516,21.46786 -0.96025,41.125 l -0.08035,15.375 -0.22648,-2.6875 c -0.552828,-6.56004 -0.90291,-11.91135 -1.901267,-29.0625 -0.38018,-6.53125 -0.773927,-13.16875 -0.874993,-14.75 -0.101067,-1.58125 -0.183983,-2.97391 -0.184259,-3.09481 -4.37e-4,-0.19012 -0.03638,-0.19856 -0.266233,-0.0625 l -0.265732,0.15731 0.08112,6.3125 c 0.141303,10.99608 0.53237,23.30186 1.078503,33.9375 0.378593,7.37291 1.150604,19.83215 1.497916,24.1744 0.216938,2.71227 0.09733,2.47468 -0.37611,-0.74709 -0.695326,-4.73172 -1.400162,-12.26119 -2.941623,-31.42416 -0.315083,-3.91702 -0.596373,-7.14535 -0.625089,-7.17406 -0.02872,-0.0287 -0.144549,0.0244 -0.257409,0.11809 -0.229551,0.19051 -0.221949,0.94159 0.142868,14.11532 0.512605,18.51042 1.361546,32.03197 2.817446,44.875 0.434751,3.8351 1.061752,8.6439 1.250892,9.59375 l 0.130677,0.65625 h 2.29069 2.290691 z"
             id="path103"
             transform="matrix(0.07489524,0,0,0.07489466,22.379702,101.57438)" />
          <path
             style="opacity:0.996;fill:#d45500;fill-opacity:0.996078;fill-rule:evenodd;stroke:#d45500;stroke-width:0.0110485;stroke-opacity:0.992157"
             d="m 76.398964,246.35114 c -0.09896,-0.39871 -0.241548,-1.07476 -0.232447,-1.10207 0.0023,-0.007 0.01068,0.0105 0.01858,0.0387 0.01884,0.0673 0.04261,0.088 0.096,0.0836 0.04475,-0.004 0.06122,-0.0233 0.07729,-0.0919 0.0081,-0.0347 0.105187,1.17966 0.10066,1.25953 -0.0019,0.0331 -0.01695,-0.014 -0.06009,-0.18783 z"
             id="path105"
             transform="matrix(0.07489524,0,0,0.07489466,22.379702,101.57438)" />
          <path
             style="opacity:0.996;fill:#d45500;fill-opacity:0.996078;fill-rule:evenodd;stroke:#d45500;stroke-width:0.0110485;stroke-opacity:0.992157"
             d="m 77.505433,235.12495 c -0.09031,-0.72316 -0.162396,-1.31997 -0.160204,-1.32625 0.0022,-0.006 0.07856,-0.0981 0.169716,-0.20398 l 0.165728,-0.19257 0.0026,0.36603 c 0.0014,0.20132 -0.0011,0.88479 -0.0055,1.51882 l -0.0081,1.15279 z"
             id="path107"
             transform="matrix(0.07489524,0,0,0.07489466,22.379702,101.57438)" />
          <path
             style="opacity:0.996;fill:#d45500;fill-opacity:0.996078;fill-rule:evenodd;stroke:#d45500;stroke-width:0.0110485;stroke-opacity:0.992157"
             d="m 81.262067,237.45152 c -7.28e-4,-0.0189 0.01108,-0.25754 0.02625,-0.53033 0.0418,-0.75183 0.288457,-5.26932 0.317252,-5.81034 0.0203,-0.38143 0.02689,-0.45902 0.03342,-0.39355 0.0086,0.0861 0.01935,0.1081 0.06052,0.12375 0.03814,0.0145 0.07679,-0.009 0.09645,-0.0578 0.01676,-0.0419 0.07246,-0.32146 0.07246,-0.36371 0,-0.0165 0.0078,-0.0214 0.03442,-0.0214 h 0.03442 l -0.0069,0.058 c -0.01008,0.0851 -0.244316,2.5546 -0.454031,4.78678 -0.202885,2.15949 -0.212392,2.25747 -0.21428,2.20852 z"
             id="path109"
             transform="matrix(0.07489524,0,0,0.07489466,22.379702,101.57438)" />
          <path
             style="opacity:0.996;fill:#d45500;fill-opacity:0.996078;fill-rule:evenodd;stroke:#d45500;stroke-width:0.0110485;stroke-opacity:0.992157"
             d="m 79.874773,220.61048 c -0.0042,-0.27649 -0.01045,-0.94769 -0.01384,-1.49155 -0.0034,-0.54387 -0.01334,-1.88129 -0.0221,-2.97206 -0.0088,-1.09077 -0.01493,-2.11994 -0.01372,-2.28705 0.0025,-0.34271 0.0031,-0.32614 0.01954,0.55243 0.02852,1.52161 0.05795,2.44699 0.08024,2.52303 0.01556,0.0531 0.05027,0.0722 0.09822,0.0541 l 0.03315,-0.0125 -0.0066,0.096 c -0.01085,0.15693 -0.106696,2.45537 -0.153274,3.67574 l -0.01392,0.3646 z"
             id="path111"
             transform="matrix(0.07489524,0,0,0.07489466,22.379702,101.57438)" />
        </g>
      </g>
    </g>
  </g>
</svg>
