<?xml version="1.0" encoding="UTF-8" standalone="no"?>
<svg
   xmlns:dc="http://purl.org/dc/elements/1.1/"
   xmlns:cc="http://creativecommons.org/ns#"
   xmlns:rdf="http://www.w3.org/1999/02/22-rdf-syntax-ns#"
   xmlns:svg="http://www.w3.org/2000/svg"
   xmlns="http://www.w3.org/2000/svg"
   xmlns:sodipodi="http://sodipodi.sourceforge.net/DTD/sodipodi-0.dtd"
   xmlns:inkscape="http://www.inkscape.org/namespaces/inkscape"
   width="100mm"
   height="100mm"
   viewBox="0 0 100 100"
   version="1.1"
   id="svg8"
   inkscape:version="1.0.2 (e86c870879, 2021-01-15, custom)"
   sodipodi:docname="LongSword.svg">
  <defs
     id="defs2" />
  <sodipodi:namedview
     id="base"
     pagecolor="#ffffff"
     bordercolor="#666666"
     borderopacity="1.0"
     inkscape:pageopacity="0.0"
     inkscape:pageshadow="2"
     inkscape:zoom="1.4142136"
     inkscape:cx="40.23605"
     inkscape:cy="185.38277"
     inkscape:document-units="mm"
     inkscape:current-layer="g78"
     inkscape:document-rotation="0"
     showgrid="false"
     inkscape:window-width="1920"
     inkscape:window-height="1001"
     inkscape:window-x="-9"
     inkscape:window-y="-9"
     inkscape:window-maximized="1" />
  <metadata
     id="metadata5">
    <rdf:RDF>
      <cc:Work
         rdf:about="">
        <dc:format>image/svg+xml</dc:format>
        <dc:type
           rdf:resource="http://purl.org/dc/dcmitype/StillImage" />
        <dc:title></dc:title>
      </cc:Work>
    </rdf:RDF>
  </metadata>
  <g
     inkscape:label="Ebene 1"
     inkscape:groupmode="layer"
     id="layer1">
    <g
       id="g78">
      <g
         id="g86"
         transform="matrix(1.570723,0,0,1.570723,-14.571413,-16.481728)">
        <g
           id="g68">
          <path
             style="fill:#ac9d93;stroke:#c8beb7;stroke-width:0.264583px;stroke-linecap:butt;stroke-linejoin:miter;stroke-opacity:1"
             d="m 38.588981,37.469003 5.039032,-0.06072"
             id="path44" />
          <g
             id="g22"
             transform="matrix(3.5327121,0,0,3.5327396,-79.061045,-358.83584)">
            <rect
               style="fill:#a05a2c;fill-rule:evenodd;stroke:#000000;stroke-width:0.0748949"
               id="rect32"
               width="1.4185379"
               height="3.53687"
               x="33.311939"
               y="118.84264" />
            <g
               id="g30">
              <path
                 style="fill:none;stroke:#000000;stroke-width:0.0748949px;stroke-linecap:butt;stroke-linejoin:miter;stroke-opacity:1"
                 d="m 33.311938,118.84264 0.01891,3.53687 h 1.399628 l -0.01891,-3.55578 2.515549,-0.37828 0.03783,-0.60524 -2.496635,0.0757 v -12.06698 l -0.737642,-1.13483"
                 id="path24" />
              <path
                 style="fill:none;stroke:#000000;stroke-width:0.0748949px;stroke-linecap:butt;stroke-linejoin:miter;stroke-opacity:1"
                 d="m 34.721006,118.84264 -0.01891,3.53687 h -1.399628 l 0.01891,-3.55578 -2.515549,-0.37828 -0.03783,-0.60524 2.496635,0.0757 v -12.06698 l 0.737642,-1.13483"
                 id="path26" />
            </g>
            <path
               style="fill:none;stroke:#000000;stroke-width:0.0748949px;stroke-linecap:butt;stroke-linejoin:miter;stroke-opacity:1"
               d="m 33.264633,117.91591 h 1.503676"
               id="path34" />
            <path
               style="fill:#917c6f;fill-rule:evenodd;stroke:#000000;stroke-width:0.126269"
               d="m 146.58469,229.90201 c -0.0231,-0.0558 -7.57088,-1.22939 -16.77274,-2.60795 -9.20186,-1.37856 -16.73979,-2.51193 -16.75097,-2.51861 -0.0557,-0.0333 -0.44694,-6.91057 -0.39604,-6.96147 0.0326,-0.0326 6.50355,0.1485 14.37993,0.4024 12.3488,0.39807 15.95506,0.46844 26.18999,0.51104 11.61057,0.0483 12.22834,0.0384 28.34104,-0.45716 9.05947,-0.27861 16.49346,-0.48486 16.51998,-0.45834 0.0408,0.0408 -0.3534,6.9281 -0.39861,6.96379 -0.009,0.007 -7.51608,1.13218 -16.68321,2.50082 -9.16714,1.36863 -16.76618,2.54209 -16.88678,2.60769 -0.26937,0.14652 -17.48195,0.16397 -17.54259,0.0178 z"
               id="path36"
               transform="matrix(0.07489524,0,0,0.07489466,22.379702,101.57438)" />
          </g>
          <path
             style="fill:#c8beb7;fill-rule:evenodd;stroke:#c8beb7;stroke-width:0.126269"
             d="m 145.84812,179.62212 v -38.00699 h 9.47018 9.47018 v 38.00699 38.00699 h -9.47018 -9.47018 z"
             id="path38"
             transform="scale(0.26458333)" />
          <path
             style="fill:#c8beb7;fill-rule:evenodd;stroke:#c8beb7;stroke-width:0.178571"
             d="m 145.96471,99.304727 v -42.0809 l 4.68202,-7.203916 c 3.5768,-5.503377 4.72919,-7.151437 4.88185,-6.981601 0.1099,0.122273 2.26192,3.403225 4.78226,7.291003 l 4.58244,7.068687 v 41.993812 41.993808 h -9.46428 -9.46429 z"
             id="path40"
             transform="scale(0.26458333)" />
          <path
             style="opacity:1;fill:none;stroke:#000000;stroke-width:0.261738px;stroke-linecap:butt;stroke-linejoin:miter;stroke-opacity:1"
             d="m 38.732476,60.986113 4.701107,2.040889 -4.635815,1.706318 4.668462,1.940521 -4.668462,1.405204 4.668462,1.907062 -4.701109,1.539033 4.766348,1.973961"
             id="path52" />
          <path
             style="opacity:1;fill:none;stroke:#000000;stroke-width:0.261738px;stroke-linecap:butt;stroke-linejoin:miter;stroke-opacity:1"
             d="m 43.510604,60.986113 -4.701107,2.040889 4.635815,1.706318 -4.668462,1.940521 4.668462,1.405204 -4.668462,1.907062 4.701109,1.539033 -4.766348,1.973961"
             id="path54" />
        </g>
        <path
           style="fill:none;stroke:#ac9d93;stroke-width:0.263077px;stroke-linecap:butt;stroke-linejoin:miter;stroke-opacity:1"
           d="m 41.05919,11.621013 0.140228,45.987979"
           id="path70" />
      </g>
    </g>
  </g>
</svg>
