<?xml version="1.0" encoding="UTF-8" standalone="no"?>
<svg
   xmlns:dc="http://purl.org/dc/elements/1.1/"
   xmlns:cc="http://creativecommons.org/ns#"
   xmlns:rdf="http://www.w3.org/1999/02/22-rdf-syntax-ns#"
   xmlns:svg="http://www.w3.org/2000/svg"
   xmlns="http://www.w3.org/2000/svg"
   xmlns:sodipodi="http://sodipodi.sourceforge.net/DTD/sodipodi-0.dtd"
   xmlns:inkscape="http://www.inkscape.org/namespaces/inkscape"
   width="100mm"
   height="100mm"
   viewBox="0 0 100 100"
   version="1.1"
   id="svg8"
   inkscape:version="1.0.2 (e86c870879, 2021-01-15, custom)"
   sodipodi:docname="TwohandSword.svg">
  <defs
     id="defs2" />
  <sodipodi:namedview
     id="base"
     pagecolor="#ffffff"
     bordercolor="#666666"
     borderopacity="1.0"
     inkscape:pageopacity="0.0"
     inkscape:pageshadow="2"
     inkscape:zoom="1.4142136"
     inkscape:cx="302.44342"
     inkscape:cy="202.65473"
     inkscape:document-units="mm"
     inkscape:current-layer="g78"
     inkscape:document-rotation="0"
     showgrid="false"
     inkscape:window-width="1920"
     inkscape:window-height="1001"
     inkscape:window-x="-9"
     inkscape:window-y="-9"
     inkscape:window-maximized="1" />
  <metadata
     id="metadata5">
    <rdf:RDF>
      <cc:Work
         rdf:about="">
        <dc:format>image/svg+xml</dc:format>
        <dc:type
           rdf:resource="http://purl.org/dc/dcmitype/StillImage" />
        <dc:title />
      </cc:Work>
    </rdf:RDF>
  </metadata>
  <g
     inkscape:label="Ebene 1"
     inkscape:groupmode="layer"
     id="layer1">
    <g
       id="g78">
      <g
         id="g2969"
         transform="matrix(1.2344007,0,0,1.2344007,4.6023475,-2.2982923)">
        <g
           id="g22"
           transform="matrix(3.5327121,0,0,3.5327396,-79.061045,-358.83584)">
          <g
             id="g2911">
            <g
               id="g2856">
              <g
                 id="g2802">
                <g
                   id="g2749">
                  <g
                     id="g2697">
                    <g
                       id="g2646">
                      <g
                         id="g2596">
                        <g
                           id="g2547">
                          <g
                             id="g2499">
                            <g
                               id="g2452">
                              <g
                                 id="g2406">
                                <g
                                   id="g2361">
                                <g
                                   id="g2317">
                                <g
                                   id="g2274">
                                <g
                                   id="g2232">
                                <g
                                   id="g2191">
                                <g
                                   id="g2151">
                                <g
                                   id="g2112">
                                <g
                                   id="g2074">
                                <g
                                   id="g2037">
                                <g
                                   id="g2001">
                                <g
                                   id="g1966">
                                <g
                                   id="g1932">
                                <g
                                   id="g1899">
                                <g
                                   id="g1867">
                                <g
                                   id="g1836">
                                <g
                                   id="g1806">
                                <g
                                   id="g1777">
                                <g
                                   id="g1749">
                                <g
                                   id="g1722">
                                <g
                                   id="g1696">
                                <g
                                   id="g1671">
                                <g
                                   id="g1647">
                                <g
                                   id="g1624">
                                <g
                                   id="g1602">
                                <path
                                   style="fill:#a05a2c;fill-rule:evenodd;stroke:#999999;stroke-width:0.0883883"
                                   d="m 131.0141,251.60373 c -0.0419,-0.66303 -0.94587,-31.37799 -0.93907,-31.9082 0.002,-0.14628 0.48678,-0.15468 8.92921,-0.15468 7.08243,0 8.92739,0.0228 8.92802,0.11049 0.003,0.47266 -0.89427,30.84713 -0.93647,31.68722 l -0.0544,1.08276 h -7.9378 -7.9378 z"
                                   id="path1555"
                                   transform="matrix(0.07489524,0,0,0.07489466,22.379702,101.57438)" />
                                <path
                                   style="fill:#a05a2c;fill-rule:evenodd;stroke:#999999;stroke-width:0.0883883"
                                   d="m 137.54583,308.37382 c -1.58431,-0.18305 -3.09614,-0.71224 -4.61829,-1.61655 l -0.90598,-0.53826 -0.001,-1.02315 c -5.5e-4,-0.56274 -0.0995,-8.20251 -0.21996,-16.97726 -0.12043,-8.77475 -0.21941,-16.56066 -0.21996,-17.30202 l -10e-4,-1.34792 h 7.42462 7.42462 l 1.8e-4,0.86178 c 1.8e-4,1.03273 -0.43251,33.51677 -0.46421,34.84711 l -0.0221,0.92808 -1.16429,0.58361 c -2.47198,1.23909 -5.14812,1.82541 -7.23261,1.58458 z"
                                   id="path1557"
                                   transform="matrix(0.07489524,0,0,0.07489466,22.379702,101.57438)" />
                                <path
                                   style="fill:none;stroke:#502d16;stroke-width:0.0748949px;stroke-linecap:butt;stroke-linejoin:miter;stroke-opacity:1"
                                   d="m 32.23439,121.76363 1.061472,0.49105 -1.01284,0.30451 0.98636,0.41705 -0.97312,0.29789 0.97312,0.38395 -0.94664,0.28466 0.94002,0.33761 -0.995274,0.2282"
                                   id="path1561"
                                   sodipodi:nodetypes="ccccccccc" />
                                <path
                                   style="fill:#b3b3b3;fill-rule:evenodd;stroke:#b3b3b3;stroke-width:0.0187359"
                                   d="m 32.122445,116.39988 c -0.0062,-0.20881 -0.04156,-2.98655 -0.07858,-6.17276 l -0.06731,-5.7931 0.401244,-0.94226 c 0.220684,-0.51825 0.404991,-0.94602 0.409572,-0.95061 0.0046,-0.005 0.190392,0.42031 0.412914,0.9442 l 0.404586,0.95254 -0.07241,5.92241 c -0.03983,3.25732 -0.07265,6.03419 -0.07295,6.17081 l -5.25e-4,0.24841 h -0.662635 -0.662636 z"
                                   id="path1579" />
                                <path
                                   style="fill:none;stroke:#999999;stroke-width:0.0748949px;stroke-linecap:butt;stroke-linejoin:miter;stroke-opacity:1"
                                   d="m 32.078636,116.81544 h 1.423007"
                                   id="path1567" />
                                <path
                                   style="fill:none;stroke:#000000;stroke-width:0.0748949px;stroke-linecap:butt;stroke-linejoin:miter;stroke-opacity:1"
                                   d="m 32.79014,102.39822 -0.861295,2.02216 0.149791,12.39506 -2.841154,0.23338 0.02421,0.51557 2.816945,0.41192 0.07489,2.54642 c -0.298034,0.37726 -0.361779,0.77125 0.03745,1.19831 l 0.03745,2.80833"
                                   id="path1525"
                                   sodipodi:nodetypes="ccccccccc" />
                                <path
                                   style="fill:#b3b3b3;stroke:#999999;stroke-width:0.0748949px;stroke-linecap:butt;stroke-linejoin:miter;stroke-opacity:1"
                                   d="m 32.153526,120.52273 0.03745,1.19831 h 1.198326 l 0.03745,-1.19831 h -1.273225"
                                   id="path1549" />
                                <path
                                   style="fill:none;stroke:#502d16;stroke-width:0.0748949px;stroke-linecap:butt;stroke-linejoin:miter;stroke-opacity:1"
                                   d="m 32.078637,117.97631 1.001537,0.43027 0.328226,0.14101 -1.224674,0.45676 1.151855,0.39719 -1.125376,0.39719 1.138616,0.35085 -1.152915,0.32981"
                                   id="path1559"
                                   sodipodi:nodetypes="cccccccc" />
                                <path
                                   style="fill:none;stroke:#502d16;stroke-width:0.0748949px;stroke-linecap:butt;stroke-linejoin:miter;stroke-opacity:1"
                                   d="m 33.4942,117.97631 -1.001537,0.43027 -0.328226,0.14101 1.224674,0.45676 -1.151855,0.39719 1.125376,0.39719 -1.138616,0.35085 1.152915,0.32981"
                                   id="path1563"
                                   sodipodi:nodetypes="cccccccc" />
                                <path
                                   style="fill:none;stroke:#000000;stroke-width:0.0748949px;stroke-linecap:butt;stroke-linejoin:miter;stroke-opacity:1"
                                   d="m 32.078636,117.97631 h 1.423006"
                                   id="path1543" />
                                <path
                                   style="fill:none;stroke:#000000;stroke-width:0.0748949px;stroke-linecap:butt;stroke-linejoin:miter;stroke-opacity:1"
                                   d="m 32.153526,120.52273 h 1.273226"
                                   id="path1545" />
                                <path
                                   style="fill:none;stroke:#000000;stroke-width:0.0748949px;stroke-linecap:butt;stroke-linejoin:miter;stroke-opacity:1"
                                   d="m 32.190976,121.72104 h 1.198326"
                                   id="path1547" />
                                <path
                                   style="fill:#808080;fill-rule:evenodd;stroke:#999999;stroke-width:0.0441942"
                                   d="m 147.57301,267.41805 c 1.2e-4,-0.0596 0.0895,-2.94223 0.19865,-6.40594 0.10913,-3.46372 0.19861,-6.33745 0.19884,-6.38606 4.9e-4,-0.10594 0.13519,0.0846 0.55417,0.78398 2.00906,3.3535 2.22301,6.47949 0.65832,9.61861 -0.37216,0.74663 -0.78861,1.42322 -1.26806,2.06016 -0.34713,0.46116 -0.34218,0.4564 -0.34192,0.32925 z"
                                   id="path1551"
                                   transform="matrix(0.07489524,0,0,0.07489466,22.379702,101.57438)" />
                                <path
                                   style="fill:#808080;fill-rule:evenodd;stroke:#999999;stroke-width:0.0441942"
                                   d="m 130.06562,267.05858 c -0.98022,-1.32327 -1.67491,-2.71307 -2.00292,-4.00708 -0.59221,-2.33623 -0.22853,-4.64633 1.1236,-7.13719 0.31117,-0.57323 0.83865,-1.40466 0.84032,-1.32453 5.9e-4,0.0287 0.0911,2.91233 0.20123,6.40815 0.11009,3.49582 0.19461,6.39216 0.18783,6.43631 -0.008,0.0546 -0.12039,-0.0656 -0.35006,-0.37566 z"
                                   id="path1553"
                                   transform="matrix(0.07489524,0,0,0.07489466,22.379702,101.57438)" />
                                <path
                                   style="fill:none;stroke:#502d16;stroke-width:0.0748949px;stroke-linecap:butt;stroke-linejoin:miter;stroke-opacity:1"
                                   d="m 33.339536,121.76363 -1.061472,0.49105 1.01284,0.30451 -0.98636,0.41705 0.97312,0.29789 -0.97312,0.38395 0.94664,0.28466 -0.94002,0.33761 0.995274,0.2282"
                                   id="path1565"
                                   sodipodi:nodetypes="ccccccccc" />
                                <path
                                   style="fill:#999999;fill-rule:evenodd;stroke:#999999;stroke-width:0.0883883"
                                   d="m 111.55159,215.83003 c -9.69841,-1.42274 -17.974041,-2.63482 -18.390286,-2.69352 l -0.756808,-0.10671 -0.134897,-2.93214 c -0.07419,-1.61268 -0.12768,-2.94246 -0.118859,-2.95509 0.0203,-0.0291 0.841764,-0.0974 25.20869,-2.09757 l 12.39277,-1.01726 9.30657,8.4e-4 9.30657,8.4e-4 18.72516,1.54016 c 10.29885,0.84709 18.73675,1.55271 18.7509,1.56805 0.0223,0.0241 -0.23035,5.83776 -0.25529,5.87561 -0.005,0.008 -8.32814,1.23083 -18.49563,2.71794 l -18.48636,2.70386 -9.70953,-0.009 -9.70953,-0.009 z"
                                   id="path1569"
                                   transform="matrix(0.07489524,0,0,0.07489466,22.379702,101.57438)" />
                                <path
                                   style="fill:#999999;stroke:#999999;stroke-width:0.0748949px;stroke-linecap:butt;stroke-linejoin:miter;stroke-opacity:1"
                                   d="m 32.790139,102.39822 0.03745,14.41722"
                                   id="path1581" />
                                <path
                                   style="fill:none;stroke:#000000;stroke-width:0.0748949px;stroke-linecap:butt;stroke-linejoin:miter;stroke-opacity:1"
                                   d="m 32.79014,102.39822 0.861295,2.02216 -0.149791,12.39506 2.841154,0.23338 -0.02421,0.51557 -2.816945,0.41192 -0.07489,2.54642 c 0.298034,0.37726 0.361779,0.77125 -0.03745,1.19831 l -0.03745,2.80833"
                                   id="path1541"
                                   sodipodi:nodetypes="ccccccccc" />
                                <path
                                   style="fill:none;stroke:#000000;stroke-width:0.0748949px;stroke-linecap:butt;stroke-linejoin:miter;stroke-opacity:1"
                                   d="m 32.79014,102.39822 -0.861295,2.02216 0.149791,12.39506 -2.841154,0.23338 0.02421,0.51557 2.816945,0.41192 0.07489,2.54642 c -0.298034,0.37726 -0.361779,0.77125 0.03745,1.19831 l 0.03745,2.80833"
                                   id="path1539"
                                   sodipodi:nodetypes="ccccccccc" />
                                </g>
                                </g>
                                </g>
                                </g>
                                </g>
                                </g>
                                </g>
                                </g>
                                </g>
                                </g>
                                </g>
                                </g>
                                </g>
                                </g>
                                </g>
                                </g>
                                </g>
                                </g>
                                </g>
                                </g>
                                </g>
                                </g>
                                </g>
                                </g>
                              </g>
                            </g>
                          </g>
                        </g>
                      </g>
                    </g>
                  </g>
                </g>
              </g>
            </g>
          </g>
        </g>
        <path
           style="fill:none;stroke:#000000;stroke-width:0.264583px;stroke-linecap:butt;stroke-linejoin:miter;stroke-opacity:1"
           d="m 34.792713,81.093997 c 1.322911,0.959707 2.645821,0.782666 3.968732,0"
           id="path1537"
           sodipodi:nodetypes="cc" />
      </g>
    </g>
  </g>
</svg>
